%TF.GenerationSoftware,KiCad,Pcbnew,8.0.3*%
%TF.CreationDate,2024-08-23T11:34:52-06:00*%
%TF.ProjectId,MP3,4d50332e-6b69-4636-9164-5f7063625858,rev?*%
%TF.SameCoordinates,Original*%
%TF.FileFunction,Copper,L1,Top*%
%TF.FilePolarity,Positive*%
%FSLAX46Y46*%
G04 Gerber Fmt 4.6, Leading zero omitted, Abs format (unit mm)*
G04 Created by KiCad (PCBNEW 8.0.3) date 2024-08-23 11:34:52*
%MOMM*%
%LPD*%
G01*
G04 APERTURE LIST*
G04 Aperture macros list*
%AMRoundRect*
0 Rectangle with rounded corners*
0 $1 Rounding radius*
0 $2 $3 $4 $5 $6 $7 $8 $9 X,Y pos of 4 corners*
0 Add a 4 corners polygon primitive as box body*
4,1,4,$2,$3,$4,$5,$6,$7,$8,$9,$2,$3,0*
0 Add four circle primitives for the rounded corners*
1,1,$1+$1,$2,$3*
1,1,$1+$1,$4,$5*
1,1,$1+$1,$6,$7*
1,1,$1+$1,$8,$9*
0 Add four rect primitives between the rounded corners*
20,1,$1+$1,$2,$3,$4,$5,0*
20,1,$1+$1,$4,$5,$6,$7,0*
20,1,$1+$1,$6,$7,$8,$9,0*
20,1,$1+$1,$8,$9,$2,$3,0*%
G04 Aperture macros list end*
%TA.AperFunction,ComponentPad*%
%ADD10C,1.600000*%
%TD*%
%TA.AperFunction,ComponentPad*%
%ADD11O,1.600000X1.600000*%
%TD*%
%TA.AperFunction,ComponentPad*%
%ADD12O,2.616000X1.308000*%
%TD*%
%TA.AperFunction,ComponentPad*%
%ADD13O,1.008000X2.016000*%
%TD*%
%TA.AperFunction,ComponentPad*%
%ADD14C,1.524000*%
%TD*%
%TA.AperFunction,ComponentPad*%
%ADD15R,1.524000X1.524000*%
%TD*%
%TA.AperFunction,ComponentPad*%
%ADD16C,2.000000*%
%TD*%
%TA.AperFunction,ComponentPad*%
%ADD17R,1.500000X1.500000*%
%TD*%
%TA.AperFunction,ComponentPad*%
%ADD18O,2.286000X1.400000*%
%TD*%
%TA.AperFunction,ComponentPad*%
%ADD19RoundRect,0.270833X0.629167X-0.379167X0.629167X0.379167X-0.629167X0.379167X-0.629167X-0.379167X0*%
%TD*%
%TA.AperFunction,ComponentPad*%
%ADD20O,1.800000X1.300000*%
%TD*%
%TA.AperFunction,ComponentPad*%
%ADD21C,1.400000*%
%TD*%
%TA.AperFunction,ComponentPad*%
%ADD22R,1.400000X1.400000*%
%TD*%
%TA.AperFunction,Conductor*%
%ADD23C,0.406400*%
%TD*%
G04 APERTURE END LIST*
D10*
%TO.P,R3,1*%
%TO.N,VCC2*%
X111150000Y-41143300D03*
D11*
%TO.P,R3,2*%
%TO.N,VP*%
X118770000Y-41143300D03*
%TD*%
D10*
%TO.P,R4,1*%
%TO.N,VP*%
X127660000Y-41143300D03*
D11*
%TO.P,R4,2*%
%TO.N,GND*%
X135280000Y-41143300D03*
%TD*%
D12*
%TO.P,3.5mm,1 (GND)*%
%TO.N,audio-*%
X123340000Y-145563300D03*
D13*
%TO.P,3.5mm,2 (R)*%
%TO.N,audio+*%
X118140000Y-137663300D03*
%TO.P,3.5mm,5 (L)*%
X127940000Y-141363300D03*
%TD*%
D10*
%TO.P,R1,1*%
%TO.N,VCC*%
X111150000Y-32253300D03*
D11*
%TO.P,R1,2*%
%TO.N,SW1*%
X118770000Y-32253300D03*
%TD*%
D14*
%TO.P,REF\u002A\u002A,CS*%
%TO.N,CS_LCD*%
X112489996Y-55109073D03*
%TO.P,REF\u002A\u002A,DC*%
%TO.N,GPIO4*%
X112489996Y-60189073D03*
%TO.P,REF\u002A\u002A,GND*%
%TO.N,GND*%
X112489996Y-52569073D03*
%TO.P,REF\u002A\u002A,LED*%
%TO.N,14*%
X112489996Y-67809073D03*
%TO.P,REF\u002A\u002A,RESET*%
%TO.N,EN*%
X112489998Y-57651187D03*
%TO.P,REF\u002A\u002A,SCK*%
%TO.N,SCK*%
X112489996Y-65269073D03*
%TO.P,REF\u002A\u002A,SDI (MOSI)*%
%TO.N,SDI*%
X112489996Y-62729073D03*
%TO.P,REF\u002A\u002A,SDO (MISO)*%
%TO.N,N/C*%
X112489996Y-70349073D03*
D15*
%TO.P,REF\u002A\u002A,SD_CS*%
%TO.N,SD_CS*%
X186210000Y-62706187D03*
D14*
%TO.P,REF\u002A\u002A,SD_MISO*%
%TO.N,SDO*%
X186210000Y-67786187D03*
%TO.P,REF\u002A\u002A,SD_MOSI*%
%TO.N,SDI*%
X186210000Y-65246187D03*
%TO.P,REF\u002A\u002A,SD_SCK*%
%TO.N,SCK*%
X186210000Y-70326187D03*
%TO.P,REF\u002A\u002A,T_CLK*%
%TO.N,N/C*%
X112489996Y-72889073D03*
%TO.P,REF\u002A\u002A,T_CS*%
X112489996Y-75429073D03*
%TO.P,REF\u002A\u002A,T_DIN*%
X112489996Y-77969073D03*
%TO.P,REF\u002A\u002A,T_DO*%
X112489998Y-80501187D03*
%TO.P,REF\u002A\u002A,T_IRQ*%
X112489998Y-83051187D03*
D15*
%TO.P,REF\u002A\u002A,VCC*%
%TO.N,VCC*%
X112489998Y-50026187D03*
%TD*%
D16*
%TO.P,SW2,1*%
%TO.N,SW2*%
X135125000Y-115268300D03*
X141625000Y-115268300D03*
%TO.P,SW2,2*%
%TO.N,GND*%
X135125000Y-119768300D03*
X141625000Y-119768300D03*
%TD*%
%TO.P,SW4,1*%
%TO.N,SW4*%
X167035000Y-115268300D03*
X173535000Y-115268300D03*
%TO.P,SW4,2*%
%TO.N,GND*%
X167035000Y-119768300D03*
X173535000Y-119768300D03*
%TD*%
D17*
%TO.P,SW6,1*%
%TO.N,PWR*%
X141630000Y-146553300D03*
D10*
%TO.P,SW6,2*%
%TO.N,VCC2*%
X139090000Y-146553300D03*
%TO.P,SW6,3*%
%TO.N,N/C*%
X144170000Y-146553300D03*
%TD*%
%TO.P,C1,1*%
%TO.N,VCC2*%
X179730000Y-34793300D03*
%TO.P,C1,2*%
%TO.N,GND*%
X184730000Y-34793300D03*
%TD*%
%TO.P,R2,1*%
%TO.N,VCC*%
X127660000Y-32253300D03*
D11*
%TO.P,R2,2*%
%TO.N,SW3*%
X135280000Y-32253300D03*
%TD*%
D10*
%TO.P,C2,1*%
%TO.N,VP*%
X179810000Y-41143300D03*
%TO.P,C2,2*%
%TO.N,GND*%
X184810000Y-41143300D03*
%TD*%
D16*
%TO.P,SW3,1*%
%TO.N,SW3*%
X151080000Y-115268300D03*
X157580000Y-115268300D03*
%TO.P,SW3,2*%
%TO.N,GND*%
X151080000Y-119768300D03*
X157580000Y-119768300D03*
%TD*%
%TO.P,SW1,1*%
%TO.N,SW1*%
X151080000Y-101963300D03*
X157580000Y-101963300D03*
%TO.P,SW1,2*%
%TO.N,GND*%
X151080000Y-106463300D03*
X157580000Y-106463300D03*
%TD*%
%TO.P,SW5,1*%
%TO.N,SW5*%
X151080000Y-128573300D03*
X157580000Y-128573300D03*
%TO.P,SW5,2*%
%TO.N,GND*%
X151080000Y-133073300D03*
X157580000Y-133073300D03*
%TD*%
D18*
%TO.P,U1,0*%
%TO.N,SW1*%
X162548123Y-129783800D03*
%TO.P,U1,2*%
%TO.N,SW5*%
X162548123Y-132323800D03*
%TO.P,U1,3v*%
%TO.N,VCC*%
X162548123Y-106923800D03*
%TO.P,U1,4*%
%TO.N,GPIO4*%
X162548123Y-127243800D03*
%TO.P,U1,5*%
%TO.N,CS_LCD*%
X162548123Y-119623800D03*
%TO.P,U1,12*%
%TO.N,N/C*%
X185408123Y-134863800D03*
%TO.P,U1,13*%
%TO.N,SW2*%
X162548123Y-137403800D03*
%TO.P,U1,14*%
%TO.N,14*%
X185408123Y-132323800D03*
%TO.P,U1,15*%
%TO.N,SW4*%
X162548123Y-134863800D03*
%TO.P,U1,16*%
%TO.N,N/C*%
X162548123Y-124703800D03*
%TO.P,U1,17*%
X162548123Y-122163800D03*
%TO.P,U1,18*%
%TO.N,SCK*%
X162548123Y-117083800D03*
%TO.P,U1,19*%
%TO.N,SDO*%
X162548123Y-112003800D03*
%TO.P,U1,22*%
%TO.N,SD_CS*%
X162548123Y-109463800D03*
%TO.P,U1,23*%
%TO.N,SDI*%
X162548123Y-114543800D03*
%TO.P,U1,25*%
%TO.N,MAX_DIN*%
X185408123Y-124703800D03*
%TO.P,U1,26*%
%TO.N,MAX_LRC*%
X185408123Y-127243800D03*
%TO.P,U1,27*%
%TO.N,MAX_BCLK*%
X185408123Y-129783800D03*
%TO.P,U1,32*%
%TO.N,N/C*%
X185408123Y-119623800D03*
%TO.P,U1,33*%
X185408123Y-122163800D03*
%TO.P,U1,34*%
X185408123Y-114543800D03*
%TO.P,U1,35*%
X185408123Y-117083800D03*
%TO.P,U1,EN*%
%TO.N,EN*%
X185408123Y-112003800D03*
%TO.P,U1,GND*%
%TO.N,GND*%
X185408123Y-137403800D03*
%TO.P,U1,VN*%
%TO.N,SW3*%
X185408123Y-109463800D03*
%TO.P,U1,VP*%
%TO.N,VP*%
X185408123Y-106923800D03*
%TD*%
D14*
%TO.P,MAX98357,+*%
%TO.N,audio+*%
X116885000Y-121373300D03*
%TO.P,MAX98357,-*%
%TO.N,audio-*%
X113710000Y-121373300D03*
%TO.P,MAX98357,BCLK*%
%TO.N,MAX_BCLK*%
X110217500Y-108419300D03*
%TO.P,MAX98357,DIN*%
%TO.N,MAX_DIN*%
X112757500Y-108419300D03*
%TO.P,MAX98357,GAIN*%
%TO.N,N/C*%
X115297500Y-108419300D03*
%TO.P,MAX98357,GND*%
%TO.N,GND*%
X120377500Y-108419300D03*
%TO.P,MAX98357,LRC*%
%TO.N,MAX_LRC*%
X107677500Y-108419300D03*
%TO.P,MAX98357,SD*%
%TO.N,N/C*%
X117837500Y-108419300D03*
%TO.P,MAX98357,VIN*%
%TO.N,VCC*%
X122917500Y-108419300D03*
%TD*%
D19*
%TO.P,BT1,1*%
%TO.N,PWR*%
X117190000Y-94243300D03*
D20*
%TO.P,BT1,2*%
%TO.N,GND*%
X117190000Y-92243300D03*
%TD*%
D21*
%TO.P,PW1,1*%
%TO.N,GND*%
X191160000Y-142743300D03*
D22*
%TO.P,PW1,2*%
%TO.N,VCC2*%
X191160000Y-140203300D03*
%TD*%
D23*
%TO.N,SCK*%
X162548100Y-117083800D02*
X164200800Y-117083800D01*
X170240000Y-86296200D02*
X186210000Y-70326200D01*
X164223500Y-117106500D02*
X168113500Y-117106500D01*
X170240000Y-114980000D02*
X170240000Y-86296200D01*
X164200800Y-117083800D02*
X164223500Y-117106500D01*
X168113500Y-117106500D02*
X170240000Y-114980000D01*
%TO.N,CS_LCD*%
X159340000Y-121179200D02*
X160895400Y-119623800D01*
X162548100Y-119623800D02*
X160895400Y-119623800D01*
X148340000Y-124433300D02*
X159020000Y-124433300D01*
X145640000Y-121733300D02*
X145640000Y-108313300D01*
X123650600Y-86323900D02*
X123650600Y-66269700D01*
X123650600Y-66269700D02*
X112490000Y-55109100D01*
X159340000Y-124113300D02*
X159340000Y-121179200D01*
X148340000Y-124433300D02*
X145640000Y-121733300D01*
X145640000Y-108313300D02*
X123650600Y-86323900D01*
X159020000Y-124433300D02*
X159340000Y-124113300D01*
%TO.N,SD_CS*%
X186210000Y-62706200D02*
X165160000Y-83756200D01*
X165160000Y-107513300D02*
X163209500Y-109463800D01*
X163209500Y-109463800D02*
X162548100Y-109463800D01*
X165160000Y-83756200D02*
X165160000Y-107513300D01*
%TO.N,GPIO4*%
X162548100Y-127243800D02*
X160895400Y-127243800D01*
X143940000Y-122383300D02*
X143940000Y-110128100D01*
X121775200Y-69474300D02*
X121775200Y-87963300D01*
X160084900Y-126433300D02*
X147990000Y-126433300D01*
X112490000Y-60189100D02*
X121775200Y-69474300D01*
X143940000Y-110128100D02*
X121775200Y-87963300D01*
X160895400Y-127243800D02*
X160084900Y-126433300D01*
X147990000Y-126433300D02*
X143940000Y-122383300D01*
%TO.N,GND*%
X171281400Y-114548638D02*
X173090038Y-112740000D01*
X191160000Y-142743300D02*
X190700000Y-142743300D01*
X185408123Y-137403800D02*
X188969500Y-137403800D01*
X181530000Y-119680538D02*
X181530000Y-135210000D01*
X174589462Y-112740000D02*
X181530000Y-119680538D01*
X190880000Y-135493300D02*
X190880000Y-47213300D01*
X141625000Y-123618300D02*
X151080000Y-133073300D01*
X173090038Y-112740000D02*
X174589462Y-112740000D01*
X141625000Y-119768300D02*
X141625000Y-123618300D01*
X149241800Y-89320877D02*
X112489996Y-52569073D01*
X171281400Y-117514700D02*
X171281400Y-114548638D01*
X149241800Y-104625100D02*
X149241800Y-89320877D01*
X149090000Y-117778300D02*
X151080000Y-119768300D01*
X109050000Y-82943600D02*
X117190000Y-91083600D01*
X149090000Y-108453300D02*
X149090000Y-117778300D01*
X190700000Y-142743300D02*
X185360500Y-137403800D01*
X181530000Y-135210000D02*
X183723800Y-137403800D01*
X117190000Y-91083600D02*
X117190000Y-92243300D01*
X109050000Y-56009100D02*
X109050000Y-82943600D01*
X151080000Y-106463300D02*
X149090000Y-108453300D01*
X188969500Y-137403800D02*
X190880000Y-135493300D01*
X183723800Y-137403800D02*
X185408123Y-137403800D01*
X151080000Y-106463300D02*
X149241800Y-104625100D01*
X173535000Y-119768300D02*
X171281400Y-117514700D01*
X112490000Y-52569100D02*
X109050000Y-56009100D01*
X190880000Y-47213300D02*
X184810000Y-41143300D01*
%TO.N,VCC*%
X113080000Y-49436200D02*
X107150000Y-55366200D01*
X113080000Y-34183300D02*
X113080000Y-49436200D01*
X112490000Y-33593300D02*
X115990000Y-30093300D01*
X112490000Y-33593300D02*
X113080000Y-34183300D01*
X112490000Y-33593300D02*
X111150000Y-32253300D01*
X115990000Y-30093300D02*
X125500000Y-30093300D01*
X107150000Y-55366200D02*
X107150000Y-92651800D01*
X107150000Y-92651800D02*
X122917500Y-108419300D01*
X125500000Y-30093300D02*
X127660000Y-32253300D01*
%TO.N,SDO*%
X169110000Y-84886200D02*
X186210000Y-67786200D01*
X168629500Y-112003800D02*
X169110000Y-111523300D01*
X162548100Y-112003800D02*
X168629500Y-112003800D01*
X169110000Y-111523300D02*
X169110000Y-84886200D01*
%TO.N,audio+*%
X116885000Y-136408300D02*
X118140000Y-137663300D01*
X116885000Y-121373300D02*
X116885000Y-136408300D01*
%TO.N,audio-*%
X121656300Y-144399600D02*
X123340000Y-144399600D01*
X113710000Y-121373300D02*
X113710000Y-136453300D01*
X123340000Y-144399600D02*
X123340000Y-145563300D01*
X113710000Y-136453300D02*
X121656300Y-144399600D01*
%TO.N,PWR*%
X124860000Y-101913300D02*
X124860000Y-128523600D01*
X117190000Y-94243300D02*
X124860000Y-101913300D01*
X141630000Y-145293600D02*
X141630000Y-146553300D01*
X124860000Y-128523600D02*
X141630000Y-145293600D01*
%TO.N,VCC2*%
X187840000Y-31283300D02*
X183240000Y-31283300D01*
X183240000Y-31283300D02*
X179730000Y-34793300D01*
X193200000Y-138163300D02*
X193200000Y-36643300D01*
X193200000Y-36643300D02*
X187840000Y-31283300D01*
X191160000Y-140203300D02*
X193200000Y-138163300D01*
%TO.N,VP*%
X179810000Y-41143300D02*
X179810000Y-48317900D01*
X188480000Y-56987900D02*
X188480000Y-105504600D01*
X187060800Y-106923800D02*
X185408100Y-106923800D01*
X179810000Y-48317900D02*
X188480000Y-56987900D01*
X188480000Y-105504600D02*
X187060800Y-106923800D01*
%TO.N,SW1*%
X118770000Y-35390000D02*
X151080000Y-67700000D01*
X151080000Y-67700000D02*
X151080000Y-101963300D01*
X118770000Y-32253300D02*
X118770000Y-35390000D01*
%TO.N,SW2*%
X139140000Y-117753300D02*
X141625000Y-115268300D01*
X162548100Y-137403800D02*
X149130500Y-137403800D01*
X149130500Y-137403800D02*
X139140000Y-127413300D01*
X139140000Y-127413300D02*
X139140000Y-117753300D01*
%TO.N,SW3*%
X154210000Y-111898300D02*
X154210000Y-52493000D01*
X157580000Y-115268300D02*
X154210000Y-111898300D01*
X135280000Y-33563000D02*
X135280000Y-32253300D01*
X154210000Y-52493000D02*
X135280000Y-33563000D01*
%TO.N,SW4*%
X175645000Y-115268300D02*
X173535000Y-115268300D01*
X164200800Y-134863800D02*
X178020000Y-121044600D01*
X162548100Y-134863800D02*
X164200800Y-134863800D01*
X178020000Y-117643300D02*
X175645000Y-115268300D01*
X178020000Y-121044600D02*
X178020000Y-117643300D01*
%TD*%
M02*
