M48
; DRILL file {KiCad 8.0.3} date 2024-08-22T16:36:08-0600
; FORMAT={-:-/ absolute / metric / decimal}
; #@! TF.CreationDate,2024-08-22T16:36:08-06:00
; #@! TF.GenerationSoftware,Kicad,Pcbnew,8.0.3
; #@! TF.FileFunction,MixedPlating,1,2
FMAT,2
METRIC
; #@! TA.AperFunction,Plated,PTH,ComponentDrill
T1C0.500
; #@! TA.AperFunction,Plated,PTH,ComponentDrill
T2C0.750
; #@! TA.AperFunction,Plated,PTH,ComponentDrill
T3C0.762
; #@! TA.AperFunction,Plated,PTH,ComponentDrill
T4C0.800
; #@! TA.AperFunction,Plated,PTH,ComponentDrill
T5C0.889
; #@! TA.AperFunction,Plated,PTH,ComponentDrill
T6C1.100
%
G90
G05
T2
X117.19Y-92.243
X117.19Y-94.243
T3
X107.677Y-108.419
X110.218Y-108.419
X112.49Y-52.569
X112.49Y-55.109
X112.49Y-60.189
X112.49Y-62.729
X112.49Y-65.269
X112.49Y-67.809
X112.49Y-70.349
X112.49Y-72.889
X112.49Y-75.429
X112.49Y-77.969
X112.49Y-50.026
X112.49Y-57.651
X112.49Y-80.501
X112.49Y-83.051
X112.757Y-108.419
X113.71Y-121.373
X115.297Y-108.419
X116.885Y-121.373
X117.837Y-108.419
X120.377Y-108.419
X122.917Y-108.419
X186.21Y-62.706
X186.21Y-65.246
X186.21Y-67.786
X186.21Y-70.326
T4
X111.15Y-32.253
X111.15Y-41.143
X118.77Y-32.253
X118.77Y-41.143
X127.66Y-32.253
X127.66Y-41.143
X135.28Y-32.253
X135.28Y-41.143
X139.09Y-146.553
X141.63Y-146.553
X144.17Y-146.553
X179.73Y-34.793
X179.81Y-41.143
X184.73Y-34.793
X184.81Y-41.143
X191.16Y-140.203
X191.16Y-142.743
T5
X162.548Y-106.924
X162.548Y-109.464
X162.548Y-112.004
X162.548Y-114.544
X162.548Y-117.084
X162.548Y-119.624
X162.548Y-122.164
X162.548Y-124.704
X162.548Y-127.244
X162.548Y-129.784
X162.548Y-132.324
X162.548Y-134.864
X162.548Y-137.404
X185.408Y-106.924
X185.408Y-109.464
X185.408Y-112.004
X185.408Y-114.544
X185.408Y-117.084
X185.408Y-119.624
X185.408Y-122.164
X185.408Y-124.704
X185.408Y-127.244
X185.408Y-129.784
X185.408Y-132.324
X185.408Y-134.864
X185.408Y-137.404
T6
X135.125Y-115.268
X135.125Y-119.768
X141.625Y-115.268
X141.625Y-119.768
X151.08Y-101.963
X151.08Y-106.463
X151.08Y-115.268
X151.08Y-119.768
X151.08Y-128.573
X151.08Y-133.073
X157.58Y-101.963
X157.58Y-106.463
X157.58Y-115.268
X157.58Y-119.768
X157.58Y-128.573
X157.58Y-133.073
X167.035Y-115.268
X167.035Y-119.768
X173.535Y-115.268
X173.535Y-119.768
T1
G00X118.14Y-138.163
M15
G01X118.14Y-137.163
M16
G05
G00X127.94Y-141.863
M15
G01X127.94Y-140.863
M16
G05
T4
G00X123.69Y-145.563
M15
G01X122.99Y-145.563
M16
G05
M30
