%TF.GenerationSoftware,KiCad,Pcbnew,8.0.4*%
%TF.CreationDate,2025-02-21T10:23:32-07:00*%
%TF.ProjectId,PCB ESP32 S3 Wroom 1 n16r8,50434220-4553-4503-9332-205333205772,rev?*%
%TF.SameCoordinates,Original*%
%TF.FileFunction,Legend,Top*%
%TF.FilePolarity,Positive*%
%FSLAX46Y46*%
G04 Gerber Fmt 4.6, Leading zero omitted, Abs format (unit mm)*
G04 Created by KiCad (PCBNEW 8.0.4) date 2025-02-21 10:23:32*
%MOMM*%
%LPD*%
G01*
G04 APERTURE LIST*
%ADD10C,0.150000*%
%ADD11C,0.100000*%
%ADD12C,0.120000*%
G04 APERTURE END LIST*
D10*
X75754819Y-91833333D02*
X76469104Y-91833333D01*
X76469104Y-91833333D02*
X76611961Y-91880952D01*
X76611961Y-91880952D02*
X76707200Y-91976190D01*
X76707200Y-91976190D02*
X76754819Y-92119047D01*
X76754819Y-92119047D02*
X76754819Y-92214285D01*
X76754819Y-90833333D02*
X76754819Y-91404761D01*
X76754819Y-91119047D02*
X75754819Y-91119047D01*
X75754819Y-91119047D02*
X75897676Y-91214285D01*
X75897676Y-91214285D02*
X75992914Y-91309523D01*
X75992914Y-91309523D02*
X76040533Y-91404761D01*
X113333333Y-107534819D02*
X113000000Y-107058628D01*
X112761905Y-107534819D02*
X112761905Y-106534819D01*
X112761905Y-106534819D02*
X113142857Y-106534819D01*
X113142857Y-106534819D02*
X113238095Y-106582438D01*
X113238095Y-106582438D02*
X113285714Y-106630057D01*
X113285714Y-106630057D02*
X113333333Y-106725295D01*
X113333333Y-106725295D02*
X113333333Y-106868152D01*
X113333333Y-106868152D02*
X113285714Y-106963390D01*
X113285714Y-106963390D02*
X113238095Y-107011009D01*
X113238095Y-107011009D02*
X113142857Y-107058628D01*
X113142857Y-107058628D02*
X112761905Y-107058628D01*
X114190476Y-106868152D02*
X114190476Y-107534819D01*
X113952381Y-106487200D02*
X113714286Y-107201485D01*
X113714286Y-107201485D02*
X114333333Y-107201485D01*
X113333333Y-111534819D02*
X113000000Y-111058628D01*
X112761905Y-111534819D02*
X112761905Y-110534819D01*
X112761905Y-110534819D02*
X113142857Y-110534819D01*
X113142857Y-110534819D02*
X113238095Y-110582438D01*
X113238095Y-110582438D02*
X113285714Y-110630057D01*
X113285714Y-110630057D02*
X113333333Y-110725295D01*
X113333333Y-110725295D02*
X113333333Y-110868152D01*
X113333333Y-110868152D02*
X113285714Y-110963390D01*
X113285714Y-110963390D02*
X113238095Y-111011009D01*
X113238095Y-111011009D02*
X113142857Y-111058628D01*
X113142857Y-111058628D02*
X112761905Y-111058628D01*
X114285714Y-111534819D02*
X113714286Y-111534819D01*
X114000000Y-111534819D02*
X114000000Y-110534819D01*
X114000000Y-110534819D02*
X113904762Y-110677676D01*
X113904762Y-110677676D02*
X113809524Y-110772914D01*
X113809524Y-110772914D02*
X113714286Y-110820533D01*
X93735713Y-122654819D02*
X93735713Y-121654819D01*
X93735713Y-121654819D02*
X94116665Y-121654819D01*
X94116665Y-121654819D02*
X94211903Y-121702438D01*
X94211903Y-121702438D02*
X94259522Y-121750057D01*
X94259522Y-121750057D02*
X94307141Y-121845295D01*
X94307141Y-121845295D02*
X94307141Y-121988152D01*
X94307141Y-121988152D02*
X94259522Y-122083390D01*
X94259522Y-122083390D02*
X94211903Y-122131009D01*
X94211903Y-122131009D02*
X94116665Y-122178628D01*
X94116665Y-122178628D02*
X93735713Y-122178628D01*
X94735713Y-122654819D02*
X94735713Y-121988152D01*
X94735713Y-122178628D02*
X94783332Y-122083390D01*
X94783332Y-122083390D02*
X94830951Y-122035771D01*
X94830951Y-122035771D02*
X94926189Y-121988152D01*
X94926189Y-121988152D02*
X95021427Y-121988152D01*
X95354761Y-122654819D02*
X95354761Y-121988152D01*
X95354761Y-121654819D02*
X95307142Y-121702438D01*
X95307142Y-121702438D02*
X95354761Y-121750057D01*
X95354761Y-121750057D02*
X95402380Y-121702438D01*
X95402380Y-121702438D02*
X95354761Y-121654819D01*
X95354761Y-121654819D02*
X95354761Y-121750057D01*
X95830951Y-122654819D02*
X95830951Y-121988152D01*
X95830951Y-122083390D02*
X95878570Y-122035771D01*
X95878570Y-122035771D02*
X95973808Y-121988152D01*
X95973808Y-121988152D02*
X96116665Y-121988152D01*
X96116665Y-121988152D02*
X96211903Y-122035771D01*
X96211903Y-122035771D02*
X96259522Y-122131009D01*
X96259522Y-122131009D02*
X96259522Y-122654819D01*
X96259522Y-122131009D02*
X96307141Y-122035771D01*
X96307141Y-122035771D02*
X96402379Y-121988152D01*
X96402379Y-121988152D02*
X96545236Y-121988152D01*
X96545236Y-121988152D02*
X96640475Y-122035771D01*
X96640475Y-122035771D02*
X96688094Y-122131009D01*
X96688094Y-122131009D02*
X96688094Y-122654819D01*
X97592855Y-122654819D02*
X97592855Y-122131009D01*
X97592855Y-122131009D02*
X97545236Y-122035771D01*
X97545236Y-122035771D02*
X97449998Y-121988152D01*
X97449998Y-121988152D02*
X97259522Y-121988152D01*
X97259522Y-121988152D02*
X97164284Y-122035771D01*
X97592855Y-122607200D02*
X97497617Y-122654819D01*
X97497617Y-122654819D02*
X97259522Y-122654819D01*
X97259522Y-122654819D02*
X97164284Y-122607200D01*
X97164284Y-122607200D02*
X97116665Y-122511961D01*
X97116665Y-122511961D02*
X97116665Y-122416723D01*
X97116665Y-122416723D02*
X97164284Y-122321485D01*
X97164284Y-122321485D02*
X97259522Y-122273866D01*
X97259522Y-122273866D02*
X97497617Y-122273866D01*
X97497617Y-122273866D02*
X97592855Y-122226247D01*
X98069046Y-122654819D02*
X98069046Y-121988152D01*
X98069046Y-122178628D02*
X98116665Y-122083390D01*
X98116665Y-122083390D02*
X98164284Y-122035771D01*
X98164284Y-122035771D02*
X98259522Y-121988152D01*
X98259522Y-121988152D02*
X98354760Y-121988152D01*
X98592856Y-121988152D02*
X98830951Y-122654819D01*
X99069046Y-121988152D02*
X98830951Y-122654819D01*
X98830951Y-122654819D02*
X98735713Y-122892914D01*
X98735713Y-122892914D02*
X98688094Y-122940533D01*
X98688094Y-122940533D02*
X98592856Y-122988152D01*
X100783332Y-122654819D02*
X100449999Y-122178628D01*
X100211904Y-122654819D02*
X100211904Y-121654819D01*
X100211904Y-121654819D02*
X100592856Y-121654819D01*
X100592856Y-121654819D02*
X100688094Y-121702438D01*
X100688094Y-121702438D02*
X100735713Y-121750057D01*
X100735713Y-121750057D02*
X100783332Y-121845295D01*
X100783332Y-121845295D02*
X100783332Y-121988152D01*
X100783332Y-121988152D02*
X100735713Y-122083390D01*
X100735713Y-122083390D02*
X100688094Y-122131009D01*
X100688094Y-122131009D02*
X100592856Y-122178628D01*
X100592856Y-122178628D02*
X100211904Y-122178628D01*
X101354761Y-122654819D02*
X101259523Y-122607200D01*
X101259523Y-122607200D02*
X101211904Y-122559580D01*
X101211904Y-122559580D02*
X101164285Y-122464342D01*
X101164285Y-122464342D02*
X101164285Y-122178628D01*
X101164285Y-122178628D02*
X101211904Y-122083390D01*
X101211904Y-122083390D02*
X101259523Y-122035771D01*
X101259523Y-122035771D02*
X101354761Y-121988152D01*
X101354761Y-121988152D02*
X101497618Y-121988152D01*
X101497618Y-121988152D02*
X101592856Y-122035771D01*
X101592856Y-122035771D02*
X101640475Y-122083390D01*
X101640475Y-122083390D02*
X101688094Y-122178628D01*
X101688094Y-122178628D02*
X101688094Y-122464342D01*
X101688094Y-122464342D02*
X101640475Y-122559580D01*
X101640475Y-122559580D02*
X101592856Y-122607200D01*
X101592856Y-122607200D02*
X101497618Y-122654819D01*
X101497618Y-122654819D02*
X101354761Y-122654819D01*
X101973809Y-121988152D02*
X102354761Y-121988152D01*
X102116666Y-121654819D02*
X102116666Y-122511961D01*
X102116666Y-122511961D02*
X102164285Y-122607200D01*
X102164285Y-122607200D02*
X102259523Y-122654819D01*
X102259523Y-122654819D02*
X102354761Y-122654819D01*
X103116666Y-122654819D02*
X103116666Y-122131009D01*
X103116666Y-122131009D02*
X103069047Y-122035771D01*
X103069047Y-122035771D02*
X102973809Y-121988152D01*
X102973809Y-121988152D02*
X102783333Y-121988152D01*
X102783333Y-121988152D02*
X102688095Y-122035771D01*
X103116666Y-122607200D02*
X103021428Y-122654819D01*
X103021428Y-122654819D02*
X102783333Y-122654819D01*
X102783333Y-122654819D02*
X102688095Y-122607200D01*
X102688095Y-122607200D02*
X102640476Y-122511961D01*
X102640476Y-122511961D02*
X102640476Y-122416723D01*
X102640476Y-122416723D02*
X102688095Y-122321485D01*
X102688095Y-122321485D02*
X102783333Y-122273866D01*
X102783333Y-122273866D02*
X103021428Y-122273866D01*
X103021428Y-122273866D02*
X103116666Y-122226247D01*
X103592857Y-122654819D02*
X103592857Y-121988152D01*
X103592857Y-122178628D02*
X103640476Y-122083390D01*
X103640476Y-122083390D02*
X103688095Y-122035771D01*
X103688095Y-122035771D02*
X103783333Y-121988152D01*
X103783333Y-121988152D02*
X103878571Y-121988152D01*
X104116667Y-121988152D02*
X104354762Y-122654819D01*
X104592857Y-121988152D02*
X104354762Y-122654819D01*
X104354762Y-122654819D02*
X104259524Y-122892914D01*
X104259524Y-122892914D02*
X104211905Y-122940533D01*
X104211905Y-122940533D02*
X104116667Y-122988152D01*
X105735715Y-122131009D02*
X106069048Y-122131009D01*
X106211905Y-122654819D02*
X105735715Y-122654819D01*
X105735715Y-122654819D02*
X105735715Y-121654819D01*
X105735715Y-121654819D02*
X106211905Y-121654819D01*
X106640477Y-121988152D02*
X106640477Y-122654819D01*
X106640477Y-122083390D02*
X106688096Y-122035771D01*
X106688096Y-122035771D02*
X106783334Y-121988152D01*
X106783334Y-121988152D02*
X106926191Y-121988152D01*
X106926191Y-121988152D02*
X107021429Y-122035771D01*
X107021429Y-122035771D02*
X107069048Y-122131009D01*
X107069048Y-122131009D02*
X107069048Y-122654819D01*
X107973810Y-122607200D02*
X107878572Y-122654819D01*
X107878572Y-122654819D02*
X107688096Y-122654819D01*
X107688096Y-122654819D02*
X107592858Y-122607200D01*
X107592858Y-122607200D02*
X107545239Y-122559580D01*
X107545239Y-122559580D02*
X107497620Y-122464342D01*
X107497620Y-122464342D02*
X107497620Y-122178628D01*
X107497620Y-122178628D02*
X107545239Y-122083390D01*
X107545239Y-122083390D02*
X107592858Y-122035771D01*
X107592858Y-122035771D02*
X107688096Y-121988152D01*
X107688096Y-121988152D02*
X107878572Y-121988152D01*
X107878572Y-121988152D02*
X107973810Y-122035771D01*
X108545239Y-122654819D02*
X108450001Y-122607200D01*
X108450001Y-122607200D02*
X108402382Y-122559580D01*
X108402382Y-122559580D02*
X108354763Y-122464342D01*
X108354763Y-122464342D02*
X108354763Y-122178628D01*
X108354763Y-122178628D02*
X108402382Y-122083390D01*
X108402382Y-122083390D02*
X108450001Y-122035771D01*
X108450001Y-122035771D02*
X108545239Y-121988152D01*
X108545239Y-121988152D02*
X108688096Y-121988152D01*
X108688096Y-121988152D02*
X108783334Y-122035771D01*
X108783334Y-122035771D02*
X108830953Y-122083390D01*
X108830953Y-122083390D02*
X108878572Y-122178628D01*
X108878572Y-122178628D02*
X108878572Y-122464342D01*
X108878572Y-122464342D02*
X108830953Y-122559580D01*
X108830953Y-122559580D02*
X108783334Y-122607200D01*
X108783334Y-122607200D02*
X108688096Y-122654819D01*
X108688096Y-122654819D02*
X108545239Y-122654819D01*
X109735715Y-122654819D02*
X109735715Y-121654819D01*
X109735715Y-122607200D02*
X109640477Y-122654819D01*
X109640477Y-122654819D02*
X109450001Y-122654819D01*
X109450001Y-122654819D02*
X109354763Y-122607200D01*
X109354763Y-122607200D02*
X109307144Y-122559580D01*
X109307144Y-122559580D02*
X109259525Y-122464342D01*
X109259525Y-122464342D02*
X109259525Y-122178628D01*
X109259525Y-122178628D02*
X109307144Y-122083390D01*
X109307144Y-122083390D02*
X109354763Y-122035771D01*
X109354763Y-122035771D02*
X109450001Y-121988152D01*
X109450001Y-121988152D02*
X109640477Y-121988152D01*
X109640477Y-121988152D02*
X109735715Y-122035771D01*
X110592858Y-122607200D02*
X110497620Y-122654819D01*
X110497620Y-122654819D02*
X110307144Y-122654819D01*
X110307144Y-122654819D02*
X110211906Y-122607200D01*
X110211906Y-122607200D02*
X110164287Y-122511961D01*
X110164287Y-122511961D02*
X110164287Y-122131009D01*
X110164287Y-122131009D02*
X110211906Y-122035771D01*
X110211906Y-122035771D02*
X110307144Y-121988152D01*
X110307144Y-121988152D02*
X110497620Y-121988152D01*
X110497620Y-121988152D02*
X110592858Y-122035771D01*
X110592858Y-122035771D02*
X110640477Y-122131009D01*
X110640477Y-122131009D02*
X110640477Y-122226247D01*
X110640477Y-122226247D02*
X110164287Y-122321485D01*
X111069049Y-122654819D02*
X111069049Y-121988152D01*
X111069049Y-122178628D02*
X111116668Y-122083390D01*
X111116668Y-122083390D02*
X111164287Y-122035771D01*
X111164287Y-122035771D02*
X111259525Y-121988152D01*
X111259525Y-121988152D02*
X111354763Y-121988152D01*
X112211906Y-122654819D02*
X111640478Y-122654819D01*
X111926192Y-122654819D02*
X111926192Y-121654819D01*
X111926192Y-121654819D02*
X111830954Y-121797676D01*
X111830954Y-121797676D02*
X111735716Y-121892914D01*
X111735716Y-121892914D02*
X111640478Y-121940533D01*
D11*
X93646419Y-97526309D02*
X93646419Y-98002499D01*
X93646419Y-98002499D02*
X92646419Y-98002499D01*
X93741657Y-97431071D02*
X93741657Y-96669166D01*
X93598800Y-96478689D02*
X93646419Y-96335832D01*
X93646419Y-96335832D02*
X93646419Y-96097737D01*
X93646419Y-96097737D02*
X93598800Y-96002499D01*
X93598800Y-96002499D02*
X93551180Y-95954880D01*
X93551180Y-95954880D02*
X93455942Y-95907261D01*
X93455942Y-95907261D02*
X93360704Y-95907261D01*
X93360704Y-95907261D02*
X93265466Y-95954880D01*
X93265466Y-95954880D02*
X93217847Y-96002499D01*
X93217847Y-96002499D02*
X93170228Y-96097737D01*
X93170228Y-96097737D02*
X93122609Y-96288213D01*
X93122609Y-96288213D02*
X93074990Y-96383451D01*
X93074990Y-96383451D02*
X93027371Y-96431070D01*
X93027371Y-96431070D02*
X92932133Y-96478689D01*
X92932133Y-96478689D02*
X92836895Y-96478689D01*
X92836895Y-96478689D02*
X92741657Y-96431070D01*
X92741657Y-96431070D02*
X92694038Y-96383451D01*
X92694038Y-96383451D02*
X92646419Y-96288213D01*
X92646419Y-96288213D02*
X92646419Y-96050118D01*
X92646419Y-96050118D02*
X92694038Y-95907261D01*
X93646419Y-95478689D02*
X92646419Y-95478689D01*
X92646419Y-95478689D02*
X92646419Y-95097737D01*
X92646419Y-95097737D02*
X92694038Y-95002499D01*
X92694038Y-95002499D02*
X92741657Y-94954880D01*
X92741657Y-94954880D02*
X92836895Y-94907261D01*
X92836895Y-94907261D02*
X92979752Y-94907261D01*
X92979752Y-94907261D02*
X93074990Y-94954880D01*
X93074990Y-94954880D02*
X93122609Y-95002499D01*
X93122609Y-95002499D02*
X93170228Y-95097737D01*
X93170228Y-95097737D02*
X93170228Y-95478689D01*
X93646419Y-94478689D02*
X92646419Y-94478689D01*
X93646419Y-93907261D02*
X93074990Y-94335832D01*
X92646419Y-93907261D02*
X93217847Y-94478689D01*
X93646419Y-92907261D02*
X93170228Y-93240594D01*
X93646419Y-93478689D02*
X92646419Y-93478689D01*
X92646419Y-93478689D02*
X92646419Y-93097737D01*
X92646419Y-93097737D02*
X92694038Y-93002499D01*
X92694038Y-93002499D02*
X92741657Y-92954880D01*
X92741657Y-92954880D02*
X92836895Y-92907261D01*
X92836895Y-92907261D02*
X92979752Y-92907261D01*
X92979752Y-92907261D02*
X93074990Y-92954880D01*
X93074990Y-92954880D02*
X93122609Y-93002499D01*
X93122609Y-93002499D02*
X93170228Y-93097737D01*
X93170228Y-93097737D02*
X93170228Y-93478689D01*
X93646419Y-91954880D02*
X93646419Y-92526308D01*
X93646419Y-92240594D02*
X92646419Y-92240594D01*
X92646419Y-92240594D02*
X92789276Y-92335832D01*
X92789276Y-92335832D02*
X92884514Y-92431070D01*
X92884514Y-92431070D02*
X92932133Y-92526308D01*
X102680466Y-92198615D02*
X102680466Y-91436711D01*
X103061419Y-91817663D02*
X102299514Y-91817663D01*
X113453800Y-93096234D02*
X113501419Y-92953377D01*
X113501419Y-92953377D02*
X113501419Y-92715282D01*
X113501419Y-92715282D02*
X113453800Y-92620044D01*
X113453800Y-92620044D02*
X113406180Y-92572425D01*
X113406180Y-92572425D02*
X113310942Y-92524806D01*
X113310942Y-92524806D02*
X113215704Y-92524806D01*
X113215704Y-92524806D02*
X113120466Y-92572425D01*
X113120466Y-92572425D02*
X113072847Y-92620044D01*
X113072847Y-92620044D02*
X113025228Y-92715282D01*
X113025228Y-92715282D02*
X112977609Y-92905758D01*
X112977609Y-92905758D02*
X112929990Y-93000996D01*
X112929990Y-93000996D02*
X112882371Y-93048615D01*
X112882371Y-93048615D02*
X112787133Y-93096234D01*
X112787133Y-93096234D02*
X112691895Y-93096234D01*
X112691895Y-93096234D02*
X112596657Y-93048615D01*
X112596657Y-93048615D02*
X112549038Y-93000996D01*
X112549038Y-93000996D02*
X112501419Y-92905758D01*
X112501419Y-92905758D02*
X112501419Y-92667663D01*
X112501419Y-92667663D02*
X112549038Y-92524806D01*
X113501419Y-92096234D02*
X112501419Y-92096234D01*
X112501419Y-92096234D02*
X112501419Y-91858139D01*
X112501419Y-91858139D02*
X112549038Y-91715282D01*
X112549038Y-91715282D02*
X112644276Y-91620044D01*
X112644276Y-91620044D02*
X112739514Y-91572425D01*
X112739514Y-91572425D02*
X112929990Y-91524806D01*
X112929990Y-91524806D02*
X113072847Y-91524806D01*
X113072847Y-91524806D02*
X113263323Y-91572425D01*
X113263323Y-91572425D02*
X113358561Y-91620044D01*
X113358561Y-91620044D02*
X113453800Y-91715282D01*
X113453800Y-91715282D02*
X113501419Y-91858139D01*
X113501419Y-91858139D02*
X113501419Y-92096234D01*
X115609038Y-95924806D02*
X115561419Y-96020044D01*
X115561419Y-96020044D02*
X115561419Y-96162901D01*
X115561419Y-96162901D02*
X115609038Y-96305758D01*
X115609038Y-96305758D02*
X115704276Y-96400996D01*
X115704276Y-96400996D02*
X115799514Y-96448615D01*
X115799514Y-96448615D02*
X115989990Y-96496234D01*
X115989990Y-96496234D02*
X116132847Y-96496234D01*
X116132847Y-96496234D02*
X116323323Y-96448615D01*
X116323323Y-96448615D02*
X116418561Y-96400996D01*
X116418561Y-96400996D02*
X116513800Y-96305758D01*
X116513800Y-96305758D02*
X116561419Y-96162901D01*
X116561419Y-96162901D02*
X116561419Y-96067663D01*
X116561419Y-96067663D02*
X116513800Y-95924806D01*
X116513800Y-95924806D02*
X116466180Y-95877187D01*
X116466180Y-95877187D02*
X116132847Y-95877187D01*
X116132847Y-95877187D02*
X116132847Y-96067663D01*
X116275704Y-95496234D02*
X116275704Y-95020044D01*
X116561419Y-95591472D02*
X115561419Y-95258139D01*
X115561419Y-95258139D02*
X116561419Y-94924806D01*
X116561419Y-94591472D02*
X115561419Y-94591472D01*
X116561419Y-94115282D02*
X115561419Y-94115282D01*
X115561419Y-94115282D02*
X116561419Y-93543854D01*
X116561419Y-93543854D02*
X115561419Y-93543854D01*
X115997609Y-101285282D02*
X116045228Y-101142425D01*
X116045228Y-101142425D02*
X116092847Y-101094806D01*
X116092847Y-101094806D02*
X116188085Y-101047187D01*
X116188085Y-101047187D02*
X116330942Y-101047187D01*
X116330942Y-101047187D02*
X116426180Y-101094806D01*
X116426180Y-101094806D02*
X116473800Y-101142425D01*
X116473800Y-101142425D02*
X116521419Y-101237663D01*
X116521419Y-101237663D02*
X116521419Y-101618615D01*
X116521419Y-101618615D02*
X115521419Y-101618615D01*
X115521419Y-101618615D02*
X115521419Y-101285282D01*
X115521419Y-101285282D02*
X115569038Y-101190044D01*
X115569038Y-101190044D02*
X115616657Y-101142425D01*
X115616657Y-101142425D02*
X115711895Y-101094806D01*
X115711895Y-101094806D02*
X115807133Y-101094806D01*
X115807133Y-101094806D02*
X115902371Y-101142425D01*
X115902371Y-101142425D02*
X115949990Y-101190044D01*
X115949990Y-101190044D02*
X115997609Y-101285282D01*
X115997609Y-101285282D02*
X115997609Y-101618615D01*
X116426180Y-100047187D02*
X116473800Y-100094806D01*
X116473800Y-100094806D02*
X116521419Y-100237663D01*
X116521419Y-100237663D02*
X116521419Y-100332901D01*
X116521419Y-100332901D02*
X116473800Y-100475758D01*
X116473800Y-100475758D02*
X116378561Y-100570996D01*
X116378561Y-100570996D02*
X116283323Y-100618615D01*
X116283323Y-100618615D02*
X116092847Y-100666234D01*
X116092847Y-100666234D02*
X115949990Y-100666234D01*
X115949990Y-100666234D02*
X115759514Y-100618615D01*
X115759514Y-100618615D02*
X115664276Y-100570996D01*
X115664276Y-100570996D02*
X115569038Y-100475758D01*
X115569038Y-100475758D02*
X115521419Y-100332901D01*
X115521419Y-100332901D02*
X115521419Y-100237663D01*
X115521419Y-100237663D02*
X115569038Y-100094806D01*
X115569038Y-100094806D02*
X115616657Y-100047187D01*
X116521419Y-99142425D02*
X116521419Y-99618615D01*
X116521419Y-99618615D02*
X115521419Y-99618615D01*
X116521419Y-98809091D02*
X115521419Y-98809091D01*
X116521419Y-98237663D02*
X115949990Y-98666234D01*
X115521419Y-98237663D02*
X116092847Y-98809091D01*
X102680466Y-98198615D02*
X102680466Y-97436711D01*
X113571419Y-103132425D02*
X113571419Y-103608615D01*
X113571419Y-103608615D02*
X112571419Y-103608615D01*
X113571419Y-102227663D02*
X113095228Y-102560996D01*
X113571419Y-102799091D02*
X112571419Y-102799091D01*
X112571419Y-102799091D02*
X112571419Y-102418139D01*
X112571419Y-102418139D02*
X112619038Y-102322901D01*
X112619038Y-102322901D02*
X112666657Y-102275282D01*
X112666657Y-102275282D02*
X112761895Y-102227663D01*
X112761895Y-102227663D02*
X112904752Y-102227663D01*
X112904752Y-102227663D02*
X112999990Y-102275282D01*
X112999990Y-102275282D02*
X113047609Y-102322901D01*
X113047609Y-102322901D02*
X113095228Y-102418139D01*
X113095228Y-102418139D02*
X113095228Y-102799091D01*
X113476180Y-101227663D02*
X113523800Y-101275282D01*
X113523800Y-101275282D02*
X113571419Y-101418139D01*
X113571419Y-101418139D02*
X113571419Y-101513377D01*
X113571419Y-101513377D02*
X113523800Y-101656234D01*
X113523800Y-101656234D02*
X113428561Y-101751472D01*
X113428561Y-101751472D02*
X113333323Y-101799091D01*
X113333323Y-101799091D02*
X113142847Y-101846710D01*
X113142847Y-101846710D02*
X112999990Y-101846710D01*
X112999990Y-101846710D02*
X112809514Y-101799091D01*
X112809514Y-101799091D02*
X112714276Y-101751472D01*
X112714276Y-101751472D02*
X112619038Y-101656234D01*
X112619038Y-101656234D02*
X112571419Y-101513377D01*
X112571419Y-101513377D02*
X112571419Y-101418139D01*
X112571419Y-101418139D02*
X112619038Y-101275282D01*
X112619038Y-101275282D02*
X112666657Y-101227663D01*
X113561419Y-98448615D02*
X112561419Y-98448615D01*
X112561419Y-98448615D02*
X112561419Y-98210520D01*
X112561419Y-98210520D02*
X112609038Y-98067663D01*
X112609038Y-98067663D02*
X112704276Y-97972425D01*
X112704276Y-97972425D02*
X112799514Y-97924806D01*
X112799514Y-97924806D02*
X112989990Y-97877187D01*
X112989990Y-97877187D02*
X113132847Y-97877187D01*
X113132847Y-97877187D02*
X113323323Y-97924806D01*
X113323323Y-97924806D02*
X113418561Y-97972425D01*
X113418561Y-97972425D02*
X113513800Y-98067663D01*
X113513800Y-98067663D02*
X113561419Y-98210520D01*
X113561419Y-98210520D02*
X113561419Y-98448615D01*
X113561419Y-97448615D02*
X112561419Y-97448615D01*
X113561419Y-96972425D02*
X112561419Y-96972425D01*
X112561419Y-96972425D02*
X113561419Y-96400997D01*
X113561419Y-96400997D02*
X112561419Y-96400997D01*
X115629038Y-90574806D02*
X115581419Y-90670044D01*
X115581419Y-90670044D02*
X115581419Y-90812901D01*
X115581419Y-90812901D02*
X115629038Y-90955758D01*
X115629038Y-90955758D02*
X115724276Y-91050996D01*
X115724276Y-91050996D02*
X115819514Y-91098615D01*
X115819514Y-91098615D02*
X116009990Y-91146234D01*
X116009990Y-91146234D02*
X116152847Y-91146234D01*
X116152847Y-91146234D02*
X116343323Y-91098615D01*
X116343323Y-91098615D02*
X116438561Y-91050996D01*
X116438561Y-91050996D02*
X116533800Y-90955758D01*
X116533800Y-90955758D02*
X116581419Y-90812901D01*
X116581419Y-90812901D02*
X116581419Y-90717663D01*
X116581419Y-90717663D02*
X116533800Y-90574806D01*
X116533800Y-90574806D02*
X116486180Y-90527187D01*
X116486180Y-90527187D02*
X116152847Y-90527187D01*
X116152847Y-90527187D02*
X116152847Y-90717663D01*
X116581419Y-90098615D02*
X115581419Y-90098615D01*
X115581419Y-90098615D02*
X116581419Y-89527187D01*
X116581419Y-89527187D02*
X115581419Y-89527187D01*
X116581419Y-89050996D02*
X115581419Y-89050996D01*
X115581419Y-89050996D02*
X115581419Y-88812901D01*
X115581419Y-88812901D02*
X115629038Y-88670044D01*
X115629038Y-88670044D02*
X115724276Y-88574806D01*
X115724276Y-88574806D02*
X115819514Y-88527187D01*
X115819514Y-88527187D02*
X116009990Y-88479568D01*
X116009990Y-88479568D02*
X116152847Y-88479568D01*
X116152847Y-88479568D02*
X116343323Y-88527187D01*
X116343323Y-88527187D02*
X116438561Y-88574806D01*
X116438561Y-88574806D02*
X116533800Y-88670044D01*
X116533800Y-88670044D02*
X116581419Y-88812901D01*
X116581419Y-88812901D02*
X116581419Y-89050996D01*
X112561419Y-88341472D02*
X113561419Y-88008139D01*
X113561419Y-88008139D02*
X112561419Y-87674806D01*
X113561419Y-87341472D02*
X112561419Y-87341472D01*
X113561419Y-86865282D02*
X112561419Y-86865282D01*
X112561419Y-86865282D02*
X113561419Y-86293854D01*
X113561419Y-86293854D02*
X112561419Y-86293854D01*
D10*
X113333333Y-116034819D02*
X113000000Y-115558628D01*
X112761905Y-116034819D02*
X112761905Y-115034819D01*
X112761905Y-115034819D02*
X113142857Y-115034819D01*
X113142857Y-115034819D02*
X113238095Y-115082438D01*
X113238095Y-115082438D02*
X113285714Y-115130057D01*
X113285714Y-115130057D02*
X113333333Y-115225295D01*
X113333333Y-115225295D02*
X113333333Y-115368152D01*
X113333333Y-115368152D02*
X113285714Y-115463390D01*
X113285714Y-115463390D02*
X113238095Y-115511009D01*
X113238095Y-115511009D02*
X113142857Y-115558628D01*
X113142857Y-115558628D02*
X112761905Y-115558628D01*
X113714286Y-115130057D02*
X113761905Y-115082438D01*
X113761905Y-115082438D02*
X113857143Y-115034819D01*
X113857143Y-115034819D02*
X114095238Y-115034819D01*
X114095238Y-115034819D02*
X114190476Y-115082438D01*
X114190476Y-115082438D02*
X114238095Y-115130057D01*
X114238095Y-115130057D02*
X114285714Y-115225295D01*
X114285714Y-115225295D02*
X114285714Y-115320533D01*
X114285714Y-115320533D02*
X114238095Y-115463390D01*
X114238095Y-115463390D02*
X113666667Y-116034819D01*
X113666667Y-116034819D02*
X114285714Y-116034819D01*
X82023333Y-117374819D02*
X81690000Y-116898628D01*
X81451905Y-117374819D02*
X81451905Y-116374819D01*
X81451905Y-116374819D02*
X81832857Y-116374819D01*
X81832857Y-116374819D02*
X81928095Y-116422438D01*
X81928095Y-116422438D02*
X81975714Y-116470057D01*
X81975714Y-116470057D02*
X82023333Y-116565295D01*
X82023333Y-116565295D02*
X82023333Y-116708152D01*
X82023333Y-116708152D02*
X81975714Y-116803390D01*
X81975714Y-116803390D02*
X81928095Y-116851009D01*
X81928095Y-116851009D02*
X81832857Y-116898628D01*
X81832857Y-116898628D02*
X81451905Y-116898628D01*
X82356667Y-116374819D02*
X82975714Y-116374819D01*
X82975714Y-116374819D02*
X82642381Y-116755771D01*
X82642381Y-116755771D02*
X82785238Y-116755771D01*
X82785238Y-116755771D02*
X82880476Y-116803390D01*
X82880476Y-116803390D02*
X82928095Y-116851009D01*
X82928095Y-116851009D02*
X82975714Y-116946247D01*
X82975714Y-116946247D02*
X82975714Y-117184342D01*
X82975714Y-117184342D02*
X82928095Y-117279580D01*
X82928095Y-117279580D02*
X82880476Y-117327200D01*
X82880476Y-117327200D02*
X82785238Y-117374819D01*
X82785238Y-117374819D02*
X82499524Y-117374819D01*
X82499524Y-117374819D02*
X82404286Y-117327200D01*
X82404286Y-117327200D02*
X82356667Y-117279580D01*
D11*
X73904919Y-97232857D02*
X73428728Y-97566190D01*
X73904919Y-97804285D02*
X72904919Y-97804285D01*
X72904919Y-97804285D02*
X72904919Y-97423333D01*
X72904919Y-97423333D02*
X72952538Y-97328095D01*
X72952538Y-97328095D02*
X73000157Y-97280476D01*
X73000157Y-97280476D02*
X73095395Y-97232857D01*
X73095395Y-97232857D02*
X73238252Y-97232857D01*
X73238252Y-97232857D02*
X73333490Y-97280476D01*
X73333490Y-97280476D02*
X73381109Y-97328095D01*
X73381109Y-97328095D02*
X73428728Y-97423333D01*
X73428728Y-97423333D02*
X73428728Y-97804285D01*
X73857300Y-96851904D02*
X73904919Y-96709047D01*
X73904919Y-96709047D02*
X73904919Y-96470952D01*
X73904919Y-96470952D02*
X73857300Y-96375714D01*
X73857300Y-96375714D02*
X73809680Y-96328095D01*
X73809680Y-96328095D02*
X73714442Y-96280476D01*
X73714442Y-96280476D02*
X73619204Y-96280476D01*
X73619204Y-96280476D02*
X73523966Y-96328095D01*
X73523966Y-96328095D02*
X73476347Y-96375714D01*
X73476347Y-96375714D02*
X73428728Y-96470952D01*
X73428728Y-96470952D02*
X73381109Y-96661428D01*
X73381109Y-96661428D02*
X73333490Y-96756666D01*
X73333490Y-96756666D02*
X73285871Y-96804285D01*
X73285871Y-96804285D02*
X73190633Y-96851904D01*
X73190633Y-96851904D02*
X73095395Y-96851904D01*
X73095395Y-96851904D02*
X73000157Y-96804285D01*
X73000157Y-96804285D02*
X72952538Y-96756666D01*
X72952538Y-96756666D02*
X72904919Y-96661428D01*
X72904919Y-96661428D02*
X72904919Y-96423333D01*
X72904919Y-96423333D02*
X72952538Y-96280476D01*
X73904919Y-95851904D02*
X72904919Y-95851904D01*
X72904919Y-95851904D02*
X72904919Y-95470952D01*
X72904919Y-95470952D02*
X72952538Y-95375714D01*
X72952538Y-95375714D02*
X73000157Y-95328095D01*
X73000157Y-95328095D02*
X73095395Y-95280476D01*
X73095395Y-95280476D02*
X73238252Y-95280476D01*
X73238252Y-95280476D02*
X73333490Y-95328095D01*
X73333490Y-95328095D02*
X73381109Y-95375714D01*
X73381109Y-95375714D02*
X73428728Y-95470952D01*
X73428728Y-95470952D02*
X73428728Y-95851904D01*
X73904919Y-94851904D02*
X72904919Y-94851904D01*
X73904919Y-94280476D02*
X73333490Y-94709047D01*
X72904919Y-94280476D02*
X73476347Y-94851904D01*
X73904919Y-93280476D02*
X73428728Y-93613809D01*
X73904919Y-93851904D02*
X72904919Y-93851904D01*
X72904919Y-93851904D02*
X72904919Y-93470952D01*
X72904919Y-93470952D02*
X72952538Y-93375714D01*
X72952538Y-93375714D02*
X73000157Y-93328095D01*
X73000157Y-93328095D02*
X73095395Y-93280476D01*
X73095395Y-93280476D02*
X73238252Y-93280476D01*
X73238252Y-93280476D02*
X73333490Y-93328095D01*
X73333490Y-93328095D02*
X73381109Y-93375714D01*
X73381109Y-93375714D02*
X73428728Y-93470952D01*
X73428728Y-93470952D02*
X73428728Y-93851904D01*
X73904919Y-92328095D02*
X73904919Y-92899523D01*
X73904919Y-92613809D02*
X72904919Y-92613809D01*
X72904919Y-92613809D02*
X73047776Y-92709047D01*
X73047776Y-92709047D02*
X73143014Y-92804285D01*
X73143014Y-92804285D02*
X73190633Y-92899523D01*
X93829919Y-103219925D02*
X93829919Y-103696115D01*
X93829919Y-103696115D02*
X92829919Y-103696115D01*
X93829919Y-102315163D02*
X93353728Y-102648496D01*
X93829919Y-102886591D02*
X92829919Y-102886591D01*
X92829919Y-102886591D02*
X92829919Y-102505639D01*
X92829919Y-102505639D02*
X92877538Y-102410401D01*
X92877538Y-102410401D02*
X92925157Y-102362782D01*
X92925157Y-102362782D02*
X93020395Y-102315163D01*
X93020395Y-102315163D02*
X93163252Y-102315163D01*
X93163252Y-102315163D02*
X93258490Y-102362782D01*
X93258490Y-102362782D02*
X93306109Y-102410401D01*
X93306109Y-102410401D02*
X93353728Y-102505639D01*
X93353728Y-102505639D02*
X93353728Y-102886591D01*
X93734680Y-101315163D02*
X93782300Y-101362782D01*
X93782300Y-101362782D02*
X93829919Y-101505639D01*
X93829919Y-101505639D02*
X93829919Y-101600877D01*
X93829919Y-101600877D02*
X93782300Y-101743734D01*
X93782300Y-101743734D02*
X93687061Y-101838972D01*
X93687061Y-101838972D02*
X93591823Y-101886591D01*
X93591823Y-101886591D02*
X93401347Y-101934210D01*
X93401347Y-101934210D02*
X93258490Y-101934210D01*
X93258490Y-101934210D02*
X93068014Y-101886591D01*
X93068014Y-101886591D02*
X92972776Y-101838972D01*
X92972776Y-101838972D02*
X92877538Y-101743734D01*
X92877538Y-101743734D02*
X92829919Y-101600877D01*
X92829919Y-101600877D02*
X92829919Y-101505639D01*
X92829919Y-101505639D02*
X92877538Y-101362782D01*
X92877538Y-101362782D02*
X92925157Y-101315163D01*
X92819919Y-88428972D02*
X93819919Y-88095639D01*
X93819919Y-88095639D02*
X92819919Y-87762306D01*
X93819919Y-87428972D02*
X92819919Y-87428972D01*
X93819919Y-86952782D02*
X92819919Y-86952782D01*
X92819919Y-86952782D02*
X93819919Y-86381354D01*
X93819919Y-86381354D02*
X92819919Y-86381354D01*
X82938966Y-98286115D02*
X82938966Y-97524211D01*
X82938966Y-92286115D02*
X82938966Y-91524211D01*
X83319919Y-91905163D02*
X82558014Y-91905163D01*
X93819919Y-98536115D02*
X92819919Y-98536115D01*
X92819919Y-98536115D02*
X92819919Y-98298020D01*
X92819919Y-98298020D02*
X92867538Y-98155163D01*
X92867538Y-98155163D02*
X92962776Y-98059925D01*
X92962776Y-98059925D02*
X93058014Y-98012306D01*
X93058014Y-98012306D02*
X93248490Y-97964687D01*
X93248490Y-97964687D02*
X93391347Y-97964687D01*
X93391347Y-97964687D02*
X93581823Y-98012306D01*
X93581823Y-98012306D02*
X93677061Y-98059925D01*
X93677061Y-98059925D02*
X93772300Y-98155163D01*
X93772300Y-98155163D02*
X93819919Y-98298020D01*
X93819919Y-98298020D02*
X93819919Y-98536115D01*
X93819919Y-97536115D02*
X92819919Y-97536115D01*
X93819919Y-97059925D02*
X92819919Y-97059925D01*
X92819919Y-97059925D02*
X93819919Y-96488497D01*
X93819919Y-96488497D02*
X92819919Y-96488497D01*
X95887538Y-90662306D02*
X95839919Y-90757544D01*
X95839919Y-90757544D02*
X95839919Y-90900401D01*
X95839919Y-90900401D02*
X95887538Y-91043258D01*
X95887538Y-91043258D02*
X95982776Y-91138496D01*
X95982776Y-91138496D02*
X96078014Y-91186115D01*
X96078014Y-91186115D02*
X96268490Y-91233734D01*
X96268490Y-91233734D02*
X96411347Y-91233734D01*
X96411347Y-91233734D02*
X96601823Y-91186115D01*
X96601823Y-91186115D02*
X96697061Y-91138496D01*
X96697061Y-91138496D02*
X96792300Y-91043258D01*
X96792300Y-91043258D02*
X96839919Y-90900401D01*
X96839919Y-90900401D02*
X96839919Y-90805163D01*
X96839919Y-90805163D02*
X96792300Y-90662306D01*
X96792300Y-90662306D02*
X96744680Y-90614687D01*
X96744680Y-90614687D02*
X96411347Y-90614687D01*
X96411347Y-90614687D02*
X96411347Y-90805163D01*
X96839919Y-90186115D02*
X95839919Y-90186115D01*
X95839919Y-90186115D02*
X96839919Y-89614687D01*
X96839919Y-89614687D02*
X95839919Y-89614687D01*
X96839919Y-89138496D02*
X95839919Y-89138496D01*
X95839919Y-89138496D02*
X95839919Y-88900401D01*
X95839919Y-88900401D02*
X95887538Y-88757544D01*
X95887538Y-88757544D02*
X95982776Y-88662306D01*
X95982776Y-88662306D02*
X96078014Y-88614687D01*
X96078014Y-88614687D02*
X96268490Y-88567068D01*
X96268490Y-88567068D02*
X96411347Y-88567068D01*
X96411347Y-88567068D02*
X96601823Y-88614687D01*
X96601823Y-88614687D02*
X96697061Y-88662306D01*
X96697061Y-88662306D02*
X96792300Y-88757544D01*
X96792300Y-88757544D02*
X96839919Y-88900401D01*
X96839919Y-88900401D02*
X96839919Y-89138496D01*
X96256109Y-101372782D02*
X96303728Y-101229925D01*
X96303728Y-101229925D02*
X96351347Y-101182306D01*
X96351347Y-101182306D02*
X96446585Y-101134687D01*
X96446585Y-101134687D02*
X96589442Y-101134687D01*
X96589442Y-101134687D02*
X96684680Y-101182306D01*
X96684680Y-101182306D02*
X96732300Y-101229925D01*
X96732300Y-101229925D02*
X96779919Y-101325163D01*
X96779919Y-101325163D02*
X96779919Y-101706115D01*
X96779919Y-101706115D02*
X95779919Y-101706115D01*
X95779919Y-101706115D02*
X95779919Y-101372782D01*
X95779919Y-101372782D02*
X95827538Y-101277544D01*
X95827538Y-101277544D02*
X95875157Y-101229925D01*
X95875157Y-101229925D02*
X95970395Y-101182306D01*
X95970395Y-101182306D02*
X96065633Y-101182306D01*
X96065633Y-101182306D02*
X96160871Y-101229925D01*
X96160871Y-101229925D02*
X96208490Y-101277544D01*
X96208490Y-101277544D02*
X96256109Y-101372782D01*
X96256109Y-101372782D02*
X96256109Y-101706115D01*
X96684680Y-100134687D02*
X96732300Y-100182306D01*
X96732300Y-100182306D02*
X96779919Y-100325163D01*
X96779919Y-100325163D02*
X96779919Y-100420401D01*
X96779919Y-100420401D02*
X96732300Y-100563258D01*
X96732300Y-100563258D02*
X96637061Y-100658496D01*
X96637061Y-100658496D02*
X96541823Y-100706115D01*
X96541823Y-100706115D02*
X96351347Y-100753734D01*
X96351347Y-100753734D02*
X96208490Y-100753734D01*
X96208490Y-100753734D02*
X96018014Y-100706115D01*
X96018014Y-100706115D02*
X95922776Y-100658496D01*
X95922776Y-100658496D02*
X95827538Y-100563258D01*
X95827538Y-100563258D02*
X95779919Y-100420401D01*
X95779919Y-100420401D02*
X95779919Y-100325163D01*
X95779919Y-100325163D02*
X95827538Y-100182306D01*
X95827538Y-100182306D02*
X95875157Y-100134687D01*
X96779919Y-99229925D02*
X96779919Y-99706115D01*
X96779919Y-99706115D02*
X95779919Y-99706115D01*
X96779919Y-98896591D02*
X95779919Y-98896591D01*
X96779919Y-98325163D02*
X96208490Y-98753734D01*
X95779919Y-98325163D02*
X96351347Y-98896591D01*
X95867538Y-96012306D02*
X95819919Y-96107544D01*
X95819919Y-96107544D02*
X95819919Y-96250401D01*
X95819919Y-96250401D02*
X95867538Y-96393258D01*
X95867538Y-96393258D02*
X95962776Y-96488496D01*
X95962776Y-96488496D02*
X96058014Y-96536115D01*
X96058014Y-96536115D02*
X96248490Y-96583734D01*
X96248490Y-96583734D02*
X96391347Y-96583734D01*
X96391347Y-96583734D02*
X96581823Y-96536115D01*
X96581823Y-96536115D02*
X96677061Y-96488496D01*
X96677061Y-96488496D02*
X96772300Y-96393258D01*
X96772300Y-96393258D02*
X96819919Y-96250401D01*
X96819919Y-96250401D02*
X96819919Y-96155163D01*
X96819919Y-96155163D02*
X96772300Y-96012306D01*
X96772300Y-96012306D02*
X96724680Y-95964687D01*
X96724680Y-95964687D02*
X96391347Y-95964687D01*
X96391347Y-95964687D02*
X96391347Y-96155163D01*
X96534204Y-95583734D02*
X96534204Y-95107544D01*
X96819919Y-95678972D02*
X95819919Y-95345639D01*
X95819919Y-95345639D02*
X96819919Y-95012306D01*
X96819919Y-94678972D02*
X95819919Y-94678972D01*
X96819919Y-94202782D02*
X95819919Y-94202782D01*
X95819919Y-94202782D02*
X96819919Y-93631354D01*
X96819919Y-93631354D02*
X95819919Y-93631354D01*
X93712300Y-93183734D02*
X93759919Y-93040877D01*
X93759919Y-93040877D02*
X93759919Y-92802782D01*
X93759919Y-92802782D02*
X93712300Y-92707544D01*
X93712300Y-92707544D02*
X93664680Y-92659925D01*
X93664680Y-92659925D02*
X93569442Y-92612306D01*
X93569442Y-92612306D02*
X93474204Y-92612306D01*
X93474204Y-92612306D02*
X93378966Y-92659925D01*
X93378966Y-92659925D02*
X93331347Y-92707544D01*
X93331347Y-92707544D02*
X93283728Y-92802782D01*
X93283728Y-92802782D02*
X93236109Y-92993258D01*
X93236109Y-92993258D02*
X93188490Y-93088496D01*
X93188490Y-93088496D02*
X93140871Y-93136115D01*
X93140871Y-93136115D02*
X93045633Y-93183734D01*
X93045633Y-93183734D02*
X92950395Y-93183734D01*
X92950395Y-93183734D02*
X92855157Y-93136115D01*
X92855157Y-93136115D02*
X92807538Y-93088496D01*
X92807538Y-93088496D02*
X92759919Y-92993258D01*
X92759919Y-92993258D02*
X92759919Y-92755163D01*
X92759919Y-92755163D02*
X92807538Y-92612306D01*
X93759919Y-92183734D02*
X92759919Y-92183734D01*
X92759919Y-92183734D02*
X92759919Y-91945639D01*
X92759919Y-91945639D02*
X92807538Y-91802782D01*
X92807538Y-91802782D02*
X92902776Y-91707544D01*
X92902776Y-91707544D02*
X92998014Y-91659925D01*
X92998014Y-91659925D02*
X93188490Y-91612306D01*
X93188490Y-91612306D02*
X93331347Y-91612306D01*
X93331347Y-91612306D02*
X93521823Y-91659925D01*
X93521823Y-91659925D02*
X93617061Y-91707544D01*
X93617061Y-91707544D02*
X93712300Y-91802782D01*
X93712300Y-91802782D02*
X93759919Y-91945639D01*
X93759919Y-91945639D02*
X93759919Y-92183734D01*
D10*
X82143333Y-121374819D02*
X81810000Y-120898628D01*
X81571905Y-121374819D02*
X81571905Y-120374819D01*
X81571905Y-120374819D02*
X81952857Y-120374819D01*
X81952857Y-120374819D02*
X82048095Y-120422438D01*
X82048095Y-120422438D02*
X82095714Y-120470057D01*
X82095714Y-120470057D02*
X82143333Y-120565295D01*
X82143333Y-120565295D02*
X82143333Y-120708152D01*
X82143333Y-120708152D02*
X82095714Y-120803390D01*
X82095714Y-120803390D02*
X82048095Y-120851009D01*
X82048095Y-120851009D02*
X81952857Y-120898628D01*
X81952857Y-120898628D02*
X81571905Y-120898628D01*
X83000476Y-120374819D02*
X82810000Y-120374819D01*
X82810000Y-120374819D02*
X82714762Y-120422438D01*
X82714762Y-120422438D02*
X82667143Y-120470057D01*
X82667143Y-120470057D02*
X82571905Y-120612914D01*
X82571905Y-120612914D02*
X82524286Y-120803390D01*
X82524286Y-120803390D02*
X82524286Y-121184342D01*
X82524286Y-121184342D02*
X82571905Y-121279580D01*
X82571905Y-121279580D02*
X82619524Y-121327200D01*
X82619524Y-121327200D02*
X82714762Y-121374819D01*
X82714762Y-121374819D02*
X82905238Y-121374819D01*
X82905238Y-121374819D02*
X83000476Y-121327200D01*
X83000476Y-121327200D02*
X83048095Y-121279580D01*
X83048095Y-121279580D02*
X83095714Y-121184342D01*
X83095714Y-121184342D02*
X83095714Y-120946247D01*
X83095714Y-120946247D02*
X83048095Y-120851009D01*
X83048095Y-120851009D02*
X83000476Y-120803390D01*
X83000476Y-120803390D02*
X82905238Y-120755771D01*
X82905238Y-120755771D02*
X82714762Y-120755771D01*
X82714762Y-120755771D02*
X82619524Y-120803390D01*
X82619524Y-120803390D02*
X82571905Y-120851009D01*
X82571905Y-120851009D02*
X82524286Y-120946247D01*
X123424819Y-92238094D02*
X122424819Y-92238094D01*
X122424819Y-92238094D02*
X122424819Y-91999999D01*
X122424819Y-91999999D02*
X122472438Y-91857142D01*
X122472438Y-91857142D02*
X122567676Y-91761904D01*
X122567676Y-91761904D02*
X122662914Y-91714285D01*
X122662914Y-91714285D02*
X122853390Y-91666666D01*
X122853390Y-91666666D02*
X122996247Y-91666666D01*
X122996247Y-91666666D02*
X123186723Y-91714285D01*
X123186723Y-91714285D02*
X123281961Y-91761904D01*
X123281961Y-91761904D02*
X123377200Y-91857142D01*
X123377200Y-91857142D02*
X123424819Y-91999999D01*
X123424819Y-91999999D02*
X123424819Y-92238094D01*
X123424819Y-90714285D02*
X123424819Y-91285713D01*
X123424819Y-90999999D02*
X122424819Y-90999999D01*
X122424819Y-90999999D02*
X122567676Y-91095237D01*
X122567676Y-91095237D02*
X122662914Y-91190475D01*
X122662914Y-91190475D02*
X122710533Y-91285713D01*
X122854819Y-87951904D02*
X121854819Y-87951904D01*
X122854819Y-87380476D02*
X122283390Y-87809047D01*
X121854819Y-87380476D02*
X122426247Y-87951904D01*
X135514819Y-92309523D02*
X134514819Y-92309523D01*
X134514819Y-92309523D02*
X135229104Y-91976190D01*
X135229104Y-91976190D02*
X134514819Y-91642857D01*
X134514819Y-91642857D02*
X135514819Y-91642857D01*
X135514819Y-90642857D02*
X135514819Y-91214285D01*
X135514819Y-90928571D02*
X134514819Y-90928571D01*
X134514819Y-90928571D02*
X134657676Y-91023809D01*
X134657676Y-91023809D02*
X134752914Y-91119047D01*
X134752914Y-91119047D02*
X134800533Y-91214285D01*
X113523333Y-120034819D02*
X113190000Y-119558628D01*
X112951905Y-120034819D02*
X112951905Y-119034819D01*
X112951905Y-119034819D02*
X113332857Y-119034819D01*
X113332857Y-119034819D02*
X113428095Y-119082438D01*
X113428095Y-119082438D02*
X113475714Y-119130057D01*
X113475714Y-119130057D02*
X113523333Y-119225295D01*
X113523333Y-119225295D02*
X113523333Y-119368152D01*
X113523333Y-119368152D02*
X113475714Y-119463390D01*
X113475714Y-119463390D02*
X113428095Y-119511009D01*
X113428095Y-119511009D02*
X113332857Y-119558628D01*
X113332857Y-119558628D02*
X112951905Y-119558628D01*
X114428095Y-119034819D02*
X113951905Y-119034819D01*
X113951905Y-119034819D02*
X113904286Y-119511009D01*
X113904286Y-119511009D02*
X113951905Y-119463390D01*
X113951905Y-119463390D02*
X114047143Y-119415771D01*
X114047143Y-119415771D02*
X114285238Y-119415771D01*
X114285238Y-119415771D02*
X114380476Y-119463390D01*
X114380476Y-119463390D02*
X114428095Y-119511009D01*
X114428095Y-119511009D02*
X114475714Y-119606247D01*
X114475714Y-119606247D02*
X114475714Y-119844342D01*
X114475714Y-119844342D02*
X114428095Y-119939580D01*
X114428095Y-119939580D02*
X114380476Y-119987200D01*
X114380476Y-119987200D02*
X114285238Y-120034819D01*
X114285238Y-120034819D02*
X114047143Y-120034819D01*
X114047143Y-120034819D02*
X113951905Y-119987200D01*
X113951905Y-119987200D02*
X113904286Y-119939580D01*
%TO.C,SW1*%
X62000000Y-100000000D02*
X62000000Y-99000000D01*
X62000000Y-113000000D02*
X62000000Y-112000000D01*
X62000000Y-113000000D02*
X63000000Y-113000000D01*
X63000000Y-99000000D02*
X62000000Y-99000000D01*
X75000000Y-113000000D02*
X76000000Y-113000000D01*
X76000000Y-99000000D02*
X75000000Y-99000000D01*
X76000000Y-99000000D02*
X76000000Y-100000000D01*
X76000000Y-112000000D02*
X76000000Y-113000000D01*
X76000000Y-113000000D02*
X75000000Y-113000000D01*
D12*
%TO.C,J1*%
X61200000Y-88500000D02*
X63000000Y-88500000D01*
X61200000Y-93500000D02*
X64200000Y-93500000D01*
X61200000Y-94500000D02*
X61200000Y-88500000D01*
X63000000Y-87000000D02*
X64200000Y-87000000D01*
X63000000Y-88500000D02*
X63000000Y-87000000D01*
X63000000Y-94500000D02*
X61200000Y-94500000D01*
X63000000Y-96000000D02*
X63000000Y-94500000D01*
X64200000Y-85500000D02*
X75200000Y-85500000D01*
X64200000Y-87000000D02*
X64200000Y-85500000D01*
X64200000Y-89500000D02*
X61200000Y-89500000D01*
X64200000Y-93500000D02*
X64200000Y-89500000D01*
X64200000Y-96000000D02*
X63000000Y-96000000D01*
X64200000Y-97500000D02*
X64200000Y-96000000D01*
X75200000Y-85500000D02*
X75200000Y-97500000D01*
X75200000Y-97500000D02*
X64200000Y-97500000D01*
%TO.C,R4*%
X110630000Y-109000000D02*
X111580000Y-109000000D01*
X111580000Y-108080000D02*
X111580000Y-109920000D01*
X111580000Y-109920000D02*
X115420000Y-109920000D01*
X115420000Y-108080000D02*
X111580000Y-108080000D01*
X115420000Y-109920000D02*
X115420000Y-108080000D01*
X116370000Y-109000000D02*
X115420000Y-109000000D01*
%TO.C,R1*%
X110630000Y-113000000D02*
X111580000Y-113000000D01*
X111580000Y-112080000D02*
X111580000Y-113920000D01*
X111580000Y-113920000D02*
X115420000Y-113920000D01*
X115420000Y-112080000D02*
X111580000Y-112080000D01*
X115420000Y-113920000D02*
X115420000Y-112080000D01*
X116370000Y-113000000D02*
X115420000Y-113000000D01*
D10*
%TO.C,SW2*%
X62000000Y-118000000D02*
X62000000Y-117000000D01*
X62000000Y-131000000D02*
X62000000Y-130000000D01*
X62000000Y-131000000D02*
X63000000Y-131000000D01*
X63000000Y-117000000D02*
X62000000Y-117000000D01*
X75000000Y-131000000D02*
X76000000Y-131000000D01*
X76000000Y-117000000D02*
X75000000Y-117000000D01*
X76000000Y-117000000D02*
X76000000Y-118000000D01*
X76000000Y-130000000D02*
X76000000Y-131000000D01*
X76000000Y-131000000D02*
X75000000Y-131000000D01*
D12*
%TO.C,Primary Rotary Encoder1*%
X92150000Y-109100000D02*
X96250000Y-109100000D01*
X92150000Y-111500000D02*
X92150000Y-109100000D01*
X92150000Y-116300000D02*
X92150000Y-113700000D01*
X92150000Y-120900000D02*
X92150000Y-118500000D01*
X96250000Y-120900000D02*
X92150000Y-120900000D01*
X98250000Y-115500000D02*
X98250000Y-114500000D01*
X98750000Y-115000000D02*
X97750000Y-115000000D01*
X100250000Y-109100000D02*
X104350000Y-109100000D01*
X100250000Y-120900000D02*
X104350000Y-120900000D01*
X104350000Y-120900000D02*
X104350000Y-109100000D01*
X105450000Y-119100000D02*
X105750000Y-118800000D01*
X105750000Y-118800000D02*
X106050000Y-119100000D01*
X106050000Y-119100000D02*
X105450000Y-119100000D01*
X101250000Y-115000000D02*
G75*
G02*
X95250000Y-115000000I-3000000J0D01*
G01*
X95250000Y-115000000D02*
G75*
G02*
X101250000Y-115000000I3000000J0D01*
G01*
D11*
%TO.C,L_SPKR1*%
X97954000Y-101262500D02*
X97954000Y-88562500D01*
X100464000Y-86042500D02*
X114434000Y-86042500D01*
X114479000Y-103792500D02*
X100509000Y-103792500D01*
X116994000Y-88562500D02*
X116994000Y-101262500D01*
X97953918Y-88562500D02*
G75*
G02*
X100464000Y-86042501I2536132J-16050D01*
G01*
X100508999Y-103792475D02*
G75*
G02*
X97954001Y-101262500I-14999J2539974D01*
G01*
X114434000Y-86042501D02*
G75*
G02*
X116993999Y-88562502I20000J-2539999D01*
G01*
X116994000Y-101262500D02*
G75*
G02*
X114479120Y-103802316I-2546049J6049D01*
G01*
D12*
%TO.C,R2*%
X110630000Y-117500000D02*
X111580000Y-117500000D01*
X111580000Y-116580000D02*
X111580000Y-118420000D01*
X111580000Y-118420000D02*
X115420000Y-118420000D01*
X115420000Y-116580000D02*
X111580000Y-116580000D01*
X115420000Y-118420000D02*
X115420000Y-116580000D01*
X116370000Y-117500000D02*
X115420000Y-117500000D01*
D10*
%TO.C,SW5*%
X122000000Y-118000000D02*
X122000000Y-117000000D01*
X122000000Y-131000000D02*
X122000000Y-130000000D01*
X122000000Y-131000000D02*
X123000000Y-131000000D01*
X123000000Y-117000000D02*
X122000000Y-117000000D01*
X135000000Y-131000000D02*
X136000000Y-131000000D01*
X136000000Y-117000000D02*
X135000000Y-117000000D01*
X136000000Y-117000000D02*
X136000000Y-118000000D01*
X136000000Y-130000000D02*
X136000000Y-131000000D01*
X136000000Y-131000000D02*
X135000000Y-131000000D01*
D12*
%TO.C,R3*%
X79320000Y-115000000D02*
X80270000Y-115000000D01*
X80270000Y-114080000D02*
X80270000Y-115920000D01*
X80270000Y-115920000D02*
X84110000Y-115920000D01*
X84110000Y-114080000D02*
X80270000Y-114080000D01*
X84110000Y-115920000D02*
X84110000Y-114080000D01*
X85060000Y-115000000D02*
X84110000Y-115000000D01*
D11*
%TO.C,RSPKR1*%
X78212500Y-101350000D02*
X78212500Y-88650000D01*
X80722500Y-86130000D02*
X94692500Y-86130000D01*
X94737500Y-103880000D02*
X80767500Y-103880000D01*
X97252500Y-88650000D02*
X97252500Y-101350000D01*
X78212418Y-88650000D02*
G75*
G02*
X80722500Y-86130001I2536132J-16050D01*
G01*
X80767499Y-103879975D02*
G75*
G02*
X78212501Y-101350000I-14999J2539974D01*
G01*
X94692500Y-86130001D02*
G75*
G02*
X97252499Y-88650002I20000J-2539999D01*
G01*
X97252500Y-101350000D02*
G75*
G02*
X94737620Y-103889816I-2546049J6049D01*
G01*
D10*
%TO.C,SW3*%
X122000000Y-100000000D02*
X122000000Y-99000000D01*
X122000000Y-113000000D02*
X122000000Y-112000000D01*
X122000000Y-113000000D02*
X123000000Y-113000000D01*
X123000000Y-99000000D02*
X122000000Y-99000000D01*
X135000000Y-113000000D02*
X136000000Y-113000000D01*
X136000000Y-99000000D02*
X135000000Y-99000000D01*
X136000000Y-99000000D02*
X136000000Y-100000000D01*
X136000000Y-112000000D02*
X136000000Y-113000000D01*
X136000000Y-113000000D02*
X135000000Y-113000000D01*
D12*
%TO.C,R6*%
X79440000Y-119000000D02*
X80390000Y-119000000D01*
X80390000Y-118080000D02*
X80390000Y-119920000D01*
X80390000Y-119920000D02*
X84230000Y-119920000D01*
X84230000Y-118080000D02*
X80390000Y-118080000D01*
X84230000Y-119920000D02*
X84230000Y-118080000D01*
X85180000Y-119000000D02*
X84230000Y-119000000D01*
%TO.C,D1*%
X119030000Y-88780000D02*
X119030000Y-94220000D01*
X119030000Y-94220000D02*
X119360000Y-94220000D01*
X119360000Y-88780000D02*
X119030000Y-88780000D01*
X121640000Y-88780000D02*
X121970000Y-88780000D01*
X121970000Y-88780000D02*
X121970000Y-94220000D01*
X121970000Y-89560000D02*
X119030000Y-89560000D01*
X121970000Y-89680000D02*
X119030000Y-89680000D01*
X121970000Y-89800000D02*
X119030000Y-89800000D01*
X121970000Y-94220000D02*
X121640000Y-94220000D01*
%TO.C,M1*%
X124700000Y-86200000D02*
X124700000Y-87700000D01*
X124940000Y-86440000D02*
X124940000Y-96560000D01*
X126440000Y-86200000D02*
X124700000Y-86200000D01*
X126500000Y-86440000D02*
X126500000Y-96560000D01*
X127784000Y-92990000D02*
X127726000Y-92931000D01*
X128024000Y-92820000D02*
X127931000Y-92726000D01*
X130069000Y-95275000D02*
X129976000Y-95181000D01*
X130275000Y-95070000D02*
X130216000Y-95011000D01*
X134060000Y-86440000D02*
X124940000Y-86440000D01*
X134060000Y-86440000D02*
X134060000Y-96560000D01*
X134060000Y-96560000D02*
X124940000Y-96560000D01*
X127319550Y-89029383D02*
G75*
G02*
X127516000Y-88211000I1680445J29385D01*
G01*
X127516648Y-89788712D02*
G75*
G02*
X127320000Y-89000000I1483352J788712D01*
G01*
X128210911Y-87516047D02*
G75*
G02*
X129789000Y-87516000I789089J-1483948D01*
G01*
X129789089Y-90483953D02*
G75*
G02*
X128211000Y-90484000I-789089J1483953D01*
G01*
X130483953Y-88210911D02*
G75*
G02*
X130484000Y-89789000I-1483948J-789089D01*
G01*
X130680000Y-94000000D02*
G75*
G02*
X127320000Y-94000000I-1680000J0D01*
G01*
X127320000Y-94000000D02*
G75*
G02*
X130680000Y-94000000I1680000J0D01*
G01*
X132900000Y-89000000D02*
G75*
G02*
X131100000Y-89000000I-900000J0D01*
G01*
X131100000Y-89000000D02*
G75*
G02*
X132900000Y-89000000I900000J0D01*
G01*
X132900000Y-94000000D02*
G75*
G02*
X131100000Y-94000000I-900000J0D01*
G01*
X131100000Y-94000000D02*
G75*
G02*
X132900000Y-94000000I900000J0D01*
G01*
%TO.C,R5*%
X110820000Y-121500000D02*
X111770000Y-121500000D01*
X111770000Y-120580000D02*
X111770000Y-122420000D01*
X111770000Y-122420000D02*
X115610000Y-122420000D01*
X115610000Y-120580000D02*
X111770000Y-120580000D01*
X115610000Y-122420000D02*
X115610000Y-120580000D01*
X116560000Y-121500000D02*
X115610000Y-121500000D01*
%TD*%
M02*
