M48
; DRILL file {KiCad 8.0.6} date 2025-02-20T10:46:32-0700
; FORMAT={-:-/ absolute / inch / decimal}
; #@! TF.CreationDate,2025-02-20T10:46:32-07:00
; #@! TF.GenerationSoftware,Kicad,Pcbnew,8.0.6
; #@! TF.FileFunction,Plated,1,2,PTH
FMAT,2
INCH
; #@! TA.AperFunction,Plated,PTH,ViaDrill
T1C0.0118
; #@! TA.AperFunction,Plated,PTH,ComponentDrill
T2C0.0157
; #@! TA.AperFunction,Plated,PTH,ViaDrill
T3C0.0197
; #@! TA.AperFunction,Plated,PTH,ComponentDrill
T4C0.0276
; #@! TA.AperFunction,Plated,PTH,ComponentDrill
T5C0.0295
; #@! TA.AperFunction,Plated,PTH,ComponentDrill
T6C0.0300
; #@! TA.AperFunction,Plated,PTH,ComponentDrill
T7C0.0315
; #@! TA.AperFunction,Plated,PTH,ComponentDrill
T8C0.0354
; #@! TA.AperFunction,Plated,PTH,ComponentDrill
T9C0.0394
; #@! TA.AperFunction,Plated,PTH,ComponentDrill
T10C0.0433
; #@! TA.AperFunction,Plated,PTH,ComponentDrill
T11C0.0512
; #@! TA.AperFunction,Plated,PTH,ComponentDrill
T12C0.0591
%
G90
G05
T1
X2.3907Y-4.4203
X2.3907Y-4.9498
X2.5641Y-2.18
X2.5984Y-2.18
X2.6378Y-2.18
X2.6772Y-2.18
X2.6772Y-2.7165
X2.9134Y-2.7756
X3.0709Y-2.18
X3.1102Y-2.18
X3.1496Y-2.18
X3.189Y-2.18
X3.2283Y-2.18
X3.255Y-3.925
X3.4449Y-2.7165
X3.4449Y-2.7756
X3.4478Y-2.1821
X3.5039Y-2.2068
X3.5925Y-2.7264
X3.7008Y-2.1063
X3.7598Y-2.8346
X3.7992Y-2.9921
X3.9567Y-2.6378
X4.0157Y-2.6772
X4.0551Y-2.6378
X4.1732Y-2.8346
X4.1831Y-2.4508
X4.2323Y-2.0866
X4.26Y-2.515
X4.4291Y-2.5067
X4.4685Y-2.5591
X4.535Y-2.64
X4.6457Y-3.4055
T3
X3.095Y-2.8248
X3.4055Y-2.9724
X3.4154Y-2.4508
X3.4724Y-2.2068
X3.5039Y-2.0669
T4
X2.8421Y-3.1102
X3.0858Y-4.5276
X3.0906Y-4.685
X3.1421Y-3.1102
X3.3858Y-4.5276
X3.3906Y-4.685
X3.5039Y-3.4524
X3.5039Y-3.7524
X3.5705Y-3.1299
X3.8705Y-3.1299
X3.952Y-3.1299
X3.9642Y-3.2677
X4.252Y-3.1299
X4.2642Y-3.2677
X4.3185Y-4.2913
X4.3185Y-4.4488
X4.3185Y-4.626
X4.326Y-4.7835
X4.6185Y-4.2913
X4.6185Y-4.4488
X4.6185Y-4.626
X4.626Y-4.7835
X4.7441Y-3.0193
X4.7441Y-3.3193
X5.1181Y-1.976
X5.1181Y-2.276
T5
X4.7976Y-2.5091
X4.7976Y-2.5591
X4.7976Y-2.6091
T6
X2.4346Y-2.3819
X2.4346Y-2.4819
X2.4346Y-2.5819
X2.4346Y-2.6819
X3.2188Y-3.6777
X3.2188Y-3.8027
X3.7288Y-3.4402
X3.7288Y-3.5402
X3.7288Y-3.6402
X3.7288Y-3.7402
X3.7288Y-3.8402
X3.7288Y-3.9402
X3.7288Y-4.0402
X3.9961Y-3.6742
X3.9961Y-3.7992
X4.5061Y-3.4367
X4.5061Y-3.5367
X4.5061Y-3.6367
X4.5061Y-3.7367
X4.5061Y-3.8367
X4.5061Y-3.9367
X4.5061Y-4.0367
X5.3346Y-1.8819
X5.3346Y-1.9819
X5.3346Y-2.0819
X5.3346Y-2.1819
X5.3346Y-2.2819
X5.3346Y-2.3819
X5.3346Y-2.4819
X5.3346Y-2.5819
X5.3346Y-2.6819
X5.3346Y-2.7819
X5.3346Y-2.8819
X5.3346Y-2.9819
X5.3346Y-3.0819
X5.3346Y-3.1819
T8
X3.1496Y-1.8307
X3.1752Y-4.9197
X3.2283Y-1.8307
X3.2752Y-4.9197
X3.3071Y-1.8307
X3.3752Y-4.9197
X3.4752Y-4.9197
X3.5752Y-4.9197
X3.6752Y-4.9197
X4.6457Y-1.8307
X4.7244Y-1.8307
X4.7441Y-3.4524
X4.7441Y-3.7524
X4.8031Y-1.8307
T9
X3.5925Y-4.4291
X3.5925Y-4.626
X4.1634Y-4.4291
X4.1634Y-4.5276
X4.1634Y-4.626
T10
X2.4705Y-2.8248
X2.4705Y-3.002
X2.7264Y-2.8248
X2.7264Y-3.002
T11
X5.0787Y-3.5039
X5.0787Y-3.7008
T12
X3.0669Y-1.8307
X3.3898Y-1.8307
X4.563Y-1.8307
X4.8858Y-1.8307
T2
G00X2.6575Y-3.5827
M15
G01X2.6575Y-3.622
M16
G05
G00X2.8346Y-3.7992
M15
G01X2.874Y-3.7992
M16
G05
T7
G00X2.8681Y-3.4055
M15
G01X2.8406Y-3.4055
M16
G05
G00X2.8406Y-3.7008
M15
G01X2.8681Y-3.7008
M16
G05
T12
G00X3.8937Y-4.3071
M15
G01X3.8425Y-4.3071
M16
G05
G00X3.8937Y-4.748
M15
G01X3.8425Y-4.748
M16
G05
M30
