M48
; DRILL file {KiCad 8.0.4} date 2025-02-19T18:28:00-0700
; FORMAT={-:-/ absolute / metric / decimal}
; #@! TF.CreationDate,2025-02-19T18:28:00-07:00
; #@! TF.GenerationSoftware,Kicad,Pcbnew,8.0.4
; #@! TF.FileFunction,Plated,1,2,PTH
FMAT,2
METRIC
; #@! TA.AperFunction,Plated,PTH,ViaDrill
T1C0.300
; #@! TA.AperFunction,Plated,PTH,ComponentDrill
T2C0.400
; #@! TA.AperFunction,Plated,PTH,ViaDrill
T3C0.500
; #@! TA.AperFunction,Plated,PTH,ComponentDrill
T4C0.700
; #@! TA.AperFunction,Plated,PTH,ComponentDrill
T5C0.750
; #@! TA.AperFunction,Plated,PTH,ComponentDrill
T6C0.762
; #@! TA.AperFunction,Plated,PTH,ComponentDrill
T7C0.800
; #@! TA.AperFunction,Plated,PTH,ComponentDrill
T8C0.900
; #@! TA.AperFunction,Plated,PTH,ComponentDrill
T9C1.000
; #@! TA.AperFunction,Plated,PTH,ComponentDrill
T10C1.100
; #@! TA.AperFunction,Plated,PTH,ComponentDrill
T11C1.300
; #@! TA.AperFunction,Plated,PTH,ComponentDrill
T12C1.500
%
G90
G05
T1
X60.725Y-112.275
X60.725Y-125.725
X68.0Y-69.0
X74.0Y-70.5
X82.677Y-99.695
X87.5Y-69.0
X87.5Y-70.5
X91.25Y-69.25
X94.0Y-53.5
X95.5Y-72.0
X96.5Y-76.0
X100.5Y-67.0
X102.0Y-68.0
X103.0Y-67.0
X106.0Y-72.0
X106.25Y-62.25
X107.5Y-53.0
X108.204Y-63.881
X112.5Y-63.67
X113.5Y-65.0
X115.189Y-67.056
X118.0Y-86.5
T3
X68.326Y-56.261
X78.613Y-71.75
X86.5Y-75.5
X86.75Y-62.25
X88.2Y-56.053
X89.0Y-52.5
T4
X72.19Y-79.0
X78.38Y-115.0
X78.5Y-119.0
X79.81Y-79.0
X86.0Y-115.0
X86.12Y-119.0
X89.0Y-87.69
X89.0Y-95.31
X90.69Y-79.5
X98.31Y-79.5
X100.38Y-79.5
X100.69Y-83.0
X108.0Y-79.5
X108.31Y-83.0
X109.69Y-109.0
X109.69Y-113.0
X109.69Y-117.5
X109.88Y-121.5
X117.31Y-109.0
X117.31Y-113.0
X117.31Y-117.5
X117.5Y-121.5
X120.5Y-76.69
X120.5Y-84.31
X130.0Y-50.19
X130.0Y-57.81
T5
X121.86Y-63.73
X121.86Y-65.0
X121.86Y-66.27
T6
X61.84Y-60.5
X61.84Y-63.04
X61.84Y-65.58
X61.84Y-68.12
X81.758Y-93.412
X81.758Y-96.587
X94.712Y-87.38
X94.712Y-89.92
X94.712Y-92.46
X94.712Y-95.0
X94.712Y-97.54
X94.712Y-100.08
X94.712Y-102.62
X101.5Y-93.325
X101.5Y-96.5
X114.454Y-87.292
X114.454Y-89.832
X114.454Y-92.373
X114.454Y-94.912
X114.454Y-97.453
X114.454Y-99.992
X114.454Y-102.532
X135.5Y-47.8
X135.5Y-50.34
X135.5Y-52.88
X135.5Y-55.42
X135.5Y-57.96
X135.5Y-60.5
X135.5Y-63.04
X135.5Y-65.58
X135.5Y-68.12
X135.5Y-70.66
X135.5Y-73.2
X135.5Y-75.74
X135.5Y-78.28
X135.5Y-80.82
T8
X80.0Y-46.5
X80.65Y-124.96
X82.0Y-46.5
X83.19Y-124.96
X84.0Y-46.5
X85.73Y-124.96
X88.27Y-124.96
X90.81Y-124.96
X93.35Y-124.96
X118.0Y-46.5
X120.0Y-46.5
X120.5Y-87.69
X120.5Y-95.31
X122.0Y-46.5
T9
X91.25Y-112.5
X91.25Y-117.5
X105.75Y-112.5
X105.75Y-115.0
X105.75Y-117.5
T10
X62.75Y-71.75
X62.75Y-76.25
X69.25Y-71.75
X69.25Y-76.25
T11
X129.0Y-89.0
X129.0Y-94.0
T12
X77.9Y-46.5
X86.1Y-46.5
X115.9Y-46.5
X124.1Y-46.5
T2
G00X67.5Y-91.0
M15
G01X67.5Y-92.0
M16
G05
G00X72.0Y-96.5
M15
G01X73.0Y-96.5
M16
G05
T7
G00X72.85Y-86.5
M15
G01X72.15Y-86.5
M16
G05
G00X72.15Y-94.0
M15
G01X72.85Y-94.0
M16
G05
T12
G00X98.9Y-109.4
M15
G01X97.6Y-109.4
M16
G05
G00X98.9Y-120.6
M15
G01X97.6Y-120.6
M16
G05
M30
