M48
; DRILL file {KiCad 8.0.6} date 2025-02-20T10:46:32-0700
; FORMAT={-:-/ absolute / inch / decimal}
; #@! TF.CreationDate,2025-02-20T10:46:32-07:00
; #@! TF.GenerationSoftware,Kicad,Pcbnew,8.0.6
; #@! TF.FileFunction,NonPlated,1,2,NPTH
FMAT,2
INCH
; #@! TA.AperFunction,NonPlated,NPTH,ComponentDrill
T1C0.0390
; #@! TA.AperFunction,NonPlated,NPTH,ComponentDrill
T2C0.0472
; #@! TA.AperFunction,NonPlated,NPTH,ComponentDrill
T3C0.0670
; #@! TA.AperFunction,NonPlated,NPTH,ComponentDrill
T4C0.1181
; #@! TA.AperFunction,NonPlated,NPTH,ComponentDrill
T5C0.1250
; #@! TA.AperFunction,NonPlated,NPTH,ComponentDrill
T6C0.1350
%
G90
G05
T1
X2.922Y-4.0079
X2.922Y-4.7165
X5.2843Y-4.0079
X5.2843Y-4.7165
T2
X2.5591Y-3.4055
X2.5591Y-3.7992
X2.6575Y-3.4055
X2.6575Y-3.7992
X2.8543Y-3.6024
T3
X2.5Y-4.1732
X2.5Y-4.8819
X2.9331Y-4.1732
X2.9331Y-4.8819
X4.8622Y-4.1732
X4.8622Y-4.8819
X5.2953Y-4.1732
X5.2953Y-4.8819
T4
X2.5197Y-4.3209
X2.5197Y-5.0295
X2.7165Y-4.4075
X2.7165Y-5.1161
X4.8819Y-4.3209
X4.8819Y-5.0295
X5.0787Y-4.4075
X5.0787Y-5.1161
T5
X2.4846Y-1.8319
X2.4846Y-3.2319
X5.1346Y-1.8319
X5.1346Y-3.2319
T6
X2.7165Y-4.1732
X2.7165Y-4.8819
X5.0787Y-4.1732
X5.0787Y-4.8819
M30
