%TF.GenerationSoftware,KiCad,Pcbnew,8.0.4*%
%TF.CreationDate,2025-02-21T10:23:32-07:00*%
%TF.ProjectId,PCB ESP32 S3 Wroom 1 n16r8,50434220-4553-4503-9332-205333205772,rev?*%
%TF.SameCoordinates,Original*%
%TF.FileFunction,Paste,Bot*%
%TF.FilePolarity,Positive*%
%FSLAX46Y46*%
G04 Gerber Fmt 4.6, Leading zero omitted, Abs format (unit mm)*
G04 Created by KiCad (PCBNEW 8.0.4) date 2025-02-21 10:23:32*
%MOMM*%
%LPD*%
G01*
G04 APERTURE LIST*
G04 Aperture macros list*
%AMRoundRect*
0 Rectangle with rounded corners*
0 $1 Rounding radius*
0 $2 $3 $4 $5 $6 $7 $8 $9 X,Y pos of 4 corners*
0 Add a 4 corners polygon primitive as box body*
4,1,4,$2,$3,$4,$5,$6,$7,$8,$9,$2,$3,0*
0 Add four circle primitives for the rounded corners*
1,1,$1+$1,$2,$3*
1,1,$1+$1,$4,$5*
1,1,$1+$1,$6,$7*
1,1,$1+$1,$8,$9*
0 Add four rect primitives between the rounded corners*
20,1,$1+$1,$2,$3,$4,$5,0*
20,1,$1+$1,$4,$5,$6,$7,0*
20,1,$1+$1,$6,$7,$8,$9,0*
20,1,$1+$1,$8,$9,$2,$3,0*%
G04 Aperture macros list end*
%ADD10R,2.600000X2.600000*%
%ADD11RoundRect,0.079500X-0.079500X-0.100500X0.079500X-0.100500X0.079500X0.100500X-0.079500X0.100500X0*%
%ADD12R,3.600000X1.150000*%
%ADD13R,1.500000X0.900000*%
%ADD14R,0.900000X1.500000*%
%ADD15R,0.900000X0.900000*%
%ADD16RoundRect,0.067500X-0.067500X-0.067500X0.067500X-0.067500X0.067500X0.067500X-0.067500X0.067500X0*%
%ADD17RoundRect,0.079500X0.100500X-0.079500X0.100500X0.079500X-0.100500X0.079500X-0.100500X-0.079500X0*%
%ADD18R,1.200000X0.600000*%
%ADD19RoundRect,0.067500X0.067500X0.067500X-0.067500X0.067500X-0.067500X-0.067500X0.067500X-0.067500X0*%
G04 APERTURE END LIST*
D10*
%TO.C,SW1*%
X72275000Y-111950000D03*
X60725000Y-109750000D03*
%TD*%
%TO.C,SW2*%
X72275000Y-129950000D03*
X60725000Y-127750000D03*
%TD*%
%TO.C,SW5*%
X132275000Y-129950000D03*
X120725000Y-127750000D03*
%TD*%
%TO.C,SW3*%
X132275000Y-111950000D03*
X120725000Y-109750000D03*
%TD*%
D11*
%TO.C,C1*%
X73155000Y-52500000D03*
X73845000Y-52500000D03*
%TD*%
D12*
%TO.C,L1*%
X69000000Y-51025000D03*
X69000000Y-53975000D03*
%TD*%
D13*
%TO.C,X1*%
X110250000Y-52240000D03*
X110250000Y-53510000D03*
X110250000Y-54780000D03*
X110250000Y-56050000D03*
X110250000Y-57320000D03*
X110250000Y-58590000D03*
X110250000Y-59860000D03*
X110250000Y-61130000D03*
X110250000Y-62400000D03*
X110250000Y-63670000D03*
X110250000Y-64940000D03*
X110250000Y-66210000D03*
X110250000Y-67480000D03*
X110250000Y-68750000D03*
D14*
X108485000Y-70000000D03*
X107215000Y-70000000D03*
X105945000Y-70000000D03*
X104675000Y-70000000D03*
X103405000Y-70000000D03*
X102135000Y-70000000D03*
X100865000Y-70000000D03*
X99595000Y-70000000D03*
X98325000Y-70000000D03*
X97055000Y-70000000D03*
X95785000Y-70000000D03*
X94515000Y-70000000D03*
D13*
X92750000Y-68750000D03*
X92750000Y-67480000D03*
X92750000Y-66210000D03*
X92750000Y-64940000D03*
X92750000Y-63670000D03*
X92750000Y-62400000D03*
X92750000Y-61130000D03*
X92750000Y-59860000D03*
X92750000Y-58590000D03*
X92750000Y-57320000D03*
X92750000Y-56050000D03*
X92750000Y-54780000D03*
X92750000Y-53510000D03*
X92750000Y-52240000D03*
D15*
X103000000Y-59960000D03*
X103000000Y-58560000D03*
X104400000Y-58560000D03*
X104400000Y-59960000D03*
X104400000Y-61360000D03*
X103000000Y-61360000D03*
X101600000Y-61360000D03*
X101600000Y-59960000D03*
X101600000Y-58560000D03*
%TD*%
D16*
%TO.C,R14*%
X78475000Y-57500000D03*
X79025000Y-57500000D03*
%TD*%
D17*
%TO.C,C3*%
X76000000Y-52025000D03*
X76000000Y-51335000D03*
%TD*%
%TO.C,C2*%
X71000000Y-56845000D03*
X71000000Y-56155000D03*
%TD*%
D18*
%TO.C,U1*%
X74783000Y-54422000D03*
X74783000Y-55372000D03*
X74783000Y-56322000D03*
X72283000Y-56322000D03*
X72283000Y-55372000D03*
X72283000Y-54422000D03*
%TD*%
D19*
%TO.C,R15*%
X78525000Y-56500000D03*
X77975000Y-56500000D03*
%TD*%
M02*
