%TF.GenerationSoftware,KiCad,Pcbnew,8.0.6*%
%TF.CreationDate,2025-02-20T10:46:28-07:00*%
%TF.ProjectId,PCB ESP32 S3 Wroom 1 n16r8,50434220-4553-4503-9332-205333205772,rev?*%
%TF.SameCoordinates,Original*%
%TF.FileFunction,Copper,L2,Bot*%
%TF.FilePolarity,Positive*%
%FSLAX46Y46*%
G04 Gerber Fmt 4.6, Leading zero omitted, Abs format (unit mm)*
G04 Created by KiCad (PCBNEW 8.0.6) date 2025-02-20 10:46:28*
%MOMM*%
%LPD*%
G01*
G04 APERTURE LIST*
G04 Aperture macros list*
%AMRoundRect*
0 Rectangle with rounded corners*
0 $1 Rounding radius*
0 $2 $3 $4 $5 $6 $7 $8 $9 X,Y pos of 4 corners*
0 Add a 4 corners polygon primitive as box body*
4,1,4,$2,$3,$4,$5,$6,$7,$8,$9,$2,$3,0*
0 Add four circle primitives for the rounded corners*
1,1,$1+$1,$2,$3*
1,1,$1+$1,$4,$5*
1,1,$1+$1,$6,$7*
1,1,$1+$1,$8,$9*
0 Add four rect primitives between the rounded corners*
20,1,$1+$1,$2,$3,$4,$5,0*
20,1,$1+$1,$4,$5,$6,$7,0*
20,1,$1+$1,$6,$7,$8,$9,0*
20,1,$1+$1,$8,$9,$2,$3,0*%
%AMOutline5P*
0 Free polygon, 5 corners , with rotation*
0 The origin of the aperture is its center*
0 number of corners: always 5*
0 $1 to $10 corner X, Y*
0 $11 Rotation angle, in degrees counterclockwise*
0 create outline with 5 corners*
4,1,5,$1,$2,$3,$4,$5,$6,$7,$8,$9,$10,$1,$2,$11*%
%AMOutline6P*
0 Free polygon, 6 corners , with rotation*
0 The origin of the aperture is its center*
0 number of corners: always 6*
0 $1 to $12 corner X, Y*
0 $13 Rotation angle, in degrees counterclockwise*
0 create outline with 6 corners*
4,1,6,$1,$2,$3,$4,$5,$6,$7,$8,$9,$10,$11,$12,$1,$2,$13*%
%AMOutline7P*
0 Free polygon, 7 corners , with rotation*
0 The origin of the aperture is its center*
0 number of corners: always 7*
0 $1 to $14 corner X, Y*
0 $15 Rotation angle, in degrees counterclockwise*
0 create outline with 7 corners*
4,1,7,$1,$2,$3,$4,$5,$6,$7,$8,$9,$10,$11,$12,$13,$14,$1,$2,$15*%
%AMOutline8P*
0 Free polygon, 8 corners , with rotation*
0 The origin of the aperture is its center*
0 number of corners: always 8*
0 $1 to $16 corner X, Y*
0 $17 Rotation angle, in degrees counterclockwise*
0 create outline with 8 corners*
4,1,8,$1,$2,$3,$4,$5,$6,$7,$8,$9,$10,$11,$12,$13,$14,$15,$16,$1,$2,$17*%
G04 Aperture macros list end*
%TA.AperFunction,SMDPad,CuDef*%
%ADD10R,2.600000X2.600000*%
%TD*%
%TA.AperFunction,ComponentPad*%
%ADD11O,2.200000X1.200000*%
%TD*%
%TA.AperFunction,ComponentPad*%
%ADD12O,1.200000X2.200000*%
%TD*%
%TA.AperFunction,ComponentPad*%
%ADD13O,2.300000X1.600000*%
%TD*%
%TA.AperFunction,ComponentPad*%
%ADD14C,1.400000*%
%TD*%
%TA.AperFunction,ComponentPad*%
%ADD15O,1.400000X1.400000*%
%TD*%
%TA.AperFunction,ComponentPad*%
%ADD16R,2.000000X2.000000*%
%TD*%
%TA.AperFunction,ComponentPad*%
%ADD17C,2.000000*%
%TD*%
%TA.AperFunction,ComponentPad*%
%ADD18R,3.200000X2.000000*%
%TD*%
%TA.AperFunction,ComponentPad*%
%ADD19C,1.524000*%
%TD*%
%TA.AperFunction,ComponentPad*%
%ADD20R,1.524000X1.524000*%
%TD*%
%TA.AperFunction,ComponentPad*%
%ADD21R,1.800000X1.800000*%
%TD*%
%TA.AperFunction,ComponentPad*%
%ADD22O,1.800000X1.800000*%
%TD*%
%TA.AperFunction,ComponentPad*%
%ADD23R,2.500000X2.500000*%
%TD*%
%TA.AperFunction,ComponentPad*%
%ADD24C,2.500000*%
%TD*%
%TA.AperFunction,SMDPad,CuDef*%
%ADD25RoundRect,0.100000X-0.130000X-0.100000X0.130000X-0.100000X0.130000X0.100000X-0.130000X0.100000X0*%
%TD*%
%TA.AperFunction,ComponentPad*%
%ADD26O,2.200000X3.500000*%
%TD*%
%TA.AperFunction,ComponentPad*%
%ADD27R,1.500000X2.500000*%
%TD*%
%TA.AperFunction,ComponentPad*%
%ADD28O,1.500000X2.500000*%
%TD*%
%TA.AperFunction,SMDPad,CuDef*%
%ADD29R,3.600000X1.150000*%
%TD*%
%TA.AperFunction,SMDPad,CuDef*%
%ADD30R,1.500000X0.900000*%
%TD*%
%TA.AperFunction,SMDPad,CuDef*%
%ADD31R,0.900000X1.500000*%
%TD*%
%TA.AperFunction,SMDPad,CuDef*%
%ADD32R,0.900000X0.900000*%
%TD*%
%TA.AperFunction,SMDPad,CuDef*%
%ADD33RoundRect,0.075000X-0.125000X-0.075000X0.125000X-0.075000X0.125000X0.075000X-0.125000X0.075000X0*%
%TD*%
%TA.AperFunction,SMDPad,CuDef*%
%ADD34RoundRect,0.100000X0.100000X-0.130000X0.100000X0.130000X-0.100000X0.130000X-0.100000X-0.130000X0*%
%TD*%
%TA.AperFunction,ComponentPad*%
%ADD35R,1.500000X1.050000*%
%TD*%
%TA.AperFunction,ComponentPad*%
%ADD36O,1.500000X1.050000*%
%TD*%
%TA.AperFunction,SMDPad,CuDef*%
%ADD37R,1.200000X0.600000*%
%TD*%
%TA.AperFunction,SMDPad,CuDef*%
%ADD38RoundRect,0.075000X0.125000X0.075000X-0.125000X0.075000X-0.125000X-0.075000X0.125000X-0.075000X0*%
%TD*%
%TA.AperFunction,ComponentPad*%
%ADD39Outline8P,-0.889000X0.368236X-0.368236X0.889000X0.368236X0.889000X0.889000X0.368236X0.889000X-0.368236X0.368236X-0.889000X-0.368236X-0.889000X-0.889000X-0.368236X0.000000*%
%TD*%
%TA.AperFunction,ComponentPad*%
%ADD40R,1.778000X1.778000*%
%TD*%
%TA.AperFunction,ViaPad*%
%ADD41C,0.600000*%
%TD*%
%TA.AperFunction,ViaPad*%
%ADD42C,0.700000*%
%TD*%
%TA.AperFunction,ViaPad*%
%ADD43C,0.750000*%
%TD*%
%TA.AperFunction,Conductor*%
%ADD44C,0.800000*%
%TD*%
%TA.AperFunction,Conductor*%
%ADD45C,0.500000*%
%TD*%
%TA.AperFunction,Conductor*%
%ADD46C,0.200000*%
%TD*%
%TA.AperFunction,Conductor*%
%ADD47C,0.400000*%
%TD*%
%TA.AperFunction,Conductor*%
%ADD48C,0.700000*%
%TD*%
G04 APERTURE END LIST*
D10*
%TO.P,SW1,1,A*%
%TO.N,/HOME_BUTTON*%
X72275000Y-111950000D03*
%TO.P,SW1,2,B*%
%TO.N,/VDD*%
X60725000Y-109750000D03*
%TD*%
D11*
%TO.P,J1,R*%
%TO.N,Net-(RSPKR1-SPKR+)*%
X72500000Y-86500000D03*
D12*
%TO.P,J1,S*%
%TO.N,Net-(L_SPKR1-SPKR-)*%
X67500000Y-91500000D03*
D11*
%TO.P,J1,T*%
%TO.N,Net-(L_SPKR1-SPKR+)*%
X72500000Y-96500000D03*
D13*
%TO.P,J1,TN*%
%TO.N,/Detect_Jack*%
X72500000Y-94000000D03*
%TD*%
D14*
%TO.P,R4,1*%
%TO.N,GND*%
X109690000Y-109000000D03*
D15*
%TO.P,R4,2*%
%TO.N,/PLAY{slash}PAUSE BUTTON*%
X117310000Y-109000000D03*
%TD*%
D14*
%TO.P,R1,1*%
%TO.N,Net-(X1-IO16)*%
X109690000Y-113000000D03*
D15*
%TO.P,R1,2*%
%TO.N,/VDD*%
X117310000Y-113000000D03*
%TD*%
D10*
%TO.P,SW2,1,A*%
%TO.N,/BACK_BUTTON*%
X72275000Y-129950000D03*
%TO.P,SW2,2,B*%
%TO.N,/VDD*%
X60725000Y-127750000D03*
%TD*%
D16*
%TO.P,Primary Rotary Encoder1,A,A*%
%TO.N,Net-(X1-IO7)*%
X105750000Y-117500000D03*
D17*
%TO.P,Primary Rotary Encoder1,B,B*%
%TO.N,Net-(X1-IO16)*%
X105750000Y-112500000D03*
%TO.P,Primary Rotary Encoder1,C,C*%
%TO.N,GND*%
X105750000Y-115000000D03*
D18*
%TO.P,Primary Rotary Encoder1,MP*%
%TO.N,N/C*%
X98250000Y-120600000D03*
X98250000Y-109400000D03*
D17*
%TO.P,Primary Rotary Encoder1,S1,S1*%
%TO.N,Net-(X1-IO21)*%
X91250000Y-112500000D03*
%TO.P,Primary Rotary Encoder1,S2,S2*%
%TO.N,GND*%
X91250000Y-117500000D03*
%TD*%
D19*
%TO.P,L_SPKR1,+,SPKR+*%
%TO.N,Net-(L_SPKR1-SPKR+)*%
X101500000Y-93325000D03*
%TO.P,L_SPKR1,-,SPKR-*%
%TO.N,Net-(L_SPKR1-SPKR-)*%
X101500000Y-96500000D03*
%TO.P,L_SPKR1,BCLK,BCLK*%
%TO.N,/DAC_BCLK*%
X114454000Y-99992500D03*
%TO.P,L_SPKR1,DIN,DIN*%
%TO.N,/DAC_DIN*%
X114454000Y-97452500D03*
%TO.P,L_SPKR1,GAIN,Gain*%
%TO.N,/Gain*%
X114454000Y-94912500D03*
%TO.P,L_SPKR1,GND,GND*%
%TO.N,GND*%
X114454000Y-89832500D03*
%TO.P,L_SPKR1,LRC,LRC*%
%TO.N,/DAC_LRC*%
X114454000Y-102532500D03*
%TO.P,L_SPKR1,SD,SD*%
%TO.N,/L_Chanel_Select*%
X114454000Y-92372500D03*
%TO.P,L_SPKR1,VIN,Vin*%
%TO.N,/VDD*%
X114454000Y-87292500D03*
%TD*%
D14*
%TO.P,R2,1*%
%TO.N,Net-(X1-IO7)*%
X109690000Y-117500000D03*
D15*
%TO.P,R2,2*%
%TO.N,/VDD*%
X117310000Y-117500000D03*
%TD*%
D10*
%TO.P,SW5,1,A*%
%TO.N,/VDD*%
X132275000Y-129950000D03*
%TO.P,SW5,2,B*%
%TO.N,/MENU_BUTTON*%
X120725000Y-127750000D03*
%TD*%
D14*
%TO.P,R3,1*%
%TO.N,GND*%
X86000000Y-115000000D03*
D15*
%TO.P,R3,2*%
%TO.N,/HOME_BUTTON*%
X78380000Y-115000000D03*
%TD*%
D19*
%TO.P,RSPKR1,+,SPKR+*%
%TO.N,Net-(RSPKR1-SPKR+)*%
X81758500Y-93412500D03*
%TO.P,RSPKR1,-,SPKR-*%
%TO.N,Net-(L_SPKR1-SPKR-)*%
X81758500Y-96587500D03*
%TO.P,RSPKR1,BCLK,BCLK*%
%TO.N,/DAC_BCLK*%
X94712500Y-100080000D03*
%TO.P,RSPKR1,DIN,DIN*%
%TO.N,/DAC_DIN*%
X94712500Y-97540000D03*
%TO.P,RSPKR1,GAIN,Gain*%
%TO.N,/Gain*%
X94712500Y-95000000D03*
%TO.P,RSPKR1,GND,GND*%
%TO.N,GND*%
X94712500Y-89920000D03*
%TO.P,RSPKR1,LRC,LRC*%
%TO.N,/DAC_LRC*%
X94712500Y-102620000D03*
%TO.P,RSPKR1,SD,SD*%
%TO.N,/R_Chanel_Select*%
X94712500Y-92460000D03*
%TO.P,RSPKR1,VIN,Vin*%
%TO.N,/VDD*%
X94712500Y-87380000D03*
%TD*%
%TO.P,Screen&SDCardReader1,CS,CS*%
%TO.N,/TFT_CS*%
X135500000Y-52880000D03*
%TO.P,Screen&SDCardReader1,DC,DC*%
%TO.N,/TFT_DC*%
X135500000Y-57960000D03*
%TO.P,Screen&SDCardReader1,GND,GND*%
%TO.N,GND*%
X135500000Y-50340000D03*
%TO.P,Screen&SDCardReader1,LED,LED*%
%TO.N,/SCREEN_BRIGHTNESS*%
X135500000Y-65580000D03*
%TO.P,Screen&SDCardReader1,RESET,RESET*%
%TO.N,/RESET*%
X135500000Y-55420000D03*
%TO.P,Screen&SDCardReader1,SCK,SCK*%
%TO.N,/SPI_SCK*%
X135500000Y-63040000D03*
%TO.P,Screen&SDCardReader1,SDI(MOSI),SDI(MOSI)*%
%TO.N,/SPI_MOSI*%
X135500000Y-60500000D03*
%TO.P,Screen&SDCardReader1,SDO(MISO),SDO(MISO)*%
%TO.N,unconnected-(Screen&SDCardReader1-PadSDO(MISO))*%
X135500000Y-68120000D03*
D20*
%TO.P,Screen&SDCardReader1,SD_CS,SD_CS*%
%TO.N,/SD_CS*%
X61840000Y-60500000D03*
D19*
%TO.P,Screen&SDCardReader1,SD_MISO,SD_MISO*%
%TO.N,/SPI_MISO*%
X61840000Y-65580000D03*
%TO.P,Screen&SDCardReader1,SD_MOSI,SD_MOSI*%
%TO.N,/SPI_MOSI*%
X61840000Y-63040000D03*
%TO.P,Screen&SDCardReader1,SD_SCK,SD_SCK*%
%TO.N,/SPI_SCK*%
X61840000Y-68120000D03*
%TO.P,Screen&SDCardReader1,T_CLK,T_CLK*%
%TO.N,unconnected-(Screen&SDCardReader1-PadT_CLK)*%
X135500000Y-70660000D03*
%TO.P,Screen&SDCardReader1,T_CS,T_CS*%
%TO.N,unconnected-(Screen&SDCardReader1-PadT_CS)*%
X135500000Y-73200000D03*
%TO.P,Screen&SDCardReader1,T_DIN,T_DIN*%
%TO.N,unconnected-(Screen&SDCardReader1-PadT_DIN)*%
X135500000Y-75740000D03*
%TO.P,Screen&SDCardReader1,T_DO,T_DO*%
%TO.N,unconnected-(Screen&SDCardReader1-PadT_DO)*%
X135500000Y-78280000D03*
%TO.P,Screen&SDCardReader1,T_IRQ,T_IRQ*%
%TO.N,unconnected-(Screen&SDCardReader1-PadT_IRQ)*%
X135500000Y-80820000D03*
D20*
%TO.P,Screen&SDCardReader1,Vcc,Vcc*%
%TO.N,/VDD*%
X135500000Y-47800000D03*
%TD*%
D10*
%TO.P,SW3,1,A*%
%TO.N,/VDD*%
X132275000Y-111950000D03*
%TO.P,SW3,2,B*%
%TO.N,/PLAY{slash}PAUSE BUTTON*%
X120725000Y-109750000D03*
%TD*%
D14*
%TO.P,R6,1*%
%TO.N,GND*%
X86120000Y-119000000D03*
D15*
%TO.P,R6,2*%
%TO.N,/BACK_BUTTON*%
X78500000Y-119000000D03*
%TD*%
D21*
%TO.P,D1,1,K*%
%TO.N,Net-(D1-K)*%
X120500000Y-87690000D03*
D22*
%TO.P,D1,2,A*%
%TO.N,GND*%
X120500000Y-95310000D03*
%TD*%
D23*
%TO.P,M1,1,+*%
%TO.N,Net-(D1-K)*%
X129000000Y-89000000D03*
D24*
%TO.P,M1,2,-*%
%TO.N,GND*%
X129000000Y-94000000D03*
%TD*%
D14*
%TO.P,R5,1*%
%TO.N,GND*%
X109880000Y-121500000D03*
D15*
%TO.P,R5,2*%
%TO.N,/MENU_BUTTON*%
X117500000Y-121500000D03*
%TD*%
D14*
%TO.P,R12,1*%
%TO.N,/Detect_Jack*%
X90690000Y-79500000D03*
D15*
%TO.P,R12,2*%
%TO.N,/VDD*%
X98310000Y-79500000D03*
%TD*%
D25*
%TO.P,C1,1*%
%TO.N,Net-(U1-SW)*%
X73180000Y-52500000D03*
%TO.P,C1,2*%
%TO.N,Net-(U1-CB)*%
X73820000Y-52500000D03*
%TD*%
D26*
%TO.P,SW6,*%
%TO.N,*%
X115900000Y-46500000D03*
X124100000Y-46500000D03*
D27*
%TO.P,SW6,1,A*%
%TO.N,/VDD*%
X118000000Y-46500000D03*
D28*
%TO.P,SW6,2,B*%
%TO.N,Net-(SW6-B)*%
X120000000Y-46500000D03*
%TO.P,SW6,3,C*%
%TO.N,GND*%
X122000000Y-46500000D03*
%TD*%
D14*
%TO.P,R13,1*%
%TO.N,/VDD*%
X130000000Y-50190000D03*
D15*
%TO.P,R13,2*%
%TO.N,/RESET*%
X130000000Y-57810000D03*
%TD*%
D14*
%TO.P,R8,1*%
%TO.N,/VDD*%
X72190000Y-79000000D03*
D15*
%TO.P,R8,2*%
%TO.N,/BOOT_SEL*%
X79810000Y-79000000D03*
%TD*%
D29*
%TO.P,L1,1,1*%
%TO.N,/VDD*%
X69000000Y-51025000D03*
%TO.P,L1,2,2*%
%TO.N,Net-(U1-SW)*%
X69000000Y-53975000D03*
%TD*%
D30*
%TO.P,X1,1,GND*%
%TO.N,GND*%
X110250000Y-52240000D03*
%TO.P,X1,2,3V3*%
%TO.N,/VDD*%
X110250000Y-53510000D03*
%TO.P,X1,3,EN*%
%TO.N,/RESET*%
X110250000Y-54780000D03*
%TO.P,X1,4,IO4*%
%TO.N,/DAC_DIN*%
X110250000Y-56050000D03*
%TO.P,X1,5,IO5*%
%TO.N,/DAC_BCLK*%
X110250000Y-57320000D03*
%TO.P,X1,6,IO6*%
%TO.N,/DAC_LRC*%
X110250000Y-58590000D03*
%TO.P,X1,7,IO7*%
%TO.N,Net-(X1-IO7)*%
X110250000Y-59860000D03*
%TO.P,X1,8,IO15*%
%TO.N,/Gain*%
X110250000Y-61130000D03*
%TO.P,X1,9,IO16*%
%TO.N,Net-(X1-IO16)*%
X110250000Y-62400000D03*
%TO.P,X1,10,IO17*%
%TO.N,/SCREEN_BRIGHTNESS*%
X110250000Y-63670000D03*
%TO.P,X1,11,IO18*%
%TO.N,/Motor_Driver*%
X110250000Y-64940000D03*
%TO.P,X1,12,IO8*%
%TO.N,Net-(SW6-B)*%
X110250000Y-66210000D03*
%TO.P,X1,13,IO19*%
%TO.N,/USB_D-*%
X110250000Y-67480000D03*
%TO.P,X1,14,IO20*%
%TO.N,/USB_D+*%
X110250000Y-68750000D03*
D31*
%TO.P,X1,15,IO3*%
%TO.N,/Detect_Jack*%
X108485000Y-70000000D03*
%TO.P,X1,16,IO46*%
%TO.N,/PLAY{slash}PAUSE BUTTON*%
X107215000Y-70000000D03*
%TO.P,X1,17,IO9*%
%TO.N,/TFT_DC*%
X105945000Y-70000000D03*
%TO.P,X1,18,IO10*%
%TO.N,unconnected-(X1-IO10-Pad18)*%
X104675000Y-70000000D03*
%TO.P,X1,19,IO11*%
%TO.N,/SPI_MOSI*%
X103405000Y-70000000D03*
%TO.P,X1,20,IO12*%
%TO.N,/SPI_SCK*%
X102135000Y-70000000D03*
%TO.P,X1,21,IO13*%
%TO.N,/SPI_MISO*%
X100865000Y-70000000D03*
%TO.P,X1,22,IO14*%
%TO.N,unconnected-(X1-IO14-Pad22)*%
X99595000Y-70000000D03*
%TO.P,X1,23,IO21*%
%TO.N,Net-(X1-IO21)*%
X98325000Y-70000000D03*
%TO.P,X1,24,IO47*%
%TO.N,/BACK_BUTTON*%
X97055000Y-70000000D03*
%TO.P,X1,25,IO48*%
%TO.N,/MENU_BUTTON*%
X95785000Y-70000000D03*
%TO.P,X1,26,IO45*%
%TO.N,/HOME_BUTTON*%
X94515000Y-70000000D03*
D30*
%TO.P,X1,27,IO0*%
%TO.N,/BOOT_SEL*%
X92750000Y-68750000D03*
%TO.P,X1,28,IO35*%
%TO.N,unconnected-(X1-IO35-Pad28)*%
X92750000Y-67480000D03*
%TO.P,X1,29,IO36*%
%TO.N,unconnected-(X1-IO36-Pad29)*%
X92750000Y-66210000D03*
%TO.P,X1,30,IO37*%
%TO.N,unconnected-(X1-IO37-Pad30)*%
X92750000Y-64940000D03*
%TO.P,X1,31,IO38*%
%TO.N,unconnected-(X1-IO38-Pad31)*%
X92750000Y-63670000D03*
%TO.P,X1,32,IO39*%
%TO.N,unconnected-(X1-IO39-Pad32)*%
X92750000Y-62400000D03*
%TO.P,X1,33,IO40*%
%TO.N,unconnected-(X1-IO40-Pad33)*%
X92750000Y-61130000D03*
%TO.P,X1,34,IO41*%
%TO.N,unconnected-(X1-IO41-Pad34)*%
X92750000Y-59860000D03*
%TO.P,X1,35,IO42*%
%TO.N,unconnected-(X1-IO42-Pad35)*%
X92750000Y-58590000D03*
%TO.P,X1,36,RXD0*%
%TO.N,/RXD*%
X92750000Y-57320000D03*
%TO.P,X1,37,TXD0*%
%TO.N,/TXD*%
X92750000Y-56050000D03*
%TO.P,X1,38,IO2*%
%TO.N,/SD_CS*%
X92750000Y-54780000D03*
%TO.P,X1,39,IO1*%
%TO.N,/TFT_CS*%
X92750000Y-53510000D03*
%TO.P,X1,40,GND*%
%TO.N,GND*%
X92750000Y-52240000D03*
D32*
%TO.P,X1,41,GND*%
X103000000Y-59960000D03*
%TO.P,X1,42,GND*%
X103000000Y-58560000D03*
%TO.P,X1,43,GND*%
X104400000Y-58560000D03*
%TO.P,X1,44,GND*%
X104400000Y-59960000D03*
%TO.P,X1,45,GND*%
X104400000Y-61360000D03*
%TO.P,X1,46,GND*%
X103000000Y-61360000D03*
%TO.P,X1,47,GND*%
X101600000Y-61360000D03*
%TO.P,X1,48,GND*%
X101600000Y-59960000D03*
%TO.P,X1,49,GND*%
X101600000Y-58560000D03*
%TD*%
D26*
%TO.P,SW4,*%
%TO.N,*%
X77900000Y-46500000D03*
X86100000Y-46500000D03*
D27*
%TO.P,SW4,1,A*%
%TO.N,GND*%
X80000000Y-46500000D03*
D28*
%TO.P,SW4,2,B*%
%TO.N,Net-(SW4-B)*%
X82000000Y-46500000D03*
%TO.P,SW4,3,C*%
%TO.N,unconnected-(SW4-C-Pad3)*%
X84000000Y-46500000D03*
%TD*%
D14*
%TO.P,R11,1*%
%TO.N,/R_Chanel_Select*%
X89000000Y-95310000D03*
D15*
%TO.P,R11,2*%
%TO.N,GND*%
X89000000Y-87690000D03*
%TD*%
D33*
%TO.P,R14,1*%
%TO.N,Net-(U1-FB)*%
X78500000Y-57500000D03*
%TO.P,R14,2*%
%TO.N,/VDD*%
X79000000Y-57500000D03*
%TD*%
D17*
%TO.P,SW7,1,1*%
%TO.N,GND*%
X69250000Y-71750000D03*
X62750000Y-71750000D03*
%TO.P,SW7,2,2*%
%TO.N,/BOOT_SEL*%
X69250000Y-76250000D03*
X62750000Y-76250000D03*
%TD*%
D34*
%TO.P,C3,1*%
%TO.N,GND*%
X76000000Y-52000000D03*
%TO.P,C3,2*%
%TO.N,/VDD*%
X76000000Y-51360000D03*
%TD*%
D35*
%TO.P,Q1,1,D*%
%TO.N,/VDD*%
X121860000Y-63730000D03*
D36*
%TO.P,Q1,2,G*%
%TO.N,/Motor_Driver*%
X121860000Y-65000000D03*
%TO.P,Q1,3,S*%
%TO.N,Net-(Q1-S)*%
X121860000Y-66270000D03*
%TD*%
D14*
%TO.P,R9,1*%
%TO.N,/VDD*%
X100380000Y-79500000D03*
D15*
%TO.P,R9,2*%
%TO.N,/L_Chanel_Select*%
X108000000Y-79500000D03*
%TD*%
D34*
%TO.P,C2,1*%
%TO.N,GND*%
X71000000Y-56820000D03*
%TO.P,C2,2*%
%TO.N,/5V*%
X71000000Y-56180000D03*
%TD*%
D37*
%TO.P,U1,1,CB*%
%TO.N,Net-(U1-CB)*%
X74783000Y-54422000D03*
%TO.P,U1,2,GND*%
%TO.N,GND*%
X74783000Y-55372000D03*
%TO.P,U1,3,FB*%
%TO.N,Net-(U1-FB)*%
X74783000Y-56322000D03*
%TO.P,U1,4,EN*%
%TO.N,/5V*%
X72283000Y-56322000D03*
%TO.P,U1,5,VIN*%
X72283000Y-55372000D03*
%TO.P,U1,6,SW*%
%TO.N,Net-(U1-SW)*%
X72283000Y-54422000D03*
%TD*%
D14*
%TO.P,R7,1*%
%TO.N,Net-(Q1-S)*%
X120500000Y-76690000D03*
D15*
%TO.P,R7,2*%
%TO.N,Net-(D1-K)*%
X120500000Y-84310000D03*
%TD*%
D38*
%TO.P,R15,1*%
%TO.N,GND*%
X78500000Y-56500000D03*
%TO.P,R15,2*%
%TO.N,Net-(U1-FB)*%
X78000000Y-56500000D03*
%TD*%
D14*
%TO.P,R10,1*%
%TO.N,/L_Chanel_Select*%
X108310000Y-83000000D03*
D15*
%TO.P,R10,2*%
%TO.N,/R_Chanel_Select*%
X100690000Y-83000000D03*
%TD*%
D39*
%TO.P,1,5V,5V*%
%TO.N,/5V*%
X85730000Y-124960000D03*
%TO.P,1,CTS,CTS*%
%TO.N,unconnected-(1-PadCTS)*%
X83190000Y-124960000D03*
D40*
%TO.P,1,GND,GND*%
%TO.N,Net-(SW4-B)*%
X80650000Y-124960000D03*
D39*
%TO.P,1,RTS,RTS*%
%TO.N,/RESET*%
X93350000Y-124960000D03*
%TO.P,1,RXD,RXD*%
%TO.N,/RXD*%
X90810000Y-124960000D03*
%TO.P,1,TXD,TXD*%
%TO.N,/TXD*%
X88270000Y-124960000D03*
%TD*%
D41*
%TO.N,/5V*%
X67000000Y-55372000D03*
X65128000Y-55372000D03*
X68000000Y-55372000D03*
X66000000Y-55372000D03*
%TO.N,/RXD*%
X87500000Y-70500000D03*
X74000000Y-70500000D03*
%TO.N,/TXD*%
X87500000Y-69000000D03*
X68000000Y-69000000D03*
D42*
%TO.N,GND*%
X89000000Y-52500000D03*
D41*
X78000000Y-55372000D03*
X82000000Y-55372000D03*
X80000000Y-55372000D03*
D42*
X86750000Y-62250000D03*
X78613000Y-71750000D03*
D41*
X81000000Y-55372000D03*
X79000000Y-55372000D03*
%TO.N,/VDD*%
X60725000Y-112275000D03*
X60725000Y-125725000D03*
X89000000Y-56053122D03*
D43*
X88200000Y-56053122D03*
D42*
X86500000Y-75500000D03*
D41*
X87573439Y-55426561D03*
%TO.N,Net-(L_SPKR1-SPKR-)*%
X82677000Y-99695000D03*
%TO.N,Net-(X1-IO7)*%
X115189000Y-67056000D03*
%TO.N,Net-(X1-IO16)*%
X108204000Y-63881000D03*
%TO.N,/Motor_Driver*%
X113500000Y-65000000D03*
%TO.N,/PLAY{slash}PAUSE BUTTON*%
X106000000Y-72000000D03*
X118000000Y-86500000D03*
%TO.N,/MENU_BUTTON*%
X96500000Y-76000000D03*
X95500000Y-72000000D03*
%TO.N,/BOOT_SEL*%
X91250000Y-69250000D03*
%TO.N,/SPI_MISO*%
X100500000Y-67000000D03*
%TO.N,/SPI_MOSI*%
X103000000Y-67000000D03*
%TO.N,/SPI_SCK*%
X102000000Y-68000000D03*
%TO.N,/TFT_CS*%
X94000000Y-53500000D03*
%TO.N,/SCREEN_BRIGHTNESS*%
X112500000Y-63670000D03*
%TO.N,/TFT_DC*%
X106250000Y-62250000D03*
%TO.N,Net-(SW6-B)*%
X107500000Y-53000000D03*
%TD*%
D44*
%TO.N,/5V*%
X72283000Y-55372000D02*
X72283000Y-56322000D01*
D45*
%TO.N,Net-(SW4-B)*%
X82000000Y-45500000D02*
X82000000Y-46500000D01*
D44*
%TO.N,/5V*%
X66000000Y-55372000D02*
X65128000Y-55372000D01*
X71000000Y-55372000D02*
X71000000Y-55990000D01*
X68000000Y-55372000D02*
X67000000Y-55372000D01*
X67000000Y-55372000D02*
X66000000Y-55372000D01*
X72283000Y-55372000D02*
X71000000Y-55372000D01*
X71000000Y-55372000D02*
X68000000Y-55372000D01*
D46*
%TO.N,/RESET*%
X126970000Y-54780000D02*
X110250000Y-54780000D01*
X138000000Y-57920000D02*
X138000000Y-130000000D01*
X138000000Y-130000000D02*
X136100000Y-131900000D01*
X100290000Y-131900000D02*
X93350000Y-124960000D01*
X136100000Y-131900000D02*
X100290000Y-131900000D01*
X135500000Y-55420000D02*
X138000000Y-57920000D01*
X130000000Y-57810000D02*
X126970000Y-54780000D01*
%TO.N,/RXD*%
X89500000Y-68500000D02*
X87500000Y-70500000D01*
X89500000Y-68000000D02*
X89500000Y-68500000D01*
X92750000Y-57320000D02*
X91800000Y-57320000D01*
X89500000Y-59620000D02*
X89500000Y-68000000D01*
X91800000Y-57320000D02*
X89500000Y-59620000D01*
%TO.N,/TXD*%
X88750000Y-59100000D02*
X88750000Y-67750000D01*
X88750000Y-67750000D02*
X87500000Y-69000000D01*
X59125000Y-72875000D02*
X59125000Y-115625000D01*
X59125000Y-115625000D02*
X62500000Y-119000000D01*
X66500000Y-130300000D02*
X66500000Y-123000000D01*
X91800000Y-56050000D02*
X88750000Y-59100000D01*
X68000000Y-69000000D02*
X62500000Y-69000000D01*
X66500000Y-123000000D02*
X62500000Y-119000000D01*
X92750000Y-56050000D02*
X91800000Y-56050000D01*
X68100000Y-131900000D02*
X66500000Y-130300000D01*
X59500000Y-72500000D02*
X59125000Y-72875000D01*
X62500000Y-69000000D02*
X59500000Y-72000000D01*
X81330000Y-131900000D02*
X68100000Y-131900000D01*
X59500000Y-72000000D02*
X59500000Y-72500000D01*
X93000000Y-56000000D02*
X92800000Y-56000000D01*
X88270000Y-124960000D02*
X81330000Y-131900000D01*
X92750000Y-56050000D02*
X92800000Y-56000000D01*
%TO.N,GND*%
X101600000Y-61360000D02*
X104400000Y-58560000D01*
D45*
X92750000Y-52240000D02*
X89260000Y-52240000D01*
D46*
X104400000Y-58560000D02*
X104400000Y-61360000D01*
X86000000Y-118880000D02*
X86120000Y-119000000D01*
D45*
X79500000Y-69500000D02*
X83500000Y-65500000D01*
X89260000Y-52240000D02*
X89000000Y-52500000D01*
X73628000Y-55372000D02*
X73500000Y-55500000D01*
D46*
X80000000Y-46500000D02*
X80000000Y-47000000D01*
D45*
X94712500Y-89920000D02*
X91230000Y-89920000D01*
X103760000Y-52240000D02*
X104000000Y-52240000D01*
X71000000Y-56820000D02*
X71000000Y-58000000D01*
X113604501Y-90681999D02*
X114454000Y-89832500D01*
D46*
X103000000Y-53000000D02*
X103000000Y-58560000D01*
D45*
X94712500Y-89920000D02*
X95474499Y-90681999D01*
X62750000Y-71750000D02*
X69250000Y-71750000D01*
D46*
X103000000Y-53000000D02*
X103760000Y-52240000D01*
D45*
X86750000Y-62250000D02*
X87500000Y-61500000D01*
D47*
X76000000Y-52000000D02*
X77000000Y-53000000D01*
D46*
X103000000Y-58560000D02*
X101600000Y-59960000D01*
D45*
X87500000Y-61500000D02*
X87500000Y-57000000D01*
D46*
X103000000Y-58560000D02*
X103000000Y-61360000D01*
D44*
X80000000Y-55372000D02*
X79000000Y-55372000D01*
D45*
X110250000Y-52240000D02*
X117760000Y-52240000D01*
X104000000Y-52240000D02*
X110250000Y-52240000D01*
X79500000Y-70863000D02*
X79500000Y-69500000D01*
D46*
X105750000Y-115000000D02*
X109690000Y-111060000D01*
X104400000Y-59960000D02*
X103000000Y-61360000D01*
D44*
X82000000Y-55372000D02*
X81000000Y-55372000D01*
D45*
X95474499Y-90681999D02*
X113604501Y-90681999D01*
D46*
X101600000Y-58560000D02*
X101600000Y-61360000D01*
D45*
X121750000Y-46750000D02*
X121750000Y-48250000D01*
X127690000Y-95310000D02*
X129000000Y-94000000D01*
D46*
X91250000Y-117500000D02*
X93750000Y-115000000D01*
X89750000Y-119000000D02*
X91250000Y-117500000D01*
X103000000Y-58560000D02*
X104400000Y-59960000D01*
X109880000Y-119130000D02*
X109880000Y-121500000D01*
D45*
X78613000Y-71750000D02*
X79500000Y-70863000D01*
D46*
X101600000Y-59960000D02*
X104400000Y-59960000D01*
X101600000Y-58560000D02*
X104400000Y-61360000D01*
D45*
X73500000Y-55500000D02*
X73500000Y-57500000D01*
X91230000Y-89920000D02*
X89000000Y-87690000D01*
D46*
X101600000Y-59960000D02*
X103000000Y-61360000D01*
X101600000Y-58560000D02*
X104400000Y-58560000D01*
D45*
X120500000Y-95310000D02*
X127690000Y-95310000D01*
X102500000Y-52240000D02*
X103760000Y-52240000D01*
D46*
X86120000Y-119000000D02*
X89750000Y-119000000D01*
D44*
X81000000Y-55372000D02*
X80000000Y-55372000D01*
D46*
X109690000Y-111060000D02*
X109690000Y-109000000D01*
D45*
X74783000Y-55372000D02*
X74861000Y-55450000D01*
D44*
X78500000Y-55372000D02*
X74783000Y-55372000D01*
D45*
X87500000Y-57000000D02*
X85872000Y-55372000D01*
X74783000Y-55372000D02*
X73628000Y-55372000D01*
D44*
X79000000Y-55372000D02*
X78500000Y-55372000D01*
D45*
X83500000Y-65500000D02*
X86750000Y-62250000D01*
D46*
X93750000Y-115000000D02*
X105750000Y-115000000D01*
D45*
X117760000Y-52240000D02*
X121750000Y-48250000D01*
D46*
X101600000Y-61360000D02*
X104400000Y-61360000D01*
X105750000Y-115000000D02*
X109880000Y-119130000D01*
D44*
X85872000Y-55372000D02*
X82000000Y-55372000D01*
D46*
X78500000Y-56500000D02*
X78500000Y-55372000D01*
X86000000Y-115000000D02*
X86000000Y-118880000D01*
D45*
X92750000Y-52240000D02*
X104000000Y-52240000D01*
D46*
X122000000Y-46500000D02*
X121750000Y-46750000D01*
X102240000Y-52240000D02*
X103000000Y-53000000D01*
D45*
%TO.N,/VDD*%
X130000000Y-50190000D02*
X132390000Y-47800000D01*
D46*
X64251472Y-84251472D02*
X62900000Y-84251472D01*
X62400000Y-104100000D02*
X60725000Y-105775000D01*
X120050000Y-44450000D02*
X132150000Y-44450000D01*
X68000000Y-59500000D02*
X64000000Y-55500000D01*
X66975000Y-51025000D02*
X69000000Y-51025000D01*
D45*
X86823439Y-54676561D02*
X83171878Y-51025000D01*
X96592500Y-85500000D02*
X98310000Y-83782500D01*
D44*
X87573439Y-55426561D02*
X86823439Y-54676561D01*
D46*
X83500000Y-70600000D02*
X83550000Y-70550000D01*
D45*
X75795000Y-51320000D02*
X75500000Y-51025000D01*
D46*
X117310000Y-113000000D02*
X117310000Y-117500000D01*
X86500000Y-75500000D02*
X85000000Y-75500000D01*
X124000000Y-113000000D02*
X127500000Y-109500000D01*
D45*
X98310000Y-83782500D02*
X98310000Y-79500000D01*
D46*
X69502944Y-79000000D02*
X64251472Y-84251472D01*
D44*
X87000000Y-54500000D02*
X87500000Y-54500000D01*
D45*
X110250000Y-53510000D02*
X126680000Y-53510000D01*
X132390000Y-47800000D02*
X135500000Y-47800000D01*
D46*
X129825000Y-109500000D02*
X132275000Y-111950000D01*
D45*
X112661500Y-85500000D02*
X114454000Y-87292500D01*
D46*
X132150000Y-44450000D02*
X135500000Y-47800000D01*
X72190000Y-79000000D02*
X69502944Y-79000000D01*
X64000000Y-54000000D02*
X66975000Y-51025000D01*
X83500000Y-77000000D02*
X74190000Y-77000000D01*
X117310000Y-113000000D02*
X124000000Y-113000000D01*
X60725000Y-127750000D02*
X60725000Y-125725000D01*
D45*
X132000000Y-57500000D02*
X132000000Y-59000000D01*
D44*
X89000000Y-56200000D02*
X88200000Y-57000000D01*
D45*
X87500000Y-54500000D02*
X87500000Y-54553122D01*
D46*
X127500000Y-109500000D02*
X129825000Y-109500000D01*
D44*
X86823439Y-54676561D02*
X87000000Y-54500000D01*
D45*
X88200000Y-57000000D02*
X88200000Y-65900000D01*
X83500000Y-70600000D02*
X85000000Y-72100000D01*
X88200000Y-65900000D02*
X83550000Y-70550000D01*
D46*
X62900000Y-84251472D02*
X62400000Y-84751472D01*
D45*
X126680000Y-53510000D02*
X130000000Y-50190000D01*
D44*
X88200000Y-57000000D02*
X88200000Y-56053122D01*
D45*
X76500000Y-51025000D02*
X75500000Y-51025000D01*
D46*
X79000000Y-57500000D02*
X79000000Y-58500000D01*
D45*
X94712500Y-87380000D02*
X96592500Y-85500000D01*
X96592500Y-85500000D02*
X112661500Y-85500000D01*
X83171878Y-51025000D02*
X76500000Y-51025000D01*
X128010000Y-53510000D02*
X132000000Y-57500000D01*
X85000000Y-74000000D02*
X86500000Y-75500000D01*
X132000000Y-59000000D02*
X127270000Y-63730000D01*
X126680000Y-53510000D02*
X128010000Y-53510000D01*
D46*
X78000000Y-59500000D02*
X68000000Y-59500000D01*
X62400000Y-84751472D02*
X62400000Y-104100000D01*
X60725000Y-105775000D02*
X60725000Y-109750000D01*
X60725000Y-109750000D02*
X60725000Y-112275000D01*
D45*
X89000000Y-56053122D02*
X89000000Y-56200000D01*
D46*
X64000000Y-55500000D02*
X64000000Y-54000000D01*
X132275000Y-111950000D02*
X132275000Y-129950000D01*
D45*
X85000000Y-72100000D02*
X85000000Y-74000000D01*
X75500000Y-51025000D02*
X69000000Y-51025000D01*
D46*
X79000000Y-58500000D02*
X78000000Y-59500000D01*
X118000000Y-46500000D02*
X120050000Y-44450000D01*
X85000000Y-75500000D02*
X83500000Y-77000000D01*
D45*
X76500000Y-51025000D02*
X76205000Y-51320000D01*
D44*
X87500000Y-54553122D02*
X89000000Y-56053122D01*
D45*
X76205000Y-51320000D02*
X75795000Y-51320000D01*
D46*
X74190000Y-77000000D02*
X72190000Y-79000000D01*
D45*
X127270000Y-63730000D02*
X121860000Y-63730000D01*
%TO.N,Net-(D1-K)*%
X122000000Y-89000000D02*
X129000000Y-89000000D01*
X120690000Y-87690000D02*
X122000000Y-89000000D01*
X120500000Y-84310000D02*
X120500000Y-87690000D01*
D46*
X120500000Y-87690000D02*
X120690000Y-87690000D01*
%TO.N,Net-(RSPKR1-SPKR+)*%
X79412500Y-93412500D02*
X72500000Y-86500000D01*
X81758500Y-93412500D02*
X79412500Y-93412500D01*
%TO.N,Net-(L_SPKR1-SPKR-)*%
X101500000Y-96500000D02*
X101310000Y-96310000D01*
X81758500Y-98903500D02*
X82677000Y-99695000D01*
X82036000Y-96310000D02*
X81758500Y-96587500D01*
X81758500Y-96587500D02*
X81758500Y-98903500D01*
X82677000Y-99695000D02*
X82550000Y-99695000D01*
%TO.N,Net-(L_SPKR1-SPKR+)*%
X101500000Y-93325000D02*
X100887000Y-93938000D01*
%TO.N,/Detect_Jack*%
X92690000Y-77500000D02*
X101935000Y-77500000D01*
X90690000Y-79500000D02*
X92690000Y-77500000D01*
X108485000Y-70950000D02*
X108485000Y-70000000D01*
X101935000Y-77500000D02*
X108485000Y-70950000D01*
%TO.N,/Gain*%
X112130000Y-61130000D02*
X114427000Y-63427000D01*
X114427000Y-67945000D02*
X115516000Y-69034000D01*
X115516000Y-69034000D02*
X115516000Y-93850500D01*
X114427000Y-63427000D02*
X114427000Y-67945000D01*
X115516000Y-93850500D02*
X114454000Y-94912500D01*
X94712500Y-95000000D02*
X114366500Y-95000000D01*
X114366500Y-95000000D02*
X114454000Y-94912500D01*
X110250000Y-61130000D02*
X112130000Y-61130000D01*
%TO.N,/DAC_LRC*%
X115916000Y-63416000D02*
X111090000Y-58590000D01*
X115916000Y-101070500D02*
X115916000Y-63416000D01*
X114454000Y-102532500D02*
X115916000Y-101070500D01*
X113813988Y-103172512D02*
X114454000Y-102532500D01*
X94712500Y-102620000D02*
X95265012Y-103172512D01*
X111090000Y-58590000D02*
X110250000Y-58590000D01*
%TO.N,/DAC_DIN*%
X113604501Y-98301999D02*
X114454000Y-97452500D01*
X117000000Y-103500000D02*
X115500000Y-105000000D01*
X95474499Y-98301999D02*
X113604501Y-98301999D01*
X113934314Y-105000000D02*
X112500000Y-103565686D01*
X94712500Y-97540000D02*
X95474499Y-98301999D01*
X117000000Y-61850000D02*
X117000000Y-103500000D01*
X111200000Y-56050000D02*
X117000000Y-61850000D01*
X115500000Y-105000000D02*
X113934314Y-105000000D01*
X110250000Y-56050000D02*
X111200000Y-56050000D01*
X112500000Y-103565686D02*
X112500000Y-99406500D01*
X112500000Y-99406500D02*
X114454000Y-97452500D01*
%TO.N,/DAC_BCLK*%
X113000000Y-103500000D02*
X114000000Y-104500000D01*
X113000000Y-101446500D02*
X113000000Y-103500000D01*
X113882775Y-99421275D02*
X114454000Y-99992500D01*
X111200000Y-57320000D02*
X110250000Y-57320000D01*
X94712500Y-100080000D02*
X95371225Y-99421275D01*
X116500000Y-62620000D02*
X111200000Y-57320000D01*
X114000000Y-104500000D02*
X115000000Y-104500000D01*
X116500000Y-103000000D02*
X116500000Y-62620000D01*
X114454000Y-99992500D02*
X113000000Y-101446500D01*
X115000000Y-104500000D02*
X116500000Y-103000000D01*
%TO.N,Net-(X1-IO7)*%
X115189000Y-63623314D02*
X115189000Y-67056000D01*
X110250000Y-59860000D02*
X111425686Y-59860000D01*
X110166000Y-59944000D02*
X110109000Y-59944000D01*
X111425686Y-59860000D02*
X115189000Y-63623314D01*
X110250000Y-59860000D02*
X110166000Y-59944000D01*
%TO.N,Net-(X1-IO21)*%
X98325000Y-72175000D02*
X98325000Y-70000000D01*
X85000000Y-80500000D02*
X90500000Y-75000000D01*
X85000000Y-106250000D02*
X85000000Y-80500000D01*
X90500000Y-75000000D02*
X95500000Y-75000000D01*
X91250000Y-112500000D02*
X85000000Y-106250000D01*
X95500000Y-75000000D02*
X98325000Y-72175000D01*
%TO.N,Net-(X1-IO16)*%
X108204000Y-63496000D02*
X108204000Y-63881000D01*
X110250000Y-62400000D02*
X109300000Y-62400000D01*
X109300000Y-62400000D02*
X108204000Y-63496000D01*
%TO.N,/Motor_Driver*%
X113500000Y-65000000D02*
X113440000Y-64940000D01*
X110250000Y-64940000D02*
X113440000Y-64940000D01*
D45*
%TO.N,Net-(Q1-S)*%
X121860000Y-66270000D02*
X121860000Y-75330000D01*
X121860000Y-75330000D02*
X120500000Y-76690000D01*
D46*
%TO.N,/HOME_BUTTON*%
X75330000Y-111950000D02*
X75440000Y-112060000D01*
X75690000Y-112310000D02*
X75550000Y-112170000D01*
X72275000Y-111950000D02*
X75000000Y-111950000D01*
X75690000Y-112310000D02*
X78380000Y-115000000D01*
X84000000Y-79500000D02*
X84000000Y-103500000D01*
X75000000Y-111950000D02*
X75330000Y-111950000D01*
X93500000Y-70000000D02*
X84000000Y-79500000D01*
X84000000Y-103500000D02*
X75750000Y-111750000D01*
X75550000Y-112170000D02*
X75550000Y-111950000D01*
X75440000Y-112060000D02*
X75690000Y-112310000D01*
X75000000Y-111950000D02*
X75550000Y-111950000D01*
X94515000Y-70000000D02*
X93500000Y-70000000D01*
X75550000Y-111950000D02*
X75750000Y-111750000D01*
X75750000Y-111750000D02*
X75440000Y-112060000D01*
%TO.N,/PLAY{slash}PAUSE BUTTON*%
X107215000Y-70785000D02*
X107215000Y-70000000D01*
X120725000Y-109750000D02*
X118060000Y-109750000D01*
X117310000Y-108310000D02*
X117310000Y-109000000D01*
X106000000Y-72000000D02*
X107215000Y-70785000D01*
X118000000Y-86500000D02*
X118000000Y-107620000D01*
X118060000Y-109750000D02*
X117310000Y-109000000D01*
X118000000Y-107620000D02*
X117310000Y-108310000D01*
%TO.N,/MENU_BUTTON*%
X117500000Y-121500000D02*
X111500000Y-115500000D01*
X111500000Y-109500000D02*
X111500000Y-108000000D01*
X86500000Y-80500000D02*
X89500000Y-77500000D01*
X120725000Y-127750000D02*
X120725000Y-124725000D01*
X88000000Y-106000000D02*
X86500000Y-104500000D01*
X91000000Y-76000000D02*
X96500000Y-76000000D01*
X109500000Y-106000000D02*
X88000000Y-106000000D01*
X120725000Y-124725000D02*
X117500000Y-121500000D01*
X95785000Y-71215000D02*
X95785000Y-70000000D01*
X89500000Y-77500000D02*
X91000000Y-76000000D01*
X95500000Y-72000000D02*
X95500000Y-71500000D01*
X111500000Y-115500000D02*
X111500000Y-109500000D01*
X111500000Y-108000000D02*
X109500000Y-106000000D01*
X95500000Y-71500000D02*
X95785000Y-71215000D01*
X86500000Y-104500000D02*
X86500000Y-80500000D01*
%TO.N,/BACK_BUTTON*%
X84500000Y-79565686D02*
X90065686Y-74000000D01*
X97055000Y-72445000D02*
X97055000Y-70000000D01*
X72275000Y-129950000D02*
X72550000Y-129950000D01*
X84500000Y-113000000D02*
X84500000Y-79565686D01*
X78500000Y-119000000D02*
X84500000Y-113000000D01*
X78500000Y-124000000D02*
X78500000Y-119000000D01*
X72550000Y-129950000D02*
X78500000Y-124000000D01*
X95500000Y-74000000D02*
X97055000Y-72445000D01*
X90065686Y-74000000D02*
X95500000Y-74000000D01*
%TO.N,/BOOT_SEL*%
X62750000Y-76250000D02*
X69250000Y-76250000D01*
X79810000Y-79000000D02*
X80000000Y-79000000D01*
X91750000Y-68750000D02*
X92750000Y-68750000D01*
X91250000Y-69250000D02*
X91750000Y-68750000D01*
%TO.N,/R_Chanel_Select*%
X89000000Y-95310000D02*
X91850000Y-92460000D01*
X91850000Y-92460000D02*
X94712500Y-92460000D01*
%TO.N,/SPI_MISO*%
X100865000Y-67365000D02*
X100865000Y-70000000D01*
X100500000Y-67000000D02*
X100865000Y-67365000D01*
%TO.N,/SPI_MOSI*%
X103000000Y-67000000D02*
X103000000Y-67500000D01*
X103000000Y-67500000D02*
X103405000Y-67905000D01*
X103405000Y-67905000D02*
X103405000Y-70000000D01*
%TO.N,/SPI_SCK*%
X102135000Y-68135000D02*
X102135000Y-70000000D01*
X102000000Y-68000000D02*
X102135000Y-68135000D01*
%TO.N,/TFT_CS*%
X93990000Y-53510000D02*
X94000000Y-53500000D01*
X92750000Y-53510000D02*
X93990000Y-53510000D01*
%TO.N,/SCREEN_BRIGHTNESS*%
X110250000Y-63670000D02*
X112500000Y-63670000D01*
X112500000Y-63670000D02*
X112670000Y-63670000D01*
%TO.N,/TFT_DC*%
X135500000Y-57960000D02*
X135500000Y-58000000D01*
X105945000Y-62555000D02*
X105945000Y-70000000D01*
X106250000Y-62250000D02*
X105945000Y-62555000D01*
%TO.N,/SD_CS*%
X61840000Y-50047000D02*
X62937000Y-48950000D01*
X89780000Y-54780000D02*
X92750000Y-54780000D01*
X61840000Y-60500000D02*
X61840000Y-50047000D01*
X62937000Y-48950000D02*
X83950000Y-48950000D01*
X83950000Y-48950000D02*
X89780000Y-54780000D01*
%TO.N,Net-(SW6-B)*%
X107150000Y-53350000D02*
X107150000Y-64150000D01*
X109000000Y-66000000D02*
X109510000Y-66000000D01*
X109720000Y-66210000D02*
X110250000Y-66210000D01*
X107150000Y-64150000D02*
X109000000Y-66000000D01*
X107500000Y-53000000D02*
X107150000Y-53350000D01*
X109510000Y-66000000D02*
X109720000Y-66210000D01*
%TO.N,Net-(U1-CB)*%
X73820000Y-52500000D02*
X74000000Y-52500000D01*
X74783000Y-53283000D02*
X74783000Y-54422000D01*
X74000000Y-52500000D02*
X74783000Y-53283000D01*
%TO.N,Net-(U1-SW)*%
X73180000Y-52500000D02*
X73000000Y-52500000D01*
D48*
X72283000Y-54422000D02*
X69447000Y-54422000D01*
D46*
X69447000Y-54422000D02*
X69000000Y-53975000D01*
X73000000Y-52500000D02*
X72283000Y-53217000D01*
X72283000Y-53217000D02*
X72283000Y-54422000D01*
%TO.N,Net-(U1-FB)*%
X78000000Y-57000000D02*
X75461000Y-57000000D01*
X78500000Y-57500000D02*
X78000000Y-57000000D01*
X78000000Y-57000000D02*
X78000000Y-56500000D01*
X75461000Y-57000000D02*
X74783000Y-56322000D01*
%TD*%
%TA.AperFunction,Conductor*%
%TO.N,GND*%
G36*
X77443039Y-52019685D02*
G01*
X77488794Y-52072489D01*
X77500000Y-52124000D01*
X77500000Y-55927735D01*
X77480315Y-55994774D01*
X77467919Y-56010158D01*
X77464550Y-56014547D01*
X77464549Y-56014549D01*
X77372302Y-56134767D01*
X77372300Y-56134770D01*
X77314313Y-56274763D01*
X77314313Y-56274764D01*
X77312085Y-56291687D01*
X77283817Y-56355584D01*
X77225492Y-56394054D01*
X77189146Y-56399500D01*
X76124000Y-56399500D01*
X76056961Y-56379815D01*
X76011206Y-56327011D01*
X76000000Y-56275500D01*
X76000000Y-56000000D01*
X75995069Y-56000000D01*
X75928030Y-55980315D01*
X75882275Y-55927511D01*
X75878887Y-55919333D01*
X75877091Y-55914517D01*
X75867803Y-55889617D01*
X75862820Y-55819926D01*
X75867804Y-55802951D01*
X75876598Y-55779371D01*
X75882999Y-55719844D01*
X75883000Y-55719827D01*
X75883000Y-55622000D01*
X75725107Y-55622000D01*
X75658068Y-55602315D01*
X75650796Y-55597267D01*
X75625331Y-55578204D01*
X75625328Y-55578202D01*
X75490482Y-55527908D01*
X75490483Y-55527908D01*
X75430883Y-55521501D01*
X75430881Y-55521500D01*
X75430873Y-55521500D01*
X75430864Y-55521500D01*
X74135129Y-55521500D01*
X74135123Y-55521501D01*
X74075516Y-55527908D01*
X73940671Y-55578202D01*
X73940668Y-55578204D01*
X73915204Y-55597267D01*
X73849739Y-55621684D01*
X73840893Y-55622000D01*
X73683000Y-55622000D01*
X73683000Y-55719844D01*
X73689401Y-55779372D01*
X73689403Y-55779379D01*
X73698195Y-55802952D01*
X73703179Y-55872644D01*
X73698196Y-55889615D01*
X73688909Y-55914516D01*
X73688908Y-55914517D01*
X73685520Y-55946035D01*
X73682501Y-55974123D01*
X73682500Y-55974136D01*
X73682500Y-56669870D01*
X73682501Y-56669876D01*
X73688908Y-56729483D01*
X73739202Y-56864328D01*
X73739206Y-56864335D01*
X73825452Y-56979544D01*
X73825455Y-56979547D01*
X73940664Y-57065793D01*
X73940671Y-57065797D01*
X73985618Y-57082561D01*
X74075517Y-57116091D01*
X74135127Y-57122500D01*
X74682901Y-57122499D01*
X74749940Y-57142183D01*
X74770582Y-57158818D01*
X75092284Y-57480520D01*
X75229215Y-57559577D01*
X75381943Y-57600501D01*
X75381946Y-57600501D01*
X75547654Y-57600501D01*
X75547670Y-57600500D01*
X77689146Y-57600500D01*
X77756185Y-57620185D01*
X77801940Y-57672989D01*
X77812085Y-57708313D01*
X77814313Y-57725235D01*
X77872300Y-57865230D01*
X77872302Y-57865233D01*
X77969497Y-57991900D01*
X77968213Y-57992884D01*
X77997166Y-58045907D01*
X78000000Y-58072265D01*
X78000000Y-58599402D01*
X77980315Y-58666441D01*
X77963681Y-58687083D01*
X77787584Y-58863181D01*
X77726261Y-58896666D01*
X77699903Y-58899500D01*
X70124000Y-58899500D01*
X70056961Y-58879815D01*
X70011206Y-58827011D01*
X70000000Y-58775500D01*
X70000000Y-57624000D01*
X70019685Y-57556961D01*
X70072489Y-57511206D01*
X70124000Y-57500000D01*
X72000000Y-57500000D01*
X72000000Y-57334944D01*
X72019685Y-57267905D01*
X72072489Y-57222150D01*
X72141647Y-57212206D01*
X72148192Y-57213327D01*
X72194306Y-57222500D01*
X72194309Y-57222500D01*
X72371693Y-57222500D01*
X72371694Y-57222499D01*
X72545666Y-57187894D01*
X72680756Y-57131937D01*
X72728209Y-57122499D01*
X72930871Y-57122499D01*
X72930872Y-57122499D01*
X72990483Y-57116091D01*
X73125331Y-57065796D01*
X73240546Y-56979546D01*
X73326796Y-56864331D01*
X73377091Y-56729483D01*
X73383500Y-56669873D01*
X73383499Y-55974128D01*
X73377091Y-55914517D01*
X73368070Y-55890333D01*
X73363085Y-55820644D01*
X73368066Y-55803677D01*
X73377091Y-55779483D01*
X73383500Y-55719873D01*
X73383499Y-55024128D01*
X73377091Y-54964517D01*
X73368070Y-54940333D01*
X73363085Y-54870644D01*
X73368066Y-54853677D01*
X73377091Y-54829483D01*
X73383500Y-54769873D01*
X73383499Y-54123999D01*
X73403183Y-54056961D01*
X73455987Y-54011206D01*
X73507499Y-54000000D01*
X73558500Y-54000000D01*
X73625539Y-54019685D01*
X73671294Y-54072489D01*
X73682500Y-54124000D01*
X73682500Y-54769870D01*
X73682501Y-54769876D01*
X73688908Y-54829481D01*
X73698196Y-54854383D01*
X73703179Y-54924074D01*
X73698196Y-54941044D01*
X73689402Y-54964623D01*
X73689401Y-54964624D01*
X73683000Y-55024155D01*
X73683000Y-55122000D01*
X73840893Y-55122000D01*
X73907932Y-55141685D01*
X73915204Y-55146733D01*
X73940668Y-55165795D01*
X73940671Y-55165797D01*
X74075517Y-55216091D01*
X74075516Y-55216091D01*
X74082444Y-55216835D01*
X74135127Y-55222500D01*
X75430872Y-55222499D01*
X75490483Y-55216091D01*
X75625331Y-55165796D01*
X75650796Y-55146733D01*
X75716261Y-55122316D01*
X75725107Y-55122000D01*
X75883000Y-55122000D01*
X75883831Y-55121168D01*
X75902685Y-55056961D01*
X75955489Y-55011206D01*
X75998053Y-55001946D01*
X76000000Y-55000000D01*
X76000000Y-52853999D01*
X76019685Y-52786960D01*
X76072489Y-52741205D01*
X76124000Y-52729999D01*
X76139324Y-52729999D01*
X76256628Y-52714557D01*
X76256633Y-52714555D01*
X76402585Y-52654100D01*
X76527924Y-52557924D01*
X76624100Y-52432586D01*
X76684554Y-52286634D01*
X76684555Y-52286630D01*
X76699999Y-52169330D01*
X76700000Y-52169316D01*
X76700000Y-52124000D01*
X76719685Y-52056961D01*
X76772489Y-52011206D01*
X76824000Y-52000000D01*
X77376000Y-52000000D01*
X77443039Y-52019685D01*
G37*
%TD.AperFunction*%
%TD*%
M02*
