%TF.GenerationSoftware,KiCad,Pcbnew,8.0.3*%
%TF.CreationDate,2024-08-23T11:34:52-06:00*%
%TF.ProjectId,MP3,4d50332e-6b69-4636-9164-5f7063625858,rev?*%
%TF.SameCoordinates,Original*%
%TF.FileFunction,Legend,Top*%
%TF.FilePolarity,Positive*%
%FSLAX46Y46*%
G04 Gerber Fmt 4.6, Leading zero omitted, Abs format (unit mm)*
G04 Created by KiCad (PCBNEW 8.0.3) date 2024-08-23 11:34:52*
%MOMM*%
%LPD*%
G01*
G04 APERTURE LIST*
%ADD10C,0.100000*%
%ADD11C,0.150000*%
%ADD12C,0.120000*%
%ADD13C,0.127000*%
%ADD14C,0.050000*%
G04 APERTURE END LIST*
D10*
X169220000Y-27193300D02*
X169220000Y-44953300D01*
X145410000Y-44953300D02*
X145400000Y-27173300D01*
X145400000Y-27173300D02*
X169220000Y-27193300D01*
X154586265Y-35888100D02*
X154729122Y-35935719D01*
X154729122Y-35935719D02*
X154967217Y-35935719D01*
X154967217Y-35935719D02*
X155062455Y-35888100D01*
X155062455Y-35888100D02*
X155110074Y-35840480D01*
X155110074Y-35840480D02*
X155157693Y-35745242D01*
X155157693Y-35745242D02*
X155157693Y-35650004D01*
X155157693Y-35650004D02*
X155110074Y-35554766D01*
X155110074Y-35554766D02*
X155062455Y-35507147D01*
X155062455Y-35507147D02*
X154967217Y-35459528D01*
X154967217Y-35459528D02*
X154776741Y-35411909D01*
X154776741Y-35411909D02*
X154681503Y-35364290D01*
X154681503Y-35364290D02*
X154633884Y-35316671D01*
X154633884Y-35316671D02*
X154586265Y-35221433D01*
X154586265Y-35221433D02*
X154586265Y-35126195D01*
X154586265Y-35126195D02*
X154633884Y-35030957D01*
X154633884Y-35030957D02*
X154681503Y-34983338D01*
X154681503Y-34983338D02*
X154776741Y-34935719D01*
X154776741Y-34935719D02*
X155014836Y-34935719D01*
X155014836Y-34935719D02*
X155157693Y-34983338D01*
X155586265Y-35935719D02*
X155586265Y-34935719D01*
X155586265Y-34935719D02*
X155824360Y-34935719D01*
X155824360Y-34935719D02*
X155967217Y-34983338D01*
X155967217Y-34983338D02*
X156062455Y-35078576D01*
X156062455Y-35078576D02*
X156110074Y-35173814D01*
X156110074Y-35173814D02*
X156157693Y-35364290D01*
X156157693Y-35364290D02*
X156157693Y-35507147D01*
X156157693Y-35507147D02*
X156110074Y-35697623D01*
X156110074Y-35697623D02*
X156062455Y-35792861D01*
X156062455Y-35792861D02*
X155967217Y-35888100D01*
X155967217Y-35888100D02*
X155824360Y-35935719D01*
X155824360Y-35935719D02*
X155586265Y-35935719D01*
X157919598Y-35840480D02*
X157871979Y-35888100D01*
X157871979Y-35888100D02*
X157729122Y-35935719D01*
X157729122Y-35935719D02*
X157633884Y-35935719D01*
X157633884Y-35935719D02*
X157491027Y-35888100D01*
X157491027Y-35888100D02*
X157395789Y-35792861D01*
X157395789Y-35792861D02*
X157348170Y-35697623D01*
X157348170Y-35697623D02*
X157300551Y-35507147D01*
X157300551Y-35507147D02*
X157300551Y-35364290D01*
X157300551Y-35364290D02*
X157348170Y-35173814D01*
X157348170Y-35173814D02*
X157395789Y-35078576D01*
X157395789Y-35078576D02*
X157491027Y-34983338D01*
X157491027Y-34983338D02*
X157633884Y-34935719D01*
X157633884Y-34935719D02*
X157729122Y-34935719D01*
X157729122Y-34935719D02*
X157871979Y-34983338D01*
X157871979Y-34983338D02*
X157919598Y-35030957D01*
X158776741Y-35935719D02*
X158776741Y-35411909D01*
X158776741Y-35411909D02*
X158729122Y-35316671D01*
X158729122Y-35316671D02*
X158633884Y-35269052D01*
X158633884Y-35269052D02*
X158443408Y-35269052D01*
X158443408Y-35269052D02*
X158348170Y-35316671D01*
X158776741Y-35888100D02*
X158681503Y-35935719D01*
X158681503Y-35935719D02*
X158443408Y-35935719D01*
X158443408Y-35935719D02*
X158348170Y-35888100D01*
X158348170Y-35888100D02*
X158300551Y-35792861D01*
X158300551Y-35792861D02*
X158300551Y-35697623D01*
X158300551Y-35697623D02*
X158348170Y-35602385D01*
X158348170Y-35602385D02*
X158443408Y-35554766D01*
X158443408Y-35554766D02*
X158681503Y-35554766D01*
X158681503Y-35554766D02*
X158776741Y-35507147D01*
X159252932Y-35935719D02*
X159252932Y-35269052D01*
X159252932Y-35459528D02*
X159300551Y-35364290D01*
X159300551Y-35364290D02*
X159348170Y-35316671D01*
X159348170Y-35316671D02*
X159443408Y-35269052D01*
X159443408Y-35269052D02*
X159538646Y-35269052D01*
X160300551Y-35935719D02*
X160300551Y-34935719D01*
X160300551Y-35888100D02*
X160205313Y-35935719D01*
X160205313Y-35935719D02*
X160014837Y-35935719D01*
X160014837Y-35935719D02*
X159919599Y-35888100D01*
X159919599Y-35888100D02*
X159871980Y-35840480D01*
X159871980Y-35840480D02*
X159824361Y-35745242D01*
X159824361Y-35745242D02*
X159824361Y-35459528D01*
X159824361Y-35459528D02*
X159871980Y-35364290D01*
X159871980Y-35364290D02*
X159919599Y-35316671D01*
X159919599Y-35316671D02*
X160014837Y-35269052D01*
X160014837Y-35269052D02*
X160205313Y-35269052D01*
X160205313Y-35269052D02*
X160300551Y-35316671D01*
D11*
X114793333Y-39228119D02*
X114460000Y-38751928D01*
X114221905Y-39228119D02*
X114221905Y-38228119D01*
X114221905Y-38228119D02*
X114602857Y-38228119D01*
X114602857Y-38228119D02*
X114698095Y-38275738D01*
X114698095Y-38275738D02*
X114745714Y-38323357D01*
X114745714Y-38323357D02*
X114793333Y-38418595D01*
X114793333Y-38418595D02*
X114793333Y-38561452D01*
X114793333Y-38561452D02*
X114745714Y-38656690D01*
X114745714Y-38656690D02*
X114698095Y-38704309D01*
X114698095Y-38704309D02*
X114602857Y-38751928D01*
X114602857Y-38751928D02*
X114221905Y-38751928D01*
X115126667Y-38228119D02*
X115745714Y-38228119D01*
X115745714Y-38228119D02*
X115412381Y-38609071D01*
X115412381Y-38609071D02*
X115555238Y-38609071D01*
X115555238Y-38609071D02*
X115650476Y-38656690D01*
X115650476Y-38656690D02*
X115698095Y-38704309D01*
X115698095Y-38704309D02*
X115745714Y-38799547D01*
X115745714Y-38799547D02*
X115745714Y-39037642D01*
X115745714Y-39037642D02*
X115698095Y-39132880D01*
X115698095Y-39132880D02*
X115650476Y-39180500D01*
X115650476Y-39180500D02*
X115555238Y-39228119D01*
X115555238Y-39228119D02*
X115269524Y-39228119D01*
X115269524Y-39228119D02*
X115174286Y-39180500D01*
X115174286Y-39180500D02*
X115126667Y-39132880D01*
X131303333Y-39228119D02*
X130970000Y-38751928D01*
X130731905Y-39228119D02*
X130731905Y-38228119D01*
X130731905Y-38228119D02*
X131112857Y-38228119D01*
X131112857Y-38228119D02*
X131208095Y-38275738D01*
X131208095Y-38275738D02*
X131255714Y-38323357D01*
X131255714Y-38323357D02*
X131303333Y-38418595D01*
X131303333Y-38418595D02*
X131303333Y-38561452D01*
X131303333Y-38561452D02*
X131255714Y-38656690D01*
X131255714Y-38656690D02*
X131208095Y-38704309D01*
X131208095Y-38704309D02*
X131112857Y-38751928D01*
X131112857Y-38751928D02*
X130731905Y-38751928D01*
X132160476Y-38561452D02*
X132160476Y-39228119D01*
X131922381Y-38180500D02*
X131684286Y-38894785D01*
X131684286Y-38894785D02*
X132303333Y-38894785D01*
X123534048Y-131253119D02*
X124153095Y-131253119D01*
X124153095Y-131253119D02*
X123819762Y-131634071D01*
X123819762Y-131634071D02*
X123962619Y-131634071D01*
X123962619Y-131634071D02*
X124057857Y-131681690D01*
X124057857Y-131681690D02*
X124105476Y-131729309D01*
X124105476Y-131729309D02*
X124153095Y-131824547D01*
X124153095Y-131824547D02*
X124153095Y-132062642D01*
X124153095Y-132062642D02*
X124105476Y-132157880D01*
X124105476Y-132157880D02*
X124057857Y-132205500D01*
X124057857Y-132205500D02*
X123962619Y-132253119D01*
X123962619Y-132253119D02*
X123676905Y-132253119D01*
X123676905Y-132253119D02*
X123581667Y-132205500D01*
X123581667Y-132205500D02*
X123534048Y-132157880D01*
X124581667Y-132157880D02*
X124629286Y-132205500D01*
X124629286Y-132205500D02*
X124581667Y-132253119D01*
X124581667Y-132253119D02*
X124534048Y-132205500D01*
X124534048Y-132205500D02*
X124581667Y-132157880D01*
X124581667Y-132157880D02*
X124581667Y-132253119D01*
X125534047Y-131253119D02*
X125057857Y-131253119D01*
X125057857Y-131253119D02*
X125010238Y-131729309D01*
X125010238Y-131729309D02*
X125057857Y-131681690D01*
X125057857Y-131681690D02*
X125153095Y-131634071D01*
X125153095Y-131634071D02*
X125391190Y-131634071D01*
X125391190Y-131634071D02*
X125486428Y-131681690D01*
X125486428Y-131681690D02*
X125534047Y-131729309D01*
X125534047Y-131729309D02*
X125581666Y-131824547D01*
X125581666Y-131824547D02*
X125581666Y-132062642D01*
X125581666Y-132062642D02*
X125534047Y-132157880D01*
X125534047Y-132157880D02*
X125486428Y-132205500D01*
X125486428Y-132205500D02*
X125391190Y-132253119D01*
X125391190Y-132253119D02*
X125153095Y-132253119D01*
X125153095Y-132253119D02*
X125057857Y-132205500D01*
X125057857Y-132205500D02*
X125010238Y-132157880D01*
X126010238Y-132253119D02*
X126010238Y-131586452D01*
X126010238Y-131681690D02*
X126057857Y-131634071D01*
X126057857Y-131634071D02*
X126153095Y-131586452D01*
X126153095Y-131586452D02*
X126295952Y-131586452D01*
X126295952Y-131586452D02*
X126391190Y-131634071D01*
X126391190Y-131634071D02*
X126438809Y-131729309D01*
X126438809Y-131729309D02*
X126438809Y-132253119D01*
X126438809Y-131729309D02*
X126486428Y-131634071D01*
X126486428Y-131634071D02*
X126581666Y-131586452D01*
X126581666Y-131586452D02*
X126724523Y-131586452D01*
X126724523Y-131586452D02*
X126819762Y-131634071D01*
X126819762Y-131634071D02*
X126867381Y-131729309D01*
X126867381Y-131729309D02*
X126867381Y-132253119D01*
X127343571Y-132253119D02*
X127343571Y-131586452D01*
X127343571Y-131681690D02*
X127391190Y-131634071D01*
X127391190Y-131634071D02*
X127486428Y-131586452D01*
X127486428Y-131586452D02*
X127629285Y-131586452D01*
X127629285Y-131586452D02*
X127724523Y-131634071D01*
X127724523Y-131634071D02*
X127772142Y-131729309D01*
X127772142Y-131729309D02*
X127772142Y-132253119D01*
X127772142Y-131729309D02*
X127819761Y-131634071D01*
X127819761Y-131634071D02*
X127914999Y-131586452D01*
X127914999Y-131586452D02*
X128057856Y-131586452D01*
X128057856Y-131586452D02*
X128153095Y-131634071D01*
X128153095Y-131634071D02*
X128200714Y-131729309D01*
X128200714Y-131729309D02*
X128200714Y-132253119D01*
X114793333Y-30338119D02*
X114460000Y-29861928D01*
X114221905Y-30338119D02*
X114221905Y-29338119D01*
X114221905Y-29338119D02*
X114602857Y-29338119D01*
X114602857Y-29338119D02*
X114698095Y-29385738D01*
X114698095Y-29385738D02*
X114745714Y-29433357D01*
X114745714Y-29433357D02*
X114793333Y-29528595D01*
X114793333Y-29528595D02*
X114793333Y-29671452D01*
X114793333Y-29671452D02*
X114745714Y-29766690D01*
X114745714Y-29766690D02*
X114698095Y-29814309D01*
X114698095Y-29814309D02*
X114602857Y-29861928D01*
X114602857Y-29861928D02*
X114221905Y-29861928D01*
X115745714Y-30338119D02*
X115174286Y-30338119D01*
X115460000Y-30338119D02*
X115460000Y-29338119D01*
X115460000Y-29338119D02*
X115364762Y-29480976D01*
X115364762Y-29480976D02*
X115269524Y-29576214D01*
X115269524Y-29576214D02*
X115174286Y-29623833D01*
D10*
X113676025Y-72398606D02*
X114247453Y-72398606D01*
X113961739Y-73398606D02*
X113961739Y-72398606D01*
X114342692Y-73493844D02*
X115104596Y-73493844D01*
X115914120Y-73303367D02*
X115866501Y-73350987D01*
X115866501Y-73350987D02*
X115723644Y-73398606D01*
X115723644Y-73398606D02*
X115628406Y-73398606D01*
X115628406Y-73398606D02*
X115485549Y-73350987D01*
X115485549Y-73350987D02*
X115390311Y-73255748D01*
X115390311Y-73255748D02*
X115342692Y-73160510D01*
X115342692Y-73160510D02*
X115295073Y-72970034D01*
X115295073Y-72970034D02*
X115295073Y-72827177D01*
X115295073Y-72827177D02*
X115342692Y-72636701D01*
X115342692Y-72636701D02*
X115390311Y-72541463D01*
X115390311Y-72541463D02*
X115485549Y-72446225D01*
X115485549Y-72446225D02*
X115628406Y-72398606D01*
X115628406Y-72398606D02*
X115723644Y-72398606D01*
X115723644Y-72398606D02*
X115866501Y-72446225D01*
X115866501Y-72446225D02*
X115914120Y-72493844D01*
X116818882Y-73398606D02*
X116342692Y-73398606D01*
X116342692Y-73398606D02*
X116342692Y-72398606D01*
X117152216Y-73398606D02*
X117152216Y-72398606D01*
X117723644Y-73398606D02*
X117295073Y-72827177D01*
X117723644Y-72398606D02*
X117152216Y-72970034D01*
X113676025Y-80023606D02*
X114247453Y-80023606D01*
X113961739Y-81023606D02*
X113961739Y-80023606D01*
X114342692Y-81118844D02*
X115104596Y-81118844D01*
X115342692Y-81023606D02*
X115342692Y-80023606D01*
X115342692Y-80023606D02*
X115580787Y-80023606D01*
X115580787Y-80023606D02*
X115723644Y-80071225D01*
X115723644Y-80071225D02*
X115818882Y-80166463D01*
X115818882Y-80166463D02*
X115866501Y-80261701D01*
X115866501Y-80261701D02*
X115914120Y-80452177D01*
X115914120Y-80452177D02*
X115914120Y-80595034D01*
X115914120Y-80595034D02*
X115866501Y-80785510D01*
X115866501Y-80785510D02*
X115818882Y-80880748D01*
X115818882Y-80880748D02*
X115723644Y-80975987D01*
X115723644Y-80975987D02*
X115580787Y-81023606D01*
X115580787Y-81023606D02*
X115342692Y-81023606D01*
X116533168Y-80023606D02*
X116723644Y-80023606D01*
X116723644Y-80023606D02*
X116818882Y-80071225D01*
X116818882Y-80071225D02*
X116914120Y-80166463D01*
X116914120Y-80166463D02*
X116961739Y-80356939D01*
X116961739Y-80356939D02*
X116961739Y-80690272D01*
X116961739Y-80690272D02*
X116914120Y-80880748D01*
X116914120Y-80880748D02*
X116818882Y-80975987D01*
X116818882Y-80975987D02*
X116723644Y-81023606D01*
X116723644Y-81023606D02*
X116533168Y-81023606D01*
X116533168Y-81023606D02*
X116437930Y-80975987D01*
X116437930Y-80975987D02*
X116342692Y-80880748D01*
X116342692Y-80880748D02*
X116295073Y-80690272D01*
X116295073Y-80690272D02*
X116295073Y-80356939D01*
X116295073Y-80356939D02*
X116342692Y-80166463D01*
X116342692Y-80166463D02*
X116437930Y-80071225D01*
X116437930Y-80071225D02*
X116533168Y-80023606D01*
X113676025Y-82048606D02*
X114247453Y-82048606D01*
X113961739Y-83048606D02*
X113961739Y-82048606D01*
X114342692Y-83143844D02*
X115104596Y-83143844D01*
X115342692Y-83048606D02*
X115342692Y-82048606D01*
X116390310Y-83048606D02*
X116056977Y-82572415D01*
X115818882Y-83048606D02*
X115818882Y-82048606D01*
X115818882Y-82048606D02*
X116199834Y-82048606D01*
X116199834Y-82048606D02*
X116295072Y-82096225D01*
X116295072Y-82096225D02*
X116342691Y-82143844D01*
X116342691Y-82143844D02*
X116390310Y-82239082D01*
X116390310Y-82239082D02*
X116390310Y-82381939D01*
X116390310Y-82381939D02*
X116342691Y-82477177D01*
X116342691Y-82477177D02*
X116295072Y-82524796D01*
X116295072Y-82524796D02*
X116199834Y-82572415D01*
X116199834Y-82572415D02*
X115818882Y-82572415D01*
X117485548Y-83143844D02*
X117390310Y-83096225D01*
X117390310Y-83096225D02*
X117295072Y-83000987D01*
X117295072Y-83000987D02*
X117152215Y-82858129D01*
X117152215Y-82858129D02*
X117056977Y-82810510D01*
X117056977Y-82810510D02*
X116961739Y-82810510D01*
X117009358Y-83048606D02*
X116914120Y-83000987D01*
X116914120Y-83000987D02*
X116818882Y-82905748D01*
X116818882Y-82905748D02*
X116771263Y-82715272D01*
X116771263Y-82715272D02*
X116771263Y-82381939D01*
X116771263Y-82381939D02*
X116818882Y-82191463D01*
X116818882Y-82191463D02*
X116914120Y-82096225D01*
X116914120Y-82096225D02*
X117009358Y-82048606D01*
X117009358Y-82048606D02*
X117199834Y-82048606D01*
X117199834Y-82048606D02*
X117295072Y-82096225D01*
X117295072Y-82096225D02*
X117390310Y-82191463D01*
X117390310Y-82191463D02*
X117437929Y-82381939D01*
X117437929Y-82381939D02*
X117437929Y-82715272D01*
X117437929Y-82715272D02*
X117390310Y-82905748D01*
X117390310Y-82905748D02*
X117295072Y-83000987D01*
X117295072Y-83000987D02*
X117199834Y-83048606D01*
X117199834Y-83048606D02*
X117009358Y-83048606D01*
X114365310Y-58123606D02*
X114031977Y-57647415D01*
X113793882Y-58123606D02*
X113793882Y-57123606D01*
X113793882Y-57123606D02*
X114174834Y-57123606D01*
X114174834Y-57123606D02*
X114270072Y-57171225D01*
X114270072Y-57171225D02*
X114317691Y-57218844D01*
X114317691Y-57218844D02*
X114365310Y-57314082D01*
X114365310Y-57314082D02*
X114365310Y-57456939D01*
X114365310Y-57456939D02*
X114317691Y-57552177D01*
X114317691Y-57552177D02*
X114270072Y-57599796D01*
X114270072Y-57599796D02*
X114174834Y-57647415D01*
X114174834Y-57647415D02*
X113793882Y-57647415D01*
X114793882Y-57599796D02*
X115127215Y-57599796D01*
X115270072Y-58123606D02*
X114793882Y-58123606D01*
X114793882Y-58123606D02*
X114793882Y-57123606D01*
X114793882Y-57123606D02*
X115270072Y-57123606D01*
X115651025Y-58075987D02*
X115793882Y-58123606D01*
X115793882Y-58123606D02*
X116031977Y-58123606D01*
X116031977Y-58123606D02*
X116127215Y-58075987D01*
X116127215Y-58075987D02*
X116174834Y-58028367D01*
X116174834Y-58028367D02*
X116222453Y-57933129D01*
X116222453Y-57933129D02*
X116222453Y-57837891D01*
X116222453Y-57837891D02*
X116174834Y-57742653D01*
X116174834Y-57742653D02*
X116127215Y-57695034D01*
X116127215Y-57695034D02*
X116031977Y-57647415D01*
X116031977Y-57647415D02*
X115841501Y-57599796D01*
X115841501Y-57599796D02*
X115746263Y-57552177D01*
X115746263Y-57552177D02*
X115698644Y-57504558D01*
X115698644Y-57504558D02*
X115651025Y-57409320D01*
X115651025Y-57409320D02*
X115651025Y-57314082D01*
X115651025Y-57314082D02*
X115698644Y-57218844D01*
X115698644Y-57218844D02*
X115746263Y-57171225D01*
X115746263Y-57171225D02*
X115841501Y-57123606D01*
X115841501Y-57123606D02*
X116079596Y-57123606D01*
X116079596Y-57123606D02*
X116222453Y-57171225D01*
X116651025Y-57599796D02*
X116984358Y-57599796D01*
X117127215Y-58123606D02*
X116651025Y-58123606D01*
X116651025Y-58123606D02*
X116651025Y-57123606D01*
X116651025Y-57123606D02*
X117127215Y-57123606D01*
X117412930Y-57123606D02*
X117984358Y-57123606D01*
X117698644Y-58123606D02*
X117698644Y-57123606D01*
X113676025Y-74923606D02*
X114247453Y-74923606D01*
X113961739Y-75923606D02*
X113961739Y-74923606D01*
X114342692Y-76018844D02*
X115104596Y-76018844D01*
X115914120Y-75828367D02*
X115866501Y-75875987D01*
X115866501Y-75875987D02*
X115723644Y-75923606D01*
X115723644Y-75923606D02*
X115628406Y-75923606D01*
X115628406Y-75923606D02*
X115485549Y-75875987D01*
X115485549Y-75875987D02*
X115390311Y-75780748D01*
X115390311Y-75780748D02*
X115342692Y-75685510D01*
X115342692Y-75685510D02*
X115295073Y-75495034D01*
X115295073Y-75495034D02*
X115295073Y-75352177D01*
X115295073Y-75352177D02*
X115342692Y-75161701D01*
X115342692Y-75161701D02*
X115390311Y-75066463D01*
X115390311Y-75066463D02*
X115485549Y-74971225D01*
X115485549Y-74971225D02*
X115628406Y-74923606D01*
X115628406Y-74923606D02*
X115723644Y-74923606D01*
X115723644Y-74923606D02*
X115866501Y-74971225D01*
X115866501Y-74971225D02*
X115914120Y-75018844D01*
X116295073Y-75875987D02*
X116437930Y-75923606D01*
X116437930Y-75923606D02*
X116676025Y-75923606D01*
X116676025Y-75923606D02*
X116771263Y-75875987D01*
X116771263Y-75875987D02*
X116818882Y-75828367D01*
X116818882Y-75828367D02*
X116866501Y-75733129D01*
X116866501Y-75733129D02*
X116866501Y-75637891D01*
X116866501Y-75637891D02*
X116818882Y-75542653D01*
X116818882Y-75542653D02*
X116771263Y-75495034D01*
X116771263Y-75495034D02*
X116676025Y-75447415D01*
X116676025Y-75447415D02*
X116485549Y-75399796D01*
X116485549Y-75399796D02*
X116390311Y-75352177D01*
X116390311Y-75352177D02*
X116342692Y-75304558D01*
X116342692Y-75304558D02*
X116295073Y-75209320D01*
X116295073Y-75209320D02*
X116295073Y-75114082D01*
X116295073Y-75114082D02*
X116342692Y-75018844D01*
X116342692Y-75018844D02*
X116390311Y-74971225D01*
X116390311Y-74971225D02*
X116485549Y-74923606D01*
X116485549Y-74923606D02*
X116723644Y-74923606D01*
X116723644Y-74923606D02*
X116866501Y-74971225D01*
D11*
X113733920Y-49646006D02*
X114067253Y-50646006D01*
X114067253Y-50646006D02*
X114400586Y-49646006D01*
X115305348Y-50550767D02*
X115257729Y-50598387D01*
X115257729Y-50598387D02*
X115114872Y-50646006D01*
X115114872Y-50646006D02*
X115019634Y-50646006D01*
X115019634Y-50646006D02*
X114876777Y-50598387D01*
X114876777Y-50598387D02*
X114781539Y-50503148D01*
X114781539Y-50503148D02*
X114733920Y-50407910D01*
X114733920Y-50407910D02*
X114686301Y-50217434D01*
X114686301Y-50217434D02*
X114686301Y-50074577D01*
X114686301Y-50074577D02*
X114733920Y-49884101D01*
X114733920Y-49884101D02*
X114781539Y-49788863D01*
X114781539Y-49788863D02*
X114876777Y-49693625D01*
X114876777Y-49693625D02*
X115019634Y-49646006D01*
X115019634Y-49646006D02*
X115114872Y-49646006D01*
X115114872Y-49646006D02*
X115257729Y-49693625D01*
X115257729Y-49693625D02*
X115305348Y-49741244D01*
X116305348Y-50550767D02*
X116257729Y-50598387D01*
X116257729Y-50598387D02*
X116114872Y-50646006D01*
X116114872Y-50646006D02*
X116019634Y-50646006D01*
X116019634Y-50646006D02*
X115876777Y-50598387D01*
X115876777Y-50598387D02*
X115781539Y-50503148D01*
X115781539Y-50503148D02*
X115733920Y-50407910D01*
X115733920Y-50407910D02*
X115686301Y-50217434D01*
X115686301Y-50217434D02*
X115686301Y-50074577D01*
X115686301Y-50074577D02*
X115733920Y-49884101D01*
X115733920Y-49884101D02*
X115781539Y-49788863D01*
X115781539Y-49788863D02*
X115876777Y-49693625D01*
X115876777Y-49693625D02*
X116019634Y-49646006D01*
X116019634Y-49646006D02*
X116114872Y-49646006D01*
X116114872Y-49646006D02*
X116257729Y-49693625D01*
X116257729Y-49693625D02*
X116305348Y-49741244D01*
D10*
X113771263Y-65700987D02*
X113914120Y-65748606D01*
X113914120Y-65748606D02*
X114152215Y-65748606D01*
X114152215Y-65748606D02*
X114247453Y-65700987D01*
X114247453Y-65700987D02*
X114295072Y-65653367D01*
X114295072Y-65653367D02*
X114342691Y-65558129D01*
X114342691Y-65558129D02*
X114342691Y-65462891D01*
X114342691Y-65462891D02*
X114295072Y-65367653D01*
X114295072Y-65367653D02*
X114247453Y-65320034D01*
X114247453Y-65320034D02*
X114152215Y-65272415D01*
X114152215Y-65272415D02*
X113961739Y-65224796D01*
X113961739Y-65224796D02*
X113866501Y-65177177D01*
X113866501Y-65177177D02*
X113818882Y-65129558D01*
X113818882Y-65129558D02*
X113771263Y-65034320D01*
X113771263Y-65034320D02*
X113771263Y-64939082D01*
X113771263Y-64939082D02*
X113818882Y-64843844D01*
X113818882Y-64843844D02*
X113866501Y-64796225D01*
X113866501Y-64796225D02*
X113961739Y-64748606D01*
X113961739Y-64748606D02*
X114199834Y-64748606D01*
X114199834Y-64748606D02*
X114342691Y-64796225D01*
X115342691Y-65653367D02*
X115295072Y-65700987D01*
X115295072Y-65700987D02*
X115152215Y-65748606D01*
X115152215Y-65748606D02*
X115056977Y-65748606D01*
X115056977Y-65748606D02*
X114914120Y-65700987D01*
X114914120Y-65700987D02*
X114818882Y-65605748D01*
X114818882Y-65605748D02*
X114771263Y-65510510D01*
X114771263Y-65510510D02*
X114723644Y-65320034D01*
X114723644Y-65320034D02*
X114723644Y-65177177D01*
X114723644Y-65177177D02*
X114771263Y-64986701D01*
X114771263Y-64986701D02*
X114818882Y-64891463D01*
X114818882Y-64891463D02*
X114914120Y-64796225D01*
X114914120Y-64796225D02*
X115056977Y-64748606D01*
X115056977Y-64748606D02*
X115152215Y-64748606D01*
X115152215Y-64748606D02*
X115295072Y-64796225D01*
X115295072Y-64796225D02*
X115342691Y-64843844D01*
X115771263Y-65748606D02*
X115771263Y-64748606D01*
X116342691Y-65748606D02*
X115914120Y-65177177D01*
X116342691Y-64748606D02*
X115771263Y-65320034D01*
X178779597Y-68242653D02*
X178922454Y-68290272D01*
X178922454Y-68290272D02*
X179160549Y-68290272D01*
X179160549Y-68290272D02*
X179255787Y-68242653D01*
X179255787Y-68242653D02*
X179303406Y-68195033D01*
X179303406Y-68195033D02*
X179351025Y-68099795D01*
X179351025Y-68099795D02*
X179351025Y-68004557D01*
X179351025Y-68004557D02*
X179303406Y-67909319D01*
X179303406Y-67909319D02*
X179255787Y-67861700D01*
X179255787Y-67861700D02*
X179160549Y-67814081D01*
X179160549Y-67814081D02*
X178970073Y-67766462D01*
X178970073Y-67766462D02*
X178874835Y-67718843D01*
X178874835Y-67718843D02*
X178827216Y-67671224D01*
X178827216Y-67671224D02*
X178779597Y-67575986D01*
X178779597Y-67575986D02*
X178779597Y-67480748D01*
X178779597Y-67480748D02*
X178827216Y-67385510D01*
X178827216Y-67385510D02*
X178874835Y-67337891D01*
X178874835Y-67337891D02*
X178970073Y-67290272D01*
X178970073Y-67290272D02*
X179208168Y-67290272D01*
X179208168Y-67290272D02*
X179351025Y-67337891D01*
X179779597Y-68290272D02*
X179779597Y-67290272D01*
X179779597Y-67290272D02*
X180017692Y-67290272D01*
X180017692Y-67290272D02*
X180160549Y-67337891D01*
X180160549Y-67337891D02*
X180255787Y-67433129D01*
X180255787Y-67433129D02*
X180303406Y-67528367D01*
X180303406Y-67528367D02*
X180351025Y-67718843D01*
X180351025Y-67718843D02*
X180351025Y-67861700D01*
X180351025Y-67861700D02*
X180303406Y-68052176D01*
X180303406Y-68052176D02*
X180255787Y-68147414D01*
X180255787Y-68147414D02*
X180160549Y-68242653D01*
X180160549Y-68242653D02*
X180017692Y-68290272D01*
X180017692Y-68290272D02*
X179779597Y-68290272D01*
X180541502Y-68385510D02*
X181303406Y-68385510D01*
X181541502Y-68290272D02*
X181541502Y-67290272D01*
X181541502Y-67290272D02*
X181874835Y-68004557D01*
X181874835Y-68004557D02*
X182208168Y-67290272D01*
X182208168Y-67290272D02*
X182208168Y-68290272D01*
X182684359Y-68290272D02*
X182684359Y-67290272D01*
X183112930Y-68242653D02*
X183255787Y-68290272D01*
X183255787Y-68290272D02*
X183493882Y-68290272D01*
X183493882Y-68290272D02*
X183589120Y-68242653D01*
X183589120Y-68242653D02*
X183636739Y-68195033D01*
X183636739Y-68195033D02*
X183684358Y-68099795D01*
X183684358Y-68099795D02*
X183684358Y-68004557D01*
X183684358Y-68004557D02*
X183636739Y-67909319D01*
X183636739Y-67909319D02*
X183589120Y-67861700D01*
X183589120Y-67861700D02*
X183493882Y-67814081D01*
X183493882Y-67814081D02*
X183303406Y-67766462D01*
X183303406Y-67766462D02*
X183208168Y-67718843D01*
X183208168Y-67718843D02*
X183160549Y-67671224D01*
X183160549Y-67671224D02*
X183112930Y-67575986D01*
X183112930Y-67575986D02*
X183112930Y-67480748D01*
X183112930Y-67480748D02*
X183160549Y-67385510D01*
X183160549Y-67385510D02*
X183208168Y-67337891D01*
X183208168Y-67337891D02*
X183303406Y-67290272D01*
X183303406Y-67290272D02*
X183541501Y-67290272D01*
X183541501Y-67290272D02*
X183684358Y-67337891D01*
X184303406Y-67290272D02*
X184493882Y-67290272D01*
X184493882Y-67290272D02*
X184589120Y-67337891D01*
X184589120Y-67337891D02*
X184684358Y-67433129D01*
X184684358Y-67433129D02*
X184731977Y-67623605D01*
X184731977Y-67623605D02*
X184731977Y-67956938D01*
X184731977Y-67956938D02*
X184684358Y-68147414D01*
X184684358Y-68147414D02*
X184589120Y-68242653D01*
X184589120Y-68242653D02*
X184493882Y-68290272D01*
X184493882Y-68290272D02*
X184303406Y-68290272D01*
X184303406Y-68290272D02*
X184208168Y-68242653D01*
X184208168Y-68242653D02*
X184112930Y-68147414D01*
X184112930Y-68147414D02*
X184065311Y-67956938D01*
X184065311Y-67956938D02*
X184065311Y-67623605D01*
X184065311Y-67623605D02*
X184112930Y-67433129D01*
X184112930Y-67433129D02*
X184208168Y-67337891D01*
X184208168Y-67337891D02*
X184303406Y-67290272D01*
X114292691Y-52071225D02*
X114197453Y-52023606D01*
X114197453Y-52023606D02*
X114054596Y-52023606D01*
X114054596Y-52023606D02*
X113911739Y-52071225D01*
X113911739Y-52071225D02*
X113816501Y-52166463D01*
X113816501Y-52166463D02*
X113768882Y-52261701D01*
X113768882Y-52261701D02*
X113721263Y-52452177D01*
X113721263Y-52452177D02*
X113721263Y-52595034D01*
X113721263Y-52595034D02*
X113768882Y-52785510D01*
X113768882Y-52785510D02*
X113816501Y-52880748D01*
X113816501Y-52880748D02*
X113911739Y-52975987D01*
X113911739Y-52975987D02*
X114054596Y-53023606D01*
X114054596Y-53023606D02*
X114149834Y-53023606D01*
X114149834Y-53023606D02*
X114292691Y-52975987D01*
X114292691Y-52975987D02*
X114340310Y-52928367D01*
X114340310Y-52928367D02*
X114340310Y-52595034D01*
X114340310Y-52595034D02*
X114149834Y-52595034D01*
X114768882Y-53023606D02*
X114768882Y-52023606D01*
X114768882Y-52023606D02*
X115340310Y-53023606D01*
X115340310Y-53023606D02*
X115340310Y-52023606D01*
X115816501Y-53023606D02*
X115816501Y-52023606D01*
X115816501Y-52023606D02*
X116054596Y-52023606D01*
X116054596Y-52023606D02*
X116197453Y-52071225D01*
X116197453Y-52071225D02*
X116292691Y-52166463D01*
X116292691Y-52166463D02*
X116340310Y-52261701D01*
X116340310Y-52261701D02*
X116387929Y-52452177D01*
X116387929Y-52452177D02*
X116387929Y-52595034D01*
X116387929Y-52595034D02*
X116340310Y-52785510D01*
X116340310Y-52785510D02*
X116292691Y-52880748D01*
X116292691Y-52880748D02*
X116197453Y-52975987D01*
X116197453Y-52975987D02*
X116054596Y-53023606D01*
X116054596Y-53023606D02*
X115816501Y-53023606D01*
X178779597Y-65709320D02*
X178922454Y-65756939D01*
X178922454Y-65756939D02*
X179160549Y-65756939D01*
X179160549Y-65756939D02*
X179255787Y-65709320D01*
X179255787Y-65709320D02*
X179303406Y-65661700D01*
X179303406Y-65661700D02*
X179351025Y-65566462D01*
X179351025Y-65566462D02*
X179351025Y-65471224D01*
X179351025Y-65471224D02*
X179303406Y-65375986D01*
X179303406Y-65375986D02*
X179255787Y-65328367D01*
X179255787Y-65328367D02*
X179160549Y-65280748D01*
X179160549Y-65280748D02*
X178970073Y-65233129D01*
X178970073Y-65233129D02*
X178874835Y-65185510D01*
X178874835Y-65185510D02*
X178827216Y-65137891D01*
X178827216Y-65137891D02*
X178779597Y-65042653D01*
X178779597Y-65042653D02*
X178779597Y-64947415D01*
X178779597Y-64947415D02*
X178827216Y-64852177D01*
X178827216Y-64852177D02*
X178874835Y-64804558D01*
X178874835Y-64804558D02*
X178970073Y-64756939D01*
X178970073Y-64756939D02*
X179208168Y-64756939D01*
X179208168Y-64756939D02*
X179351025Y-64804558D01*
X179779597Y-65756939D02*
X179779597Y-64756939D01*
X179779597Y-64756939D02*
X180017692Y-64756939D01*
X180017692Y-64756939D02*
X180160549Y-64804558D01*
X180160549Y-64804558D02*
X180255787Y-64899796D01*
X180255787Y-64899796D02*
X180303406Y-64995034D01*
X180303406Y-64995034D02*
X180351025Y-65185510D01*
X180351025Y-65185510D02*
X180351025Y-65328367D01*
X180351025Y-65328367D02*
X180303406Y-65518843D01*
X180303406Y-65518843D02*
X180255787Y-65614081D01*
X180255787Y-65614081D02*
X180160549Y-65709320D01*
X180160549Y-65709320D02*
X180017692Y-65756939D01*
X180017692Y-65756939D02*
X179779597Y-65756939D01*
X180541502Y-65852177D02*
X181303406Y-65852177D01*
X181541502Y-65756939D02*
X181541502Y-64756939D01*
X181541502Y-64756939D02*
X181874835Y-65471224D01*
X181874835Y-65471224D02*
X182208168Y-64756939D01*
X182208168Y-64756939D02*
X182208168Y-65756939D01*
X182874835Y-64756939D02*
X183065311Y-64756939D01*
X183065311Y-64756939D02*
X183160549Y-64804558D01*
X183160549Y-64804558D02*
X183255787Y-64899796D01*
X183255787Y-64899796D02*
X183303406Y-65090272D01*
X183303406Y-65090272D02*
X183303406Y-65423605D01*
X183303406Y-65423605D02*
X183255787Y-65614081D01*
X183255787Y-65614081D02*
X183160549Y-65709320D01*
X183160549Y-65709320D02*
X183065311Y-65756939D01*
X183065311Y-65756939D02*
X182874835Y-65756939D01*
X182874835Y-65756939D02*
X182779597Y-65709320D01*
X182779597Y-65709320D02*
X182684359Y-65614081D01*
X182684359Y-65614081D02*
X182636740Y-65423605D01*
X182636740Y-65423605D02*
X182636740Y-65090272D01*
X182636740Y-65090272D02*
X182684359Y-64899796D01*
X182684359Y-64899796D02*
X182779597Y-64804558D01*
X182779597Y-64804558D02*
X182874835Y-64756939D01*
X183684359Y-65709320D02*
X183827216Y-65756939D01*
X183827216Y-65756939D02*
X184065311Y-65756939D01*
X184065311Y-65756939D02*
X184160549Y-65709320D01*
X184160549Y-65709320D02*
X184208168Y-65661700D01*
X184208168Y-65661700D02*
X184255787Y-65566462D01*
X184255787Y-65566462D02*
X184255787Y-65471224D01*
X184255787Y-65471224D02*
X184208168Y-65375986D01*
X184208168Y-65375986D02*
X184160549Y-65328367D01*
X184160549Y-65328367D02*
X184065311Y-65280748D01*
X184065311Y-65280748D02*
X183874835Y-65233129D01*
X183874835Y-65233129D02*
X183779597Y-65185510D01*
X183779597Y-65185510D02*
X183731978Y-65137891D01*
X183731978Y-65137891D02*
X183684359Y-65042653D01*
X183684359Y-65042653D02*
X183684359Y-64947415D01*
X183684359Y-64947415D02*
X183731978Y-64852177D01*
X183731978Y-64852177D02*
X183779597Y-64804558D01*
X183779597Y-64804558D02*
X183874835Y-64756939D01*
X183874835Y-64756939D02*
X184112930Y-64756939D01*
X184112930Y-64756939D02*
X184255787Y-64804558D01*
X184684359Y-65756939D02*
X184684359Y-64756939D01*
X114295072Y-68298606D02*
X113818882Y-68298606D01*
X113818882Y-68298606D02*
X113818882Y-67298606D01*
X114628406Y-67774796D02*
X114961739Y-67774796D01*
X115104596Y-68298606D02*
X114628406Y-68298606D01*
X114628406Y-68298606D02*
X114628406Y-67298606D01*
X114628406Y-67298606D02*
X115104596Y-67298606D01*
X115533168Y-68298606D02*
X115533168Y-67298606D01*
X115533168Y-67298606D02*
X115771263Y-67298606D01*
X115771263Y-67298606D02*
X115914120Y-67346225D01*
X115914120Y-67346225D02*
X116009358Y-67441463D01*
X116009358Y-67441463D02*
X116056977Y-67536701D01*
X116056977Y-67536701D02*
X116104596Y-67727177D01*
X116104596Y-67727177D02*
X116104596Y-67870034D01*
X116104596Y-67870034D02*
X116056977Y-68060510D01*
X116056977Y-68060510D02*
X116009358Y-68155748D01*
X116009358Y-68155748D02*
X115914120Y-68250987D01*
X115914120Y-68250987D02*
X115771263Y-68298606D01*
X115771263Y-68298606D02*
X115533168Y-68298606D01*
X114390310Y-55478367D02*
X114342691Y-55525987D01*
X114342691Y-55525987D02*
X114199834Y-55573606D01*
X114199834Y-55573606D02*
X114104596Y-55573606D01*
X114104596Y-55573606D02*
X113961739Y-55525987D01*
X113961739Y-55525987D02*
X113866501Y-55430748D01*
X113866501Y-55430748D02*
X113818882Y-55335510D01*
X113818882Y-55335510D02*
X113771263Y-55145034D01*
X113771263Y-55145034D02*
X113771263Y-55002177D01*
X113771263Y-55002177D02*
X113818882Y-54811701D01*
X113818882Y-54811701D02*
X113866501Y-54716463D01*
X113866501Y-54716463D02*
X113961739Y-54621225D01*
X113961739Y-54621225D02*
X114104596Y-54573606D01*
X114104596Y-54573606D02*
X114199834Y-54573606D01*
X114199834Y-54573606D02*
X114342691Y-54621225D01*
X114342691Y-54621225D02*
X114390310Y-54668844D01*
X114771263Y-55525987D02*
X114914120Y-55573606D01*
X114914120Y-55573606D02*
X115152215Y-55573606D01*
X115152215Y-55573606D02*
X115247453Y-55525987D01*
X115247453Y-55525987D02*
X115295072Y-55478367D01*
X115295072Y-55478367D02*
X115342691Y-55383129D01*
X115342691Y-55383129D02*
X115342691Y-55287891D01*
X115342691Y-55287891D02*
X115295072Y-55192653D01*
X115295072Y-55192653D02*
X115247453Y-55145034D01*
X115247453Y-55145034D02*
X115152215Y-55097415D01*
X115152215Y-55097415D02*
X114961739Y-55049796D01*
X114961739Y-55049796D02*
X114866501Y-55002177D01*
X114866501Y-55002177D02*
X114818882Y-54954558D01*
X114818882Y-54954558D02*
X114771263Y-54859320D01*
X114771263Y-54859320D02*
X114771263Y-54764082D01*
X114771263Y-54764082D02*
X114818882Y-54668844D01*
X114818882Y-54668844D02*
X114866501Y-54621225D01*
X114866501Y-54621225D02*
X114961739Y-54573606D01*
X114961739Y-54573606D02*
X115199834Y-54573606D01*
X115199834Y-54573606D02*
X115342691Y-54621225D01*
X179446263Y-70775987D02*
X179589120Y-70823606D01*
X179589120Y-70823606D02*
X179827215Y-70823606D01*
X179827215Y-70823606D02*
X179922453Y-70775987D01*
X179922453Y-70775987D02*
X179970072Y-70728367D01*
X179970072Y-70728367D02*
X180017691Y-70633129D01*
X180017691Y-70633129D02*
X180017691Y-70537891D01*
X180017691Y-70537891D02*
X179970072Y-70442653D01*
X179970072Y-70442653D02*
X179922453Y-70395034D01*
X179922453Y-70395034D02*
X179827215Y-70347415D01*
X179827215Y-70347415D02*
X179636739Y-70299796D01*
X179636739Y-70299796D02*
X179541501Y-70252177D01*
X179541501Y-70252177D02*
X179493882Y-70204558D01*
X179493882Y-70204558D02*
X179446263Y-70109320D01*
X179446263Y-70109320D02*
X179446263Y-70014082D01*
X179446263Y-70014082D02*
X179493882Y-69918844D01*
X179493882Y-69918844D02*
X179541501Y-69871225D01*
X179541501Y-69871225D02*
X179636739Y-69823606D01*
X179636739Y-69823606D02*
X179874834Y-69823606D01*
X179874834Y-69823606D02*
X180017691Y-69871225D01*
X180446263Y-70823606D02*
X180446263Y-69823606D01*
X180446263Y-69823606D02*
X180684358Y-69823606D01*
X180684358Y-69823606D02*
X180827215Y-69871225D01*
X180827215Y-69871225D02*
X180922453Y-69966463D01*
X180922453Y-69966463D02*
X180970072Y-70061701D01*
X180970072Y-70061701D02*
X181017691Y-70252177D01*
X181017691Y-70252177D02*
X181017691Y-70395034D01*
X181017691Y-70395034D02*
X180970072Y-70585510D01*
X180970072Y-70585510D02*
X180922453Y-70680748D01*
X180922453Y-70680748D02*
X180827215Y-70775987D01*
X180827215Y-70775987D02*
X180684358Y-70823606D01*
X180684358Y-70823606D02*
X180446263Y-70823606D01*
X181208168Y-70918844D02*
X181970072Y-70918844D01*
X182160549Y-70775987D02*
X182303406Y-70823606D01*
X182303406Y-70823606D02*
X182541501Y-70823606D01*
X182541501Y-70823606D02*
X182636739Y-70775987D01*
X182636739Y-70775987D02*
X182684358Y-70728367D01*
X182684358Y-70728367D02*
X182731977Y-70633129D01*
X182731977Y-70633129D02*
X182731977Y-70537891D01*
X182731977Y-70537891D02*
X182684358Y-70442653D01*
X182684358Y-70442653D02*
X182636739Y-70395034D01*
X182636739Y-70395034D02*
X182541501Y-70347415D01*
X182541501Y-70347415D02*
X182351025Y-70299796D01*
X182351025Y-70299796D02*
X182255787Y-70252177D01*
X182255787Y-70252177D02*
X182208168Y-70204558D01*
X182208168Y-70204558D02*
X182160549Y-70109320D01*
X182160549Y-70109320D02*
X182160549Y-70014082D01*
X182160549Y-70014082D02*
X182208168Y-69918844D01*
X182208168Y-69918844D02*
X182255787Y-69871225D01*
X182255787Y-69871225D02*
X182351025Y-69823606D01*
X182351025Y-69823606D02*
X182589120Y-69823606D01*
X182589120Y-69823606D02*
X182731977Y-69871225D01*
X183731977Y-70728367D02*
X183684358Y-70775987D01*
X183684358Y-70775987D02*
X183541501Y-70823606D01*
X183541501Y-70823606D02*
X183446263Y-70823606D01*
X183446263Y-70823606D02*
X183303406Y-70775987D01*
X183303406Y-70775987D02*
X183208168Y-70680748D01*
X183208168Y-70680748D02*
X183160549Y-70585510D01*
X183160549Y-70585510D02*
X183112930Y-70395034D01*
X183112930Y-70395034D02*
X183112930Y-70252177D01*
X183112930Y-70252177D02*
X183160549Y-70061701D01*
X183160549Y-70061701D02*
X183208168Y-69966463D01*
X183208168Y-69966463D02*
X183303406Y-69871225D01*
X183303406Y-69871225D02*
X183446263Y-69823606D01*
X183446263Y-69823606D02*
X183541501Y-69823606D01*
X183541501Y-69823606D02*
X183684358Y-69871225D01*
X183684358Y-69871225D02*
X183731977Y-69918844D01*
X184160549Y-70823606D02*
X184160549Y-69823606D01*
X184731977Y-70823606D02*
X184303406Y-70252177D01*
X184731977Y-69823606D02*
X184160549Y-70395034D01*
X113818882Y-60673606D02*
X113818882Y-59673606D01*
X113818882Y-59673606D02*
X114056977Y-59673606D01*
X114056977Y-59673606D02*
X114199834Y-59721225D01*
X114199834Y-59721225D02*
X114295072Y-59816463D01*
X114295072Y-59816463D02*
X114342691Y-59911701D01*
X114342691Y-59911701D02*
X114390310Y-60102177D01*
X114390310Y-60102177D02*
X114390310Y-60245034D01*
X114390310Y-60245034D02*
X114342691Y-60435510D01*
X114342691Y-60435510D02*
X114295072Y-60530748D01*
X114295072Y-60530748D02*
X114199834Y-60625987D01*
X114199834Y-60625987D02*
X114056977Y-60673606D01*
X114056977Y-60673606D02*
X113818882Y-60673606D01*
X115390310Y-60578367D02*
X115342691Y-60625987D01*
X115342691Y-60625987D02*
X115199834Y-60673606D01*
X115199834Y-60673606D02*
X115104596Y-60673606D01*
X115104596Y-60673606D02*
X114961739Y-60625987D01*
X114961739Y-60625987D02*
X114866501Y-60530748D01*
X114866501Y-60530748D02*
X114818882Y-60435510D01*
X114818882Y-60435510D02*
X114771263Y-60245034D01*
X114771263Y-60245034D02*
X114771263Y-60102177D01*
X114771263Y-60102177D02*
X114818882Y-59911701D01*
X114818882Y-59911701D02*
X114866501Y-59816463D01*
X114866501Y-59816463D02*
X114961739Y-59721225D01*
X114961739Y-59721225D02*
X115104596Y-59673606D01*
X115104596Y-59673606D02*
X115199834Y-59673606D01*
X115199834Y-59673606D02*
X115342691Y-59721225D01*
X115342691Y-59721225D02*
X115390310Y-59768844D01*
X113676025Y-77498606D02*
X114247453Y-77498606D01*
X113961739Y-78498606D02*
X113961739Y-77498606D01*
X114342692Y-78593844D02*
X115104596Y-78593844D01*
X115342692Y-78498606D02*
X115342692Y-77498606D01*
X115342692Y-77498606D02*
X115580787Y-77498606D01*
X115580787Y-77498606D02*
X115723644Y-77546225D01*
X115723644Y-77546225D02*
X115818882Y-77641463D01*
X115818882Y-77641463D02*
X115866501Y-77736701D01*
X115866501Y-77736701D02*
X115914120Y-77927177D01*
X115914120Y-77927177D02*
X115914120Y-78070034D01*
X115914120Y-78070034D02*
X115866501Y-78260510D01*
X115866501Y-78260510D02*
X115818882Y-78355748D01*
X115818882Y-78355748D02*
X115723644Y-78450987D01*
X115723644Y-78450987D02*
X115580787Y-78498606D01*
X115580787Y-78498606D02*
X115342692Y-78498606D01*
X116342692Y-78498606D02*
X116342692Y-77498606D01*
X116818882Y-78498606D02*
X116818882Y-77498606D01*
X116818882Y-77498606D02*
X117390310Y-78498606D01*
X117390310Y-78498606D02*
X117390310Y-77498606D01*
X113771263Y-63200987D02*
X113914120Y-63248606D01*
X113914120Y-63248606D02*
X114152215Y-63248606D01*
X114152215Y-63248606D02*
X114247453Y-63200987D01*
X114247453Y-63200987D02*
X114295072Y-63153367D01*
X114295072Y-63153367D02*
X114342691Y-63058129D01*
X114342691Y-63058129D02*
X114342691Y-62962891D01*
X114342691Y-62962891D02*
X114295072Y-62867653D01*
X114295072Y-62867653D02*
X114247453Y-62820034D01*
X114247453Y-62820034D02*
X114152215Y-62772415D01*
X114152215Y-62772415D02*
X113961739Y-62724796D01*
X113961739Y-62724796D02*
X113866501Y-62677177D01*
X113866501Y-62677177D02*
X113818882Y-62629558D01*
X113818882Y-62629558D02*
X113771263Y-62534320D01*
X113771263Y-62534320D02*
X113771263Y-62439082D01*
X113771263Y-62439082D02*
X113818882Y-62343844D01*
X113818882Y-62343844D02*
X113866501Y-62296225D01*
X113866501Y-62296225D02*
X113961739Y-62248606D01*
X113961739Y-62248606D02*
X114199834Y-62248606D01*
X114199834Y-62248606D02*
X114342691Y-62296225D01*
X114771263Y-63248606D02*
X114771263Y-62248606D01*
X114771263Y-62248606D02*
X115009358Y-62248606D01*
X115009358Y-62248606D02*
X115152215Y-62296225D01*
X115152215Y-62296225D02*
X115247453Y-62391463D01*
X115247453Y-62391463D02*
X115295072Y-62486701D01*
X115295072Y-62486701D02*
X115342691Y-62677177D01*
X115342691Y-62677177D02*
X115342691Y-62820034D01*
X115342691Y-62820034D02*
X115295072Y-63010510D01*
X115295072Y-63010510D02*
X115247453Y-63105748D01*
X115247453Y-63105748D02*
X115152215Y-63200987D01*
X115152215Y-63200987D02*
X115009358Y-63248606D01*
X115009358Y-63248606D02*
X114771263Y-63248606D01*
X115771263Y-63248606D02*
X115771263Y-62248606D01*
X117295072Y-63629558D02*
X117247453Y-63581939D01*
X117247453Y-63581939D02*
X117152215Y-63439082D01*
X117152215Y-63439082D02*
X117104596Y-63343844D01*
X117104596Y-63343844D02*
X117056977Y-63200987D01*
X117056977Y-63200987D02*
X117009358Y-62962891D01*
X117009358Y-62962891D02*
X117009358Y-62772415D01*
X117009358Y-62772415D02*
X117056977Y-62534320D01*
X117056977Y-62534320D02*
X117104596Y-62391463D01*
X117104596Y-62391463D02*
X117152215Y-62296225D01*
X117152215Y-62296225D02*
X117247453Y-62153367D01*
X117247453Y-62153367D02*
X117295072Y-62105748D01*
X117676025Y-63248606D02*
X117676025Y-62248606D01*
X117676025Y-62248606D02*
X118009358Y-62962891D01*
X118009358Y-62962891D02*
X118342691Y-62248606D01*
X118342691Y-62248606D02*
X118342691Y-63248606D01*
X119009358Y-62248606D02*
X119199834Y-62248606D01*
X119199834Y-62248606D02*
X119295072Y-62296225D01*
X119295072Y-62296225D02*
X119390310Y-62391463D01*
X119390310Y-62391463D02*
X119437929Y-62581939D01*
X119437929Y-62581939D02*
X119437929Y-62915272D01*
X119437929Y-62915272D02*
X119390310Y-63105748D01*
X119390310Y-63105748D02*
X119295072Y-63200987D01*
X119295072Y-63200987D02*
X119199834Y-63248606D01*
X119199834Y-63248606D02*
X119009358Y-63248606D01*
X119009358Y-63248606D02*
X118914120Y-63200987D01*
X118914120Y-63200987D02*
X118818882Y-63105748D01*
X118818882Y-63105748D02*
X118771263Y-62915272D01*
X118771263Y-62915272D02*
X118771263Y-62581939D01*
X118771263Y-62581939D02*
X118818882Y-62391463D01*
X118818882Y-62391463D02*
X118914120Y-62296225D01*
X118914120Y-62296225D02*
X119009358Y-62248606D01*
X119818882Y-63200987D02*
X119961739Y-63248606D01*
X119961739Y-63248606D02*
X120199834Y-63248606D01*
X120199834Y-63248606D02*
X120295072Y-63200987D01*
X120295072Y-63200987D02*
X120342691Y-63153367D01*
X120342691Y-63153367D02*
X120390310Y-63058129D01*
X120390310Y-63058129D02*
X120390310Y-62962891D01*
X120390310Y-62962891D02*
X120342691Y-62867653D01*
X120342691Y-62867653D02*
X120295072Y-62820034D01*
X120295072Y-62820034D02*
X120199834Y-62772415D01*
X120199834Y-62772415D02*
X120009358Y-62724796D01*
X120009358Y-62724796D02*
X119914120Y-62677177D01*
X119914120Y-62677177D02*
X119866501Y-62629558D01*
X119866501Y-62629558D02*
X119818882Y-62534320D01*
X119818882Y-62534320D02*
X119818882Y-62439082D01*
X119818882Y-62439082D02*
X119866501Y-62343844D01*
X119866501Y-62343844D02*
X119914120Y-62296225D01*
X119914120Y-62296225D02*
X120009358Y-62248606D01*
X120009358Y-62248606D02*
X120247453Y-62248606D01*
X120247453Y-62248606D02*
X120390310Y-62296225D01*
X120818882Y-63248606D02*
X120818882Y-62248606D01*
X121199834Y-63629558D02*
X121247453Y-63581939D01*
X121247453Y-63581939D02*
X121342691Y-63439082D01*
X121342691Y-63439082D02*
X121390310Y-63343844D01*
X121390310Y-63343844D02*
X121437929Y-63200987D01*
X121437929Y-63200987D02*
X121485548Y-62962891D01*
X121485548Y-62962891D02*
X121485548Y-62772415D01*
X121485548Y-62772415D02*
X121437929Y-62534320D01*
X121437929Y-62534320D02*
X121390310Y-62391463D01*
X121390310Y-62391463D02*
X121342691Y-62296225D01*
X121342691Y-62296225D02*
X121247453Y-62153367D01*
X121247453Y-62153367D02*
X121199834Y-62105748D01*
X180446263Y-63175987D02*
X180589120Y-63223606D01*
X180589120Y-63223606D02*
X180827215Y-63223606D01*
X180827215Y-63223606D02*
X180922453Y-63175987D01*
X180922453Y-63175987D02*
X180970072Y-63128367D01*
X180970072Y-63128367D02*
X181017691Y-63033129D01*
X181017691Y-63033129D02*
X181017691Y-62937891D01*
X181017691Y-62937891D02*
X180970072Y-62842653D01*
X180970072Y-62842653D02*
X180922453Y-62795034D01*
X180922453Y-62795034D02*
X180827215Y-62747415D01*
X180827215Y-62747415D02*
X180636739Y-62699796D01*
X180636739Y-62699796D02*
X180541501Y-62652177D01*
X180541501Y-62652177D02*
X180493882Y-62604558D01*
X180493882Y-62604558D02*
X180446263Y-62509320D01*
X180446263Y-62509320D02*
X180446263Y-62414082D01*
X180446263Y-62414082D02*
X180493882Y-62318844D01*
X180493882Y-62318844D02*
X180541501Y-62271225D01*
X180541501Y-62271225D02*
X180636739Y-62223606D01*
X180636739Y-62223606D02*
X180874834Y-62223606D01*
X180874834Y-62223606D02*
X181017691Y-62271225D01*
X181446263Y-63223606D02*
X181446263Y-62223606D01*
X181446263Y-62223606D02*
X181684358Y-62223606D01*
X181684358Y-62223606D02*
X181827215Y-62271225D01*
X181827215Y-62271225D02*
X181922453Y-62366463D01*
X181922453Y-62366463D02*
X181970072Y-62461701D01*
X181970072Y-62461701D02*
X182017691Y-62652177D01*
X182017691Y-62652177D02*
X182017691Y-62795034D01*
X182017691Y-62795034D02*
X181970072Y-62985510D01*
X181970072Y-62985510D02*
X181922453Y-63080748D01*
X181922453Y-63080748D02*
X181827215Y-63175987D01*
X181827215Y-63175987D02*
X181684358Y-63223606D01*
X181684358Y-63223606D02*
X181446263Y-63223606D01*
X182208168Y-63318844D02*
X182970072Y-63318844D01*
X183779596Y-63128367D02*
X183731977Y-63175987D01*
X183731977Y-63175987D02*
X183589120Y-63223606D01*
X183589120Y-63223606D02*
X183493882Y-63223606D01*
X183493882Y-63223606D02*
X183351025Y-63175987D01*
X183351025Y-63175987D02*
X183255787Y-63080748D01*
X183255787Y-63080748D02*
X183208168Y-62985510D01*
X183208168Y-62985510D02*
X183160549Y-62795034D01*
X183160549Y-62795034D02*
X183160549Y-62652177D01*
X183160549Y-62652177D02*
X183208168Y-62461701D01*
X183208168Y-62461701D02*
X183255787Y-62366463D01*
X183255787Y-62366463D02*
X183351025Y-62271225D01*
X183351025Y-62271225D02*
X183493882Y-62223606D01*
X183493882Y-62223606D02*
X183589120Y-62223606D01*
X183589120Y-62223606D02*
X183731977Y-62271225D01*
X183731977Y-62271225D02*
X183779596Y-62318844D01*
X184160549Y-63175987D02*
X184303406Y-63223606D01*
X184303406Y-63223606D02*
X184541501Y-63223606D01*
X184541501Y-63223606D02*
X184636739Y-63175987D01*
X184636739Y-63175987D02*
X184684358Y-63128367D01*
X184684358Y-63128367D02*
X184731977Y-63033129D01*
X184731977Y-63033129D02*
X184731977Y-62937891D01*
X184731977Y-62937891D02*
X184684358Y-62842653D01*
X184684358Y-62842653D02*
X184636739Y-62795034D01*
X184636739Y-62795034D02*
X184541501Y-62747415D01*
X184541501Y-62747415D02*
X184351025Y-62699796D01*
X184351025Y-62699796D02*
X184255787Y-62652177D01*
X184255787Y-62652177D02*
X184208168Y-62604558D01*
X184208168Y-62604558D02*
X184160549Y-62509320D01*
X184160549Y-62509320D02*
X184160549Y-62414082D01*
X184160549Y-62414082D02*
X184208168Y-62318844D01*
X184208168Y-62318844D02*
X184255787Y-62271225D01*
X184255787Y-62271225D02*
X184351025Y-62223606D01*
X184351025Y-62223606D02*
X184589120Y-62223606D01*
X184589120Y-62223606D02*
X184731977Y-62271225D01*
X113771263Y-70800987D02*
X113914120Y-70848606D01*
X113914120Y-70848606D02*
X114152215Y-70848606D01*
X114152215Y-70848606D02*
X114247453Y-70800987D01*
X114247453Y-70800987D02*
X114295072Y-70753367D01*
X114295072Y-70753367D02*
X114342691Y-70658129D01*
X114342691Y-70658129D02*
X114342691Y-70562891D01*
X114342691Y-70562891D02*
X114295072Y-70467653D01*
X114295072Y-70467653D02*
X114247453Y-70420034D01*
X114247453Y-70420034D02*
X114152215Y-70372415D01*
X114152215Y-70372415D02*
X113961739Y-70324796D01*
X113961739Y-70324796D02*
X113866501Y-70277177D01*
X113866501Y-70277177D02*
X113818882Y-70229558D01*
X113818882Y-70229558D02*
X113771263Y-70134320D01*
X113771263Y-70134320D02*
X113771263Y-70039082D01*
X113771263Y-70039082D02*
X113818882Y-69943844D01*
X113818882Y-69943844D02*
X113866501Y-69896225D01*
X113866501Y-69896225D02*
X113961739Y-69848606D01*
X113961739Y-69848606D02*
X114199834Y-69848606D01*
X114199834Y-69848606D02*
X114342691Y-69896225D01*
X114771263Y-70848606D02*
X114771263Y-69848606D01*
X114771263Y-69848606D02*
X115009358Y-69848606D01*
X115009358Y-69848606D02*
X115152215Y-69896225D01*
X115152215Y-69896225D02*
X115247453Y-69991463D01*
X115247453Y-69991463D02*
X115295072Y-70086701D01*
X115295072Y-70086701D02*
X115342691Y-70277177D01*
X115342691Y-70277177D02*
X115342691Y-70420034D01*
X115342691Y-70420034D02*
X115295072Y-70610510D01*
X115295072Y-70610510D02*
X115247453Y-70705748D01*
X115247453Y-70705748D02*
X115152215Y-70800987D01*
X115152215Y-70800987D02*
X115009358Y-70848606D01*
X115009358Y-70848606D02*
X114771263Y-70848606D01*
X115961739Y-69848606D02*
X116152215Y-69848606D01*
X116152215Y-69848606D02*
X116247453Y-69896225D01*
X116247453Y-69896225D02*
X116342691Y-69991463D01*
X116342691Y-69991463D02*
X116390310Y-70181939D01*
X116390310Y-70181939D02*
X116390310Y-70515272D01*
X116390310Y-70515272D02*
X116342691Y-70705748D01*
X116342691Y-70705748D02*
X116247453Y-70800987D01*
X116247453Y-70800987D02*
X116152215Y-70848606D01*
X116152215Y-70848606D02*
X115961739Y-70848606D01*
X115961739Y-70848606D02*
X115866501Y-70800987D01*
X115866501Y-70800987D02*
X115771263Y-70705748D01*
X115771263Y-70705748D02*
X115723644Y-70515272D01*
X115723644Y-70515272D02*
X115723644Y-70181939D01*
X115723644Y-70181939D02*
X115771263Y-69991463D01*
X115771263Y-69991463D02*
X115866501Y-69896225D01*
X115866501Y-69896225D02*
X115961739Y-69848606D01*
X117866501Y-71229558D02*
X117818882Y-71181939D01*
X117818882Y-71181939D02*
X117723644Y-71039082D01*
X117723644Y-71039082D02*
X117676025Y-70943844D01*
X117676025Y-70943844D02*
X117628406Y-70800987D01*
X117628406Y-70800987D02*
X117580787Y-70562891D01*
X117580787Y-70562891D02*
X117580787Y-70372415D01*
X117580787Y-70372415D02*
X117628406Y-70134320D01*
X117628406Y-70134320D02*
X117676025Y-69991463D01*
X117676025Y-69991463D02*
X117723644Y-69896225D01*
X117723644Y-69896225D02*
X117818882Y-69753367D01*
X117818882Y-69753367D02*
X117866501Y-69705748D01*
X118247454Y-70848606D02*
X118247454Y-69848606D01*
X118247454Y-69848606D02*
X118580787Y-70562891D01*
X118580787Y-70562891D02*
X118914120Y-69848606D01*
X118914120Y-69848606D02*
X118914120Y-70848606D01*
X119390311Y-70848606D02*
X119390311Y-69848606D01*
X119818882Y-70800987D02*
X119961739Y-70848606D01*
X119961739Y-70848606D02*
X120199834Y-70848606D01*
X120199834Y-70848606D02*
X120295072Y-70800987D01*
X120295072Y-70800987D02*
X120342691Y-70753367D01*
X120342691Y-70753367D02*
X120390310Y-70658129D01*
X120390310Y-70658129D02*
X120390310Y-70562891D01*
X120390310Y-70562891D02*
X120342691Y-70467653D01*
X120342691Y-70467653D02*
X120295072Y-70420034D01*
X120295072Y-70420034D02*
X120199834Y-70372415D01*
X120199834Y-70372415D02*
X120009358Y-70324796D01*
X120009358Y-70324796D02*
X119914120Y-70277177D01*
X119914120Y-70277177D02*
X119866501Y-70229558D01*
X119866501Y-70229558D02*
X119818882Y-70134320D01*
X119818882Y-70134320D02*
X119818882Y-70039082D01*
X119818882Y-70039082D02*
X119866501Y-69943844D01*
X119866501Y-69943844D02*
X119914120Y-69896225D01*
X119914120Y-69896225D02*
X120009358Y-69848606D01*
X120009358Y-69848606D02*
X120247453Y-69848606D01*
X120247453Y-69848606D02*
X120390310Y-69896225D01*
X121009358Y-69848606D02*
X121199834Y-69848606D01*
X121199834Y-69848606D02*
X121295072Y-69896225D01*
X121295072Y-69896225D02*
X121390310Y-69991463D01*
X121390310Y-69991463D02*
X121437929Y-70181939D01*
X121437929Y-70181939D02*
X121437929Y-70515272D01*
X121437929Y-70515272D02*
X121390310Y-70705748D01*
X121390310Y-70705748D02*
X121295072Y-70800987D01*
X121295072Y-70800987D02*
X121199834Y-70848606D01*
X121199834Y-70848606D02*
X121009358Y-70848606D01*
X121009358Y-70848606D02*
X120914120Y-70800987D01*
X120914120Y-70800987D02*
X120818882Y-70705748D01*
X120818882Y-70705748D02*
X120771263Y-70515272D01*
X120771263Y-70515272D02*
X120771263Y-70181939D01*
X120771263Y-70181939D02*
X120818882Y-69991463D01*
X120818882Y-69991463D02*
X120914120Y-69896225D01*
X120914120Y-69896225D02*
X121009358Y-69848606D01*
X121771263Y-71229558D02*
X121818882Y-71181939D01*
X121818882Y-71181939D02*
X121914120Y-71039082D01*
X121914120Y-71039082D02*
X121961739Y-70943844D01*
X121961739Y-70943844D02*
X122009358Y-70800987D01*
X122009358Y-70800987D02*
X122056977Y-70562891D01*
X122056977Y-70562891D02*
X122056977Y-70372415D01*
X122056977Y-70372415D02*
X122009358Y-70134320D01*
X122009358Y-70134320D02*
X121961739Y-69991463D01*
X121961739Y-69991463D02*
X121914120Y-69896225D01*
X121914120Y-69896225D02*
X121818882Y-69753367D01*
X121818882Y-69753367D02*
X121771263Y-69705748D01*
D11*
X137041667Y-113675500D02*
X137184524Y-113723119D01*
X137184524Y-113723119D02*
X137422619Y-113723119D01*
X137422619Y-113723119D02*
X137517857Y-113675500D01*
X137517857Y-113675500D02*
X137565476Y-113627880D01*
X137565476Y-113627880D02*
X137613095Y-113532642D01*
X137613095Y-113532642D02*
X137613095Y-113437404D01*
X137613095Y-113437404D02*
X137565476Y-113342166D01*
X137565476Y-113342166D02*
X137517857Y-113294547D01*
X137517857Y-113294547D02*
X137422619Y-113246928D01*
X137422619Y-113246928D02*
X137232143Y-113199309D01*
X137232143Y-113199309D02*
X137136905Y-113151690D01*
X137136905Y-113151690D02*
X137089286Y-113104071D01*
X137089286Y-113104071D02*
X137041667Y-113008833D01*
X137041667Y-113008833D02*
X137041667Y-112913595D01*
X137041667Y-112913595D02*
X137089286Y-112818357D01*
X137089286Y-112818357D02*
X137136905Y-112770738D01*
X137136905Y-112770738D02*
X137232143Y-112723119D01*
X137232143Y-112723119D02*
X137470238Y-112723119D01*
X137470238Y-112723119D02*
X137613095Y-112770738D01*
X137946429Y-112723119D02*
X138184524Y-113723119D01*
X138184524Y-113723119D02*
X138375000Y-113008833D01*
X138375000Y-113008833D02*
X138565476Y-113723119D01*
X138565476Y-113723119D02*
X138803572Y-112723119D01*
X139136905Y-112818357D02*
X139184524Y-112770738D01*
X139184524Y-112770738D02*
X139279762Y-112723119D01*
X139279762Y-112723119D02*
X139517857Y-112723119D01*
X139517857Y-112723119D02*
X139613095Y-112770738D01*
X139613095Y-112770738D02*
X139660714Y-112818357D01*
X139660714Y-112818357D02*
X139708333Y-112913595D01*
X139708333Y-112913595D02*
X139708333Y-113008833D01*
X139708333Y-113008833D02*
X139660714Y-113151690D01*
X139660714Y-113151690D02*
X139089286Y-113723119D01*
X139089286Y-113723119D02*
X139708333Y-113723119D01*
X168951667Y-113675500D02*
X169094524Y-113723119D01*
X169094524Y-113723119D02*
X169332619Y-113723119D01*
X169332619Y-113723119D02*
X169427857Y-113675500D01*
X169427857Y-113675500D02*
X169475476Y-113627880D01*
X169475476Y-113627880D02*
X169523095Y-113532642D01*
X169523095Y-113532642D02*
X169523095Y-113437404D01*
X169523095Y-113437404D02*
X169475476Y-113342166D01*
X169475476Y-113342166D02*
X169427857Y-113294547D01*
X169427857Y-113294547D02*
X169332619Y-113246928D01*
X169332619Y-113246928D02*
X169142143Y-113199309D01*
X169142143Y-113199309D02*
X169046905Y-113151690D01*
X169046905Y-113151690D02*
X168999286Y-113104071D01*
X168999286Y-113104071D02*
X168951667Y-113008833D01*
X168951667Y-113008833D02*
X168951667Y-112913595D01*
X168951667Y-112913595D02*
X168999286Y-112818357D01*
X168999286Y-112818357D02*
X169046905Y-112770738D01*
X169046905Y-112770738D02*
X169142143Y-112723119D01*
X169142143Y-112723119D02*
X169380238Y-112723119D01*
X169380238Y-112723119D02*
X169523095Y-112770738D01*
X169856429Y-112723119D02*
X170094524Y-113723119D01*
X170094524Y-113723119D02*
X170285000Y-113008833D01*
X170285000Y-113008833D02*
X170475476Y-113723119D01*
X170475476Y-113723119D02*
X170713572Y-112723119D01*
X171523095Y-113056452D02*
X171523095Y-113723119D01*
X171285000Y-112675500D02*
X171046905Y-113389785D01*
X171046905Y-113389785D02*
X171665952Y-113389785D01*
X140296667Y-144420500D02*
X140439524Y-144468119D01*
X140439524Y-144468119D02*
X140677619Y-144468119D01*
X140677619Y-144468119D02*
X140772857Y-144420500D01*
X140772857Y-144420500D02*
X140820476Y-144372880D01*
X140820476Y-144372880D02*
X140868095Y-144277642D01*
X140868095Y-144277642D02*
X140868095Y-144182404D01*
X140868095Y-144182404D02*
X140820476Y-144087166D01*
X140820476Y-144087166D02*
X140772857Y-144039547D01*
X140772857Y-144039547D02*
X140677619Y-143991928D01*
X140677619Y-143991928D02*
X140487143Y-143944309D01*
X140487143Y-143944309D02*
X140391905Y-143896690D01*
X140391905Y-143896690D02*
X140344286Y-143849071D01*
X140344286Y-143849071D02*
X140296667Y-143753833D01*
X140296667Y-143753833D02*
X140296667Y-143658595D01*
X140296667Y-143658595D02*
X140344286Y-143563357D01*
X140344286Y-143563357D02*
X140391905Y-143515738D01*
X140391905Y-143515738D02*
X140487143Y-143468119D01*
X140487143Y-143468119D02*
X140725238Y-143468119D01*
X140725238Y-143468119D02*
X140868095Y-143515738D01*
X141201429Y-143468119D02*
X141439524Y-144468119D01*
X141439524Y-144468119D02*
X141630000Y-143753833D01*
X141630000Y-143753833D02*
X141820476Y-144468119D01*
X141820476Y-144468119D02*
X142058572Y-143468119D01*
X142868095Y-143468119D02*
X142677619Y-143468119D01*
X142677619Y-143468119D02*
X142582381Y-143515738D01*
X142582381Y-143515738D02*
X142534762Y-143563357D01*
X142534762Y-143563357D02*
X142439524Y-143706214D01*
X142439524Y-143706214D02*
X142391905Y-143896690D01*
X142391905Y-143896690D02*
X142391905Y-144277642D01*
X142391905Y-144277642D02*
X142439524Y-144372880D01*
X142439524Y-144372880D02*
X142487143Y-144420500D01*
X142487143Y-144420500D02*
X142582381Y-144468119D01*
X142582381Y-144468119D02*
X142772857Y-144468119D01*
X142772857Y-144468119D02*
X142868095Y-144420500D01*
X142868095Y-144420500D02*
X142915714Y-144372880D01*
X142915714Y-144372880D02*
X142963333Y-144277642D01*
X142963333Y-144277642D02*
X142963333Y-144039547D01*
X142963333Y-144039547D02*
X142915714Y-143944309D01*
X142915714Y-143944309D02*
X142868095Y-143896690D01*
X142868095Y-143896690D02*
X142772857Y-143849071D01*
X142772857Y-143849071D02*
X142582381Y-143849071D01*
X142582381Y-143849071D02*
X142487143Y-143896690D01*
X142487143Y-143896690D02*
X142439524Y-143944309D01*
X142439524Y-143944309D02*
X142391905Y-144039547D01*
X182063333Y-32652880D02*
X182015714Y-32700500D01*
X182015714Y-32700500D02*
X181872857Y-32748119D01*
X181872857Y-32748119D02*
X181777619Y-32748119D01*
X181777619Y-32748119D02*
X181634762Y-32700500D01*
X181634762Y-32700500D02*
X181539524Y-32605261D01*
X181539524Y-32605261D02*
X181491905Y-32510023D01*
X181491905Y-32510023D02*
X181444286Y-32319547D01*
X181444286Y-32319547D02*
X181444286Y-32176690D01*
X181444286Y-32176690D02*
X181491905Y-31986214D01*
X181491905Y-31986214D02*
X181539524Y-31890976D01*
X181539524Y-31890976D02*
X181634762Y-31795738D01*
X181634762Y-31795738D02*
X181777619Y-31748119D01*
X181777619Y-31748119D02*
X181872857Y-31748119D01*
X181872857Y-31748119D02*
X182015714Y-31795738D01*
X182015714Y-31795738D02*
X182063333Y-31843357D01*
X183015714Y-32748119D02*
X182444286Y-32748119D01*
X182730000Y-32748119D02*
X182730000Y-31748119D01*
X182730000Y-31748119D02*
X182634762Y-31890976D01*
X182634762Y-31890976D02*
X182539524Y-31986214D01*
X182539524Y-31986214D02*
X182444286Y-32033833D01*
X131303333Y-30338119D02*
X130970000Y-29861928D01*
X130731905Y-30338119D02*
X130731905Y-29338119D01*
X130731905Y-29338119D02*
X131112857Y-29338119D01*
X131112857Y-29338119D02*
X131208095Y-29385738D01*
X131208095Y-29385738D02*
X131255714Y-29433357D01*
X131255714Y-29433357D02*
X131303333Y-29528595D01*
X131303333Y-29528595D02*
X131303333Y-29671452D01*
X131303333Y-29671452D02*
X131255714Y-29766690D01*
X131255714Y-29766690D02*
X131208095Y-29814309D01*
X131208095Y-29814309D02*
X131112857Y-29861928D01*
X131112857Y-29861928D02*
X130731905Y-29861928D01*
X131684286Y-29433357D02*
X131731905Y-29385738D01*
X131731905Y-29385738D02*
X131827143Y-29338119D01*
X131827143Y-29338119D02*
X132065238Y-29338119D01*
X132065238Y-29338119D02*
X132160476Y-29385738D01*
X132160476Y-29385738D02*
X132208095Y-29433357D01*
X132208095Y-29433357D02*
X132255714Y-29528595D01*
X132255714Y-29528595D02*
X132255714Y-29623833D01*
X132255714Y-29623833D02*
X132208095Y-29766690D01*
X132208095Y-29766690D02*
X131636667Y-30338119D01*
X131636667Y-30338119D02*
X132255714Y-30338119D01*
X182143333Y-39002880D02*
X182095714Y-39050500D01*
X182095714Y-39050500D02*
X181952857Y-39098119D01*
X181952857Y-39098119D02*
X181857619Y-39098119D01*
X181857619Y-39098119D02*
X181714762Y-39050500D01*
X181714762Y-39050500D02*
X181619524Y-38955261D01*
X181619524Y-38955261D02*
X181571905Y-38860023D01*
X181571905Y-38860023D02*
X181524286Y-38669547D01*
X181524286Y-38669547D02*
X181524286Y-38526690D01*
X181524286Y-38526690D02*
X181571905Y-38336214D01*
X181571905Y-38336214D02*
X181619524Y-38240976D01*
X181619524Y-38240976D02*
X181714762Y-38145738D01*
X181714762Y-38145738D02*
X181857619Y-38098119D01*
X181857619Y-38098119D02*
X181952857Y-38098119D01*
X181952857Y-38098119D02*
X182095714Y-38145738D01*
X182095714Y-38145738D02*
X182143333Y-38193357D01*
X182524286Y-38193357D02*
X182571905Y-38145738D01*
X182571905Y-38145738D02*
X182667143Y-38098119D01*
X182667143Y-38098119D02*
X182905238Y-38098119D01*
X182905238Y-38098119D02*
X183000476Y-38145738D01*
X183000476Y-38145738D02*
X183048095Y-38193357D01*
X183048095Y-38193357D02*
X183095714Y-38288595D01*
X183095714Y-38288595D02*
X183095714Y-38383833D01*
X183095714Y-38383833D02*
X183048095Y-38526690D01*
X183048095Y-38526690D02*
X182476667Y-39098119D01*
X182476667Y-39098119D02*
X183095714Y-39098119D01*
X152796667Y-113390500D02*
X152939524Y-113438119D01*
X152939524Y-113438119D02*
X153177619Y-113438119D01*
X153177619Y-113438119D02*
X153272857Y-113390500D01*
X153272857Y-113390500D02*
X153320476Y-113342880D01*
X153320476Y-113342880D02*
X153368095Y-113247642D01*
X153368095Y-113247642D02*
X153368095Y-113152404D01*
X153368095Y-113152404D02*
X153320476Y-113057166D01*
X153320476Y-113057166D02*
X153272857Y-113009547D01*
X153272857Y-113009547D02*
X153177619Y-112961928D01*
X153177619Y-112961928D02*
X152987143Y-112914309D01*
X152987143Y-112914309D02*
X152891905Y-112866690D01*
X152891905Y-112866690D02*
X152844286Y-112819071D01*
X152844286Y-112819071D02*
X152796667Y-112723833D01*
X152796667Y-112723833D02*
X152796667Y-112628595D01*
X152796667Y-112628595D02*
X152844286Y-112533357D01*
X152844286Y-112533357D02*
X152891905Y-112485738D01*
X152891905Y-112485738D02*
X152987143Y-112438119D01*
X152987143Y-112438119D02*
X153225238Y-112438119D01*
X153225238Y-112438119D02*
X153368095Y-112485738D01*
X153701429Y-112438119D02*
X153939524Y-113438119D01*
X153939524Y-113438119D02*
X154130000Y-112723833D01*
X154130000Y-112723833D02*
X154320476Y-113438119D01*
X154320476Y-113438119D02*
X154558572Y-112438119D01*
X154844286Y-112438119D02*
X155463333Y-112438119D01*
X155463333Y-112438119D02*
X155130000Y-112819071D01*
X155130000Y-112819071D02*
X155272857Y-112819071D01*
X155272857Y-112819071D02*
X155368095Y-112866690D01*
X155368095Y-112866690D02*
X155415714Y-112914309D01*
X155415714Y-112914309D02*
X155463333Y-113009547D01*
X155463333Y-113009547D02*
X155463333Y-113247642D01*
X155463333Y-113247642D02*
X155415714Y-113342880D01*
X155415714Y-113342880D02*
X155368095Y-113390500D01*
X155368095Y-113390500D02*
X155272857Y-113438119D01*
X155272857Y-113438119D02*
X154987143Y-113438119D01*
X154987143Y-113438119D02*
X154891905Y-113390500D01*
X154891905Y-113390500D02*
X154844286Y-113342880D01*
X152996667Y-100370500D02*
X153139524Y-100418119D01*
X153139524Y-100418119D02*
X153377619Y-100418119D01*
X153377619Y-100418119D02*
X153472857Y-100370500D01*
X153472857Y-100370500D02*
X153520476Y-100322880D01*
X153520476Y-100322880D02*
X153568095Y-100227642D01*
X153568095Y-100227642D02*
X153568095Y-100132404D01*
X153568095Y-100132404D02*
X153520476Y-100037166D01*
X153520476Y-100037166D02*
X153472857Y-99989547D01*
X153472857Y-99989547D02*
X153377619Y-99941928D01*
X153377619Y-99941928D02*
X153187143Y-99894309D01*
X153187143Y-99894309D02*
X153091905Y-99846690D01*
X153091905Y-99846690D02*
X153044286Y-99799071D01*
X153044286Y-99799071D02*
X152996667Y-99703833D01*
X152996667Y-99703833D02*
X152996667Y-99608595D01*
X152996667Y-99608595D02*
X153044286Y-99513357D01*
X153044286Y-99513357D02*
X153091905Y-99465738D01*
X153091905Y-99465738D02*
X153187143Y-99418119D01*
X153187143Y-99418119D02*
X153425238Y-99418119D01*
X153425238Y-99418119D02*
X153568095Y-99465738D01*
X153901429Y-99418119D02*
X154139524Y-100418119D01*
X154139524Y-100418119D02*
X154330000Y-99703833D01*
X154330000Y-99703833D02*
X154520476Y-100418119D01*
X154520476Y-100418119D02*
X154758572Y-99418119D01*
X155663333Y-100418119D02*
X155091905Y-100418119D01*
X155377619Y-100418119D02*
X155377619Y-99418119D01*
X155377619Y-99418119D02*
X155282381Y-99560976D01*
X155282381Y-99560976D02*
X155187143Y-99656214D01*
X155187143Y-99656214D02*
X155091905Y-99703833D01*
X152996667Y-126980500D02*
X153139524Y-127028119D01*
X153139524Y-127028119D02*
X153377619Y-127028119D01*
X153377619Y-127028119D02*
X153472857Y-126980500D01*
X153472857Y-126980500D02*
X153520476Y-126932880D01*
X153520476Y-126932880D02*
X153568095Y-126837642D01*
X153568095Y-126837642D02*
X153568095Y-126742404D01*
X153568095Y-126742404D02*
X153520476Y-126647166D01*
X153520476Y-126647166D02*
X153472857Y-126599547D01*
X153472857Y-126599547D02*
X153377619Y-126551928D01*
X153377619Y-126551928D02*
X153187143Y-126504309D01*
X153187143Y-126504309D02*
X153091905Y-126456690D01*
X153091905Y-126456690D02*
X153044286Y-126409071D01*
X153044286Y-126409071D02*
X152996667Y-126313833D01*
X152996667Y-126313833D02*
X152996667Y-126218595D01*
X152996667Y-126218595D02*
X153044286Y-126123357D01*
X153044286Y-126123357D02*
X153091905Y-126075738D01*
X153091905Y-126075738D02*
X153187143Y-126028119D01*
X153187143Y-126028119D02*
X153425238Y-126028119D01*
X153425238Y-126028119D02*
X153568095Y-126075738D01*
X153901429Y-126028119D02*
X154139524Y-127028119D01*
X154139524Y-127028119D02*
X154330000Y-126313833D01*
X154330000Y-126313833D02*
X154520476Y-127028119D01*
X154520476Y-127028119D02*
X154758572Y-126028119D01*
X155615714Y-126028119D02*
X155139524Y-126028119D01*
X155139524Y-126028119D02*
X155091905Y-126504309D01*
X155091905Y-126504309D02*
X155139524Y-126456690D01*
X155139524Y-126456690D02*
X155234762Y-126409071D01*
X155234762Y-126409071D02*
X155472857Y-126409071D01*
X155472857Y-126409071D02*
X155568095Y-126456690D01*
X155568095Y-126456690D02*
X155615714Y-126504309D01*
X155615714Y-126504309D02*
X155663333Y-126599547D01*
X155663333Y-126599547D02*
X155663333Y-126837642D01*
X155663333Y-126837642D02*
X155615714Y-126932880D01*
X155615714Y-126932880D02*
X155568095Y-126980500D01*
X155568095Y-126980500D02*
X155472857Y-127028119D01*
X155472857Y-127028119D02*
X155234762Y-127028119D01*
X155234762Y-127028119D02*
X155139524Y-126980500D01*
X155139524Y-126980500D02*
X155091905Y-126932880D01*
D10*
X118743615Y-120182833D02*
X117981711Y-120182833D01*
X118362663Y-119801880D02*
X118362663Y-120563785D01*
X121129806Y-107244261D02*
X121225044Y-107291880D01*
X121225044Y-107291880D02*
X121367901Y-107291880D01*
X121367901Y-107291880D02*
X121510758Y-107244261D01*
X121510758Y-107244261D02*
X121605996Y-107149023D01*
X121605996Y-107149023D02*
X121653615Y-107053785D01*
X121653615Y-107053785D02*
X121701234Y-106863309D01*
X121701234Y-106863309D02*
X121701234Y-106720452D01*
X121701234Y-106720452D02*
X121653615Y-106529976D01*
X121653615Y-106529976D02*
X121605996Y-106434738D01*
X121605996Y-106434738D02*
X121510758Y-106339500D01*
X121510758Y-106339500D02*
X121367901Y-106291880D01*
X121367901Y-106291880D02*
X121272663Y-106291880D01*
X121272663Y-106291880D02*
X121129806Y-106339500D01*
X121129806Y-106339500D02*
X121082187Y-106387119D01*
X121082187Y-106387119D02*
X121082187Y-106720452D01*
X121082187Y-106720452D02*
X121272663Y-106720452D01*
X120653615Y-106291880D02*
X120653615Y-107291880D01*
X120653615Y-107291880D02*
X120082187Y-106291880D01*
X120082187Y-106291880D02*
X120082187Y-107291880D01*
X119605996Y-106291880D02*
X119605996Y-107291880D01*
X119605996Y-107291880D02*
X119367901Y-107291880D01*
X119367901Y-107291880D02*
X119225044Y-107244261D01*
X119225044Y-107244261D02*
X119129806Y-107149023D01*
X119129806Y-107149023D02*
X119082187Y-107053785D01*
X119082187Y-107053785D02*
X119034568Y-106863309D01*
X119034568Y-106863309D02*
X119034568Y-106720452D01*
X119034568Y-106720452D02*
X119082187Y-106529976D01*
X119082187Y-106529976D02*
X119129806Y-106434738D01*
X119129806Y-106434738D02*
X119225044Y-106339500D01*
X119225044Y-106339500D02*
X119367901Y-106291880D01*
X119367901Y-106291880D02*
X119605996Y-106291880D01*
X118621234Y-109409500D02*
X118478377Y-109361880D01*
X118478377Y-109361880D02*
X118240282Y-109361880D01*
X118240282Y-109361880D02*
X118145044Y-109409500D01*
X118145044Y-109409500D02*
X118097425Y-109457119D01*
X118097425Y-109457119D02*
X118049806Y-109552357D01*
X118049806Y-109552357D02*
X118049806Y-109647595D01*
X118049806Y-109647595D02*
X118097425Y-109742833D01*
X118097425Y-109742833D02*
X118145044Y-109790452D01*
X118145044Y-109790452D02*
X118240282Y-109838071D01*
X118240282Y-109838071D02*
X118430758Y-109885690D01*
X118430758Y-109885690D02*
X118525996Y-109933309D01*
X118525996Y-109933309D02*
X118573615Y-109980928D01*
X118573615Y-109980928D02*
X118621234Y-110076166D01*
X118621234Y-110076166D02*
X118621234Y-110171404D01*
X118621234Y-110171404D02*
X118573615Y-110266642D01*
X118573615Y-110266642D02*
X118525996Y-110314261D01*
X118525996Y-110314261D02*
X118430758Y-110361880D01*
X118430758Y-110361880D02*
X118192663Y-110361880D01*
X118192663Y-110361880D02*
X118049806Y-110314261D01*
X117621234Y-109361880D02*
X117621234Y-110361880D01*
X117621234Y-110361880D02*
X117383139Y-110361880D01*
X117383139Y-110361880D02*
X117240282Y-110314261D01*
X117240282Y-110314261D02*
X117145044Y-110219023D01*
X117145044Y-110219023D02*
X117097425Y-110123785D01*
X117097425Y-110123785D02*
X117049806Y-109933309D01*
X117049806Y-109933309D02*
X117049806Y-109790452D01*
X117049806Y-109790452D02*
X117097425Y-109599976D01*
X117097425Y-109599976D02*
X117145044Y-109504738D01*
X117145044Y-109504738D02*
X117240282Y-109409500D01*
X117240282Y-109409500D02*
X117383139Y-109361880D01*
X117383139Y-109361880D02*
X117621234Y-109361880D01*
X113753615Y-109311880D02*
X113753615Y-110311880D01*
X113753615Y-110311880D02*
X113515520Y-110311880D01*
X113515520Y-110311880D02*
X113372663Y-110264261D01*
X113372663Y-110264261D02*
X113277425Y-110169023D01*
X113277425Y-110169023D02*
X113229806Y-110073785D01*
X113229806Y-110073785D02*
X113182187Y-109883309D01*
X113182187Y-109883309D02*
X113182187Y-109740452D01*
X113182187Y-109740452D02*
X113229806Y-109549976D01*
X113229806Y-109549976D02*
X113277425Y-109454738D01*
X113277425Y-109454738D02*
X113372663Y-109359500D01*
X113372663Y-109359500D02*
X113515520Y-109311880D01*
X113515520Y-109311880D02*
X113753615Y-109311880D01*
X112753615Y-109311880D02*
X112753615Y-110311880D01*
X112277425Y-109311880D02*
X112277425Y-110311880D01*
X112277425Y-110311880D02*
X111705997Y-109311880D01*
X111705997Y-109311880D02*
X111705997Y-110311880D01*
X123886472Y-110311880D02*
X123553139Y-109311880D01*
X123553139Y-109311880D02*
X123219806Y-110311880D01*
X122886472Y-109311880D02*
X122886472Y-110311880D01*
X122410282Y-109311880D02*
X122410282Y-110311880D01*
X122410282Y-110311880D02*
X121838854Y-109311880D01*
X121838854Y-109311880D02*
X121838854Y-110311880D01*
X111620282Y-106885690D02*
X111477425Y-106838071D01*
X111477425Y-106838071D02*
X111429806Y-106790452D01*
X111429806Y-106790452D02*
X111382187Y-106695214D01*
X111382187Y-106695214D02*
X111382187Y-106552357D01*
X111382187Y-106552357D02*
X111429806Y-106457119D01*
X111429806Y-106457119D02*
X111477425Y-106409500D01*
X111477425Y-106409500D02*
X111572663Y-106361880D01*
X111572663Y-106361880D02*
X111953615Y-106361880D01*
X111953615Y-106361880D02*
X111953615Y-107361880D01*
X111953615Y-107361880D02*
X111620282Y-107361880D01*
X111620282Y-107361880D02*
X111525044Y-107314261D01*
X111525044Y-107314261D02*
X111477425Y-107266642D01*
X111477425Y-107266642D02*
X111429806Y-107171404D01*
X111429806Y-107171404D02*
X111429806Y-107076166D01*
X111429806Y-107076166D02*
X111477425Y-106980928D01*
X111477425Y-106980928D02*
X111525044Y-106933309D01*
X111525044Y-106933309D02*
X111620282Y-106885690D01*
X111620282Y-106885690D02*
X111953615Y-106885690D01*
X110382187Y-106457119D02*
X110429806Y-106409500D01*
X110429806Y-106409500D02*
X110572663Y-106361880D01*
X110572663Y-106361880D02*
X110667901Y-106361880D01*
X110667901Y-106361880D02*
X110810758Y-106409500D01*
X110810758Y-106409500D02*
X110905996Y-106504738D01*
X110905996Y-106504738D02*
X110953615Y-106599976D01*
X110953615Y-106599976D02*
X111001234Y-106790452D01*
X111001234Y-106790452D02*
X111001234Y-106933309D01*
X111001234Y-106933309D02*
X110953615Y-107123785D01*
X110953615Y-107123785D02*
X110905996Y-107219023D01*
X110905996Y-107219023D02*
X110810758Y-107314261D01*
X110810758Y-107314261D02*
X110667901Y-107361880D01*
X110667901Y-107361880D02*
X110572663Y-107361880D01*
X110572663Y-107361880D02*
X110429806Y-107314261D01*
X110429806Y-107314261D02*
X110382187Y-107266642D01*
X109477425Y-106361880D02*
X109953615Y-106361880D01*
X109953615Y-106361880D02*
X109953615Y-107361880D01*
X109144091Y-106361880D02*
X109144091Y-107361880D01*
X108572663Y-106361880D02*
X109001234Y-106933309D01*
X108572663Y-107361880D02*
X109144091Y-106790452D01*
X108477425Y-109311880D02*
X108953615Y-109311880D01*
X108953615Y-109311880D02*
X108953615Y-110311880D01*
X107572663Y-109311880D02*
X107905996Y-109788071D01*
X108144091Y-109311880D02*
X108144091Y-110311880D01*
X108144091Y-110311880D02*
X107763139Y-110311880D01*
X107763139Y-110311880D02*
X107667901Y-110264261D01*
X107667901Y-110264261D02*
X107620282Y-110216642D01*
X107620282Y-110216642D02*
X107572663Y-110121404D01*
X107572663Y-110121404D02*
X107572663Y-109978547D01*
X107572663Y-109978547D02*
X107620282Y-109883309D01*
X107620282Y-109883309D02*
X107667901Y-109835690D01*
X107667901Y-109835690D02*
X107763139Y-109788071D01*
X107763139Y-109788071D02*
X108144091Y-109788071D01*
X106572663Y-109407119D02*
X106620282Y-109359500D01*
X106620282Y-109359500D02*
X106763139Y-109311880D01*
X106763139Y-109311880D02*
X106858377Y-109311880D01*
X106858377Y-109311880D02*
X107001234Y-109359500D01*
X107001234Y-109359500D02*
X107096472Y-109454738D01*
X107096472Y-109454738D02*
X107144091Y-109549976D01*
X107144091Y-109549976D02*
X107191710Y-109740452D01*
X107191710Y-109740452D02*
X107191710Y-109883309D01*
X107191710Y-109883309D02*
X107144091Y-110073785D01*
X107144091Y-110073785D02*
X107096472Y-110169023D01*
X107096472Y-110169023D02*
X107001234Y-110264261D01*
X107001234Y-110264261D02*
X106858377Y-110311880D01*
X106858377Y-110311880D02*
X106763139Y-110311880D01*
X106763139Y-110311880D02*
X106620282Y-110264261D01*
X106620282Y-110264261D02*
X106572663Y-110216642D01*
X112743615Y-120192833D02*
X111981711Y-120192833D01*
X116069806Y-107254261D02*
X116165044Y-107301880D01*
X116165044Y-107301880D02*
X116307901Y-107301880D01*
X116307901Y-107301880D02*
X116450758Y-107254261D01*
X116450758Y-107254261D02*
X116545996Y-107159023D01*
X116545996Y-107159023D02*
X116593615Y-107063785D01*
X116593615Y-107063785D02*
X116641234Y-106873309D01*
X116641234Y-106873309D02*
X116641234Y-106730452D01*
X116641234Y-106730452D02*
X116593615Y-106539976D01*
X116593615Y-106539976D02*
X116545996Y-106444738D01*
X116545996Y-106444738D02*
X116450758Y-106349500D01*
X116450758Y-106349500D02*
X116307901Y-106301880D01*
X116307901Y-106301880D02*
X116212663Y-106301880D01*
X116212663Y-106301880D02*
X116069806Y-106349500D01*
X116069806Y-106349500D02*
X116022187Y-106397119D01*
X116022187Y-106397119D02*
X116022187Y-106730452D01*
X116022187Y-106730452D02*
X116212663Y-106730452D01*
X115641234Y-106587595D02*
X115165044Y-106587595D01*
X115736472Y-106301880D02*
X115403139Y-107301880D01*
X115403139Y-107301880D02*
X115069806Y-106301880D01*
X114736472Y-106301880D02*
X114736472Y-107301880D01*
X114260282Y-106301880D02*
X114260282Y-107301880D01*
X114260282Y-107301880D02*
X113688854Y-106301880D01*
X113688854Y-106301880D02*
X113688854Y-107301880D01*
D12*
%TO.C,R3*%
X111690000Y-39773300D02*
X118230000Y-39773300D01*
X111690000Y-40103300D02*
X111690000Y-39773300D01*
X111690000Y-42183300D02*
X111690000Y-42513300D01*
X111690000Y-42513300D02*
X118230000Y-42513300D01*
X118230000Y-39773300D02*
X118230000Y-40103300D01*
X118230000Y-42513300D02*
X118230000Y-42183300D01*
%TO.C,R4*%
X128200000Y-39773300D02*
X134740000Y-39773300D01*
X128200000Y-40103300D02*
X128200000Y-39773300D01*
X128200000Y-42183300D02*
X128200000Y-42513300D01*
X128200000Y-42513300D02*
X134740000Y-42513300D01*
X134740000Y-39773300D02*
X134740000Y-40103300D01*
X134740000Y-42513300D02*
X134740000Y-42183300D01*
D13*
%TO.C,3.5mm*%
X117340000Y-133063300D02*
X117340000Y-136035300D01*
X117340000Y-133063300D02*
X128840000Y-133063300D01*
X117340000Y-147263300D02*
X117340000Y-136035300D01*
X120340000Y-147263300D02*
X117340000Y-147263300D01*
X120340000Y-147263300D02*
X120340000Y-150763300D01*
X120340000Y-150763300D02*
X126340000Y-150763300D01*
X126340000Y-147263300D02*
X120340000Y-147263300D01*
X126340000Y-150763300D02*
X126340000Y-147263300D01*
X128840000Y-133063300D02*
X128840000Y-133289300D01*
X128840000Y-142991300D02*
X128840000Y-133289300D01*
X128840000Y-142991300D02*
X128840000Y-147263300D01*
X128840000Y-147263300D02*
X126340000Y-147263300D01*
D12*
%TO.C,R1*%
X111690000Y-30883300D02*
X118230000Y-30883300D01*
X111690000Y-31213300D02*
X111690000Y-30883300D01*
X111690000Y-33293300D02*
X111690000Y-33623300D01*
X111690000Y-33623300D02*
X118230000Y-33623300D01*
X118230000Y-30883300D02*
X118230000Y-31213300D01*
X118230000Y-33623300D02*
X118230000Y-33293300D01*
D14*
%TO.C,REF\u002A\u002A*%
X110489996Y-87899073D02*
X110490000Y-45153300D01*
X110490000Y-45153300D02*
X188210000Y-45153300D01*
X188209996Y-87899073D02*
X110489996Y-87899073D01*
X188210000Y-45153300D02*
X188209996Y-87899073D01*
D12*
%TO.C,SW2*%
X134875000Y-116768300D02*
X134875000Y-118268300D01*
X136125000Y-120768300D02*
X140625000Y-120768300D01*
X140625000Y-114268300D02*
X136125000Y-114268300D01*
X141875000Y-118268300D02*
X141875000Y-116768300D01*
%TO.C,SW4*%
X166785000Y-116768300D02*
X166785000Y-118268300D01*
X168035000Y-120768300D02*
X172535000Y-120768300D01*
X172535000Y-114268300D02*
X168035000Y-114268300D01*
X173785000Y-118268300D02*
X173785000Y-116768300D01*
%TO.C,SW6*%
X136520000Y-145193300D02*
X146740000Y-145193300D01*
X146740000Y-147913300D01*
X136520000Y-147913300D01*
X136520000Y-145193300D01*
%TO.C,C1*%
X179110000Y-33423300D02*
X179110000Y-33868300D01*
X179110000Y-33423300D02*
X185350000Y-33423300D01*
X179110000Y-35718300D02*
X179110000Y-36163300D01*
X179110000Y-36163300D02*
X185350000Y-36163300D01*
X185350000Y-33423300D02*
X185350000Y-33868300D01*
X185350000Y-35718300D02*
X185350000Y-36163300D01*
%TO.C,R2*%
X128200000Y-30883300D02*
X134740000Y-30883300D01*
X128200000Y-31213300D02*
X128200000Y-30883300D01*
X128200000Y-33293300D02*
X128200000Y-33623300D01*
X128200000Y-33623300D02*
X134740000Y-33623300D01*
X134740000Y-30883300D02*
X134740000Y-31213300D01*
X134740000Y-33623300D02*
X134740000Y-33293300D01*
%TO.C,C2*%
X179190000Y-39773300D02*
X179190000Y-40218300D01*
X179190000Y-39773300D02*
X185430000Y-39773300D01*
X179190000Y-42068300D02*
X179190000Y-42513300D01*
X179190000Y-42513300D02*
X185430000Y-42513300D01*
X185430000Y-39773300D02*
X185430000Y-40218300D01*
X185430000Y-42068300D02*
X185430000Y-42513300D01*
%TO.C,SW3*%
X150830000Y-116768300D02*
X150830000Y-118268300D01*
X152080000Y-120768300D02*
X156580000Y-120768300D01*
X156580000Y-114268300D02*
X152080000Y-114268300D01*
X157830000Y-118268300D02*
X157830000Y-116768300D01*
%TO.C,SW1*%
X150830000Y-103463300D02*
X150830000Y-104963300D01*
X152080000Y-107463300D02*
X156580000Y-107463300D01*
X156580000Y-100963300D02*
X152080000Y-100963300D01*
X157830000Y-104963300D02*
X157830000Y-103463300D01*
%TO.C,SW5*%
X150830000Y-130073300D02*
X150830000Y-131573300D01*
X152080000Y-134073300D02*
X156580000Y-134073300D01*
X156580000Y-127573300D02*
X152080000Y-127573300D01*
X157830000Y-131573300D02*
X157830000Y-130073300D01*
D10*
%TO.C,MAX98357*%
X106427500Y-122409300D02*
X106427500Y-108439300D01*
X108947500Y-105879300D02*
X121647500Y-105879300D01*
X121647500Y-124919300D02*
X108947500Y-124919300D01*
X124177500Y-108394300D02*
X124177500Y-122364300D01*
X106427501Y-108439300D02*
G75*
G02*
X108947502Y-105879301I2539999J20000D01*
G01*
X108947500Y-124919382D02*
G75*
G02*
X106427501Y-122409300I16050J2536132D01*
G01*
X121647500Y-105879300D02*
G75*
G02*
X124187316Y-108394180I-6050J-2546050D01*
G01*
X124177475Y-122364301D02*
G75*
G02*
X121647500Y-124919300I-2539975J-14999D01*
G01*
%TD*%
M02*
