%TF.GenerationSoftware,KiCad,Pcbnew,8.0.3*%
%TF.CreationDate,2024-08-23T11:34:52-06:00*%
%TF.ProjectId,MP3,4d50332e-6b69-4636-9164-5f7063625858,rev?*%
%TF.SameCoordinates,Original*%
%TF.FileFunction,Profile,NP*%
%FSLAX46Y46*%
G04 Gerber Fmt 4.6, Leading zero omitted, Abs format (unit mm)*
G04 Created by KiCad (PCBNEW 8.0.3) date 2024-08-23 11:34:52*
%MOMM*%
%LPD*%
G01*
G04 APERTURE LIST*
%TA.AperFunction,Profile*%
%ADD10C,0.050000*%
%TD*%
%TA.AperFunction,Profile*%
%ADD11C,0.100000*%
%TD*%
G04 APERTURE END LIST*
D10*
X196420000Y-151023300D02*
X102470000Y-150953300D01*
X102390000Y-26073300D02*
X196480000Y-26103300D01*
X193940000Y-147283300D02*
G75*
G02*
X190540000Y-147283300I-1700000J0D01*
G01*
X190540000Y-147283300D02*
G75*
G02*
X193940000Y-147283300I1700000J0D01*
G01*
X102470000Y-150953300D02*
X102390000Y-26073300D01*
X108200000Y-147283300D02*
G75*
G02*
X104800000Y-147283300I-1700000J0D01*
G01*
X104800000Y-147283300D02*
G75*
G02*
X108200000Y-147283300I1700000J0D01*
G01*
X194400000Y-29623300D02*
G75*
G02*
X191000000Y-29623300I-1700000J0D01*
G01*
X191000000Y-29623300D02*
G75*
G02*
X194400000Y-29623300I1700000J0D01*
G01*
X108220000Y-29743300D02*
G75*
G02*
X104820000Y-29743300I-1700000J0D01*
G01*
X104820000Y-29743300D02*
G75*
G02*
X108220000Y-29743300I1700000J0D01*
G01*
X196480000Y-26103300D02*
X196420000Y-151023300D01*
%TO.C,REF\u002A\u002A*%
X119009996Y-84899073D02*
G75*
G02*
X115809996Y-84899073I-1600000J0D01*
G01*
X115809996Y-84899073D02*
G75*
G02*
X119009996Y-84899073I1600000J0D01*
G01*
X119010000Y-48153300D02*
G75*
G02*
X115810000Y-48153300I-1600000J0D01*
G01*
X115810000Y-48153300D02*
G75*
G02*
X119010000Y-48153300I1600000J0D01*
G01*
X186809996Y-84899073D02*
G75*
G02*
X183609996Y-84899073I-1600000J0D01*
G01*
X183609996Y-84899073D02*
G75*
G02*
X186809996Y-84899073I1600000J0D01*
G01*
X186810000Y-48153300D02*
G75*
G02*
X183610000Y-48153300I-1600000J0D01*
G01*
X183610000Y-48153300D02*
G75*
G02*
X186810000Y-48153300I1600000J0D01*
G01*
D11*
%TO.C,MAX98357*%
X110187500Y-122614300D02*
G75*
G02*
X107647500Y-122614300I-1270000J0D01*
G01*
X107647500Y-122614300D02*
G75*
G02*
X110187500Y-122614300I1270000J0D01*
G01*
X122887500Y-122614300D02*
G75*
G02*
X120347500Y-122614300I-1270000J0D01*
G01*
X120347500Y-122614300D02*
G75*
G02*
X122887500Y-122614300I1270000J0D01*
G01*
%TD*%
M02*
