%TF.GenerationSoftware,KiCad,Pcbnew,8.0.3*%
%TF.CreationDate,2024-08-23T11:34:52-06:00*%
%TF.ProjectId,MP3,4d50332e-6b69-4636-9164-5f7063625858,rev?*%
%TF.SameCoordinates,Original*%
%TF.FileFunction,Soldermask,Bot*%
%TF.FilePolarity,Negative*%
%FSLAX46Y46*%
G04 Gerber Fmt 4.6, Leading zero omitted, Abs format (unit mm)*
G04 Created by KiCad (PCBNEW 8.0.3) date 2024-08-23 11:34:52*
%MOMM*%
%LPD*%
G01*
G04 APERTURE LIST*
G04 Aperture macros list*
%AMRoundRect*
0 Rectangle with rounded corners*
0 $1 Rounding radius*
0 $2 $3 $4 $5 $6 $7 $8 $9 X,Y pos of 4 corners*
0 Add a 4 corners polygon primitive as box body*
4,1,4,$2,$3,$4,$5,$6,$7,$8,$9,$2,$3,0*
0 Add four circle primitives for the rounded corners*
1,1,$1+$1,$2,$3*
1,1,$1+$1,$4,$5*
1,1,$1+$1,$6,$7*
1,1,$1+$1,$8,$9*
0 Add four rect primitives between the rounded corners*
20,1,$1+$1,$2,$3,$4,$5,0*
20,1,$1+$1,$4,$5,$6,$7,0*
20,1,$1+$1,$6,$7,$8,$9,0*
20,1,$1+$1,$8,$9,$2,$3,0*%
G04 Aperture macros list end*
%ADD10C,1.600000*%
%ADD11O,1.600000X1.600000*%
%ADD12O,2.820000X1.512000*%
%ADD13O,1.212000X2.220000*%
%ADD14C,1.524000*%
%ADD15R,1.524000X1.524000*%
%ADD16C,2.000000*%
%ADD17R,1.500000X1.500000*%
%ADD18O,2.286000X1.400000*%
%ADD19RoundRect,0.270833X0.629167X-0.379167X0.629167X0.379167X-0.629167X0.379167X-0.629167X-0.379167X0*%
%ADD20O,1.800000X1.300000*%
%ADD21C,1.400000*%
%ADD22R,1.400000X1.400000*%
G04 APERTURE END LIST*
D10*
%TO.C,R3*%
X111150000Y-41143300D03*
D11*
X118770000Y-41143300D03*
%TD*%
D10*
%TO.C,R4*%
X127660000Y-41143300D03*
D11*
X135280000Y-41143300D03*
%TD*%
D12*
%TO.C,3.5mm*%
X123340000Y-145563300D03*
D13*
X118140000Y-137663300D03*
X127940000Y-141363300D03*
%TD*%
D10*
%TO.C,R1*%
X111150000Y-32253300D03*
D11*
X118770000Y-32253300D03*
%TD*%
D14*
%TO.C,REF\u002A\u002A*%
X112489996Y-55109073D03*
X112489996Y-60189073D03*
X112489996Y-52569073D03*
X112489996Y-67809073D03*
X112489998Y-57651187D03*
X112489996Y-65269073D03*
X112489996Y-62729073D03*
X112489996Y-70349073D03*
D15*
X186210000Y-62706187D03*
D14*
X186210000Y-67786187D03*
X186210000Y-65246187D03*
X186210000Y-70326187D03*
X112489996Y-72889073D03*
X112489996Y-75429073D03*
X112489996Y-77969073D03*
X112489998Y-80501187D03*
X112489998Y-83051187D03*
D15*
X112489998Y-50026187D03*
%TD*%
D16*
%TO.C,SW2*%
X135125000Y-115268300D03*
X141625000Y-115268300D03*
X135125000Y-119768300D03*
X141625000Y-119768300D03*
%TD*%
%TO.C,SW4*%
X167035000Y-115268300D03*
X173535000Y-115268300D03*
X167035000Y-119768300D03*
X173535000Y-119768300D03*
%TD*%
D17*
%TO.C,SW6*%
X141630000Y-146553300D03*
D10*
X139090000Y-146553300D03*
X144170000Y-146553300D03*
%TD*%
%TO.C,C1*%
X179730000Y-34793300D03*
X184730000Y-34793300D03*
%TD*%
%TO.C,R2*%
X127660000Y-32253300D03*
D11*
X135280000Y-32253300D03*
%TD*%
D10*
%TO.C,C2*%
X179810000Y-41143300D03*
X184810000Y-41143300D03*
%TD*%
D16*
%TO.C,SW3*%
X151080000Y-115268300D03*
X157580000Y-115268300D03*
X151080000Y-119768300D03*
X157580000Y-119768300D03*
%TD*%
%TO.C,SW1*%
X151080000Y-101963300D03*
X157580000Y-101963300D03*
X151080000Y-106463300D03*
X157580000Y-106463300D03*
%TD*%
%TO.C,SW5*%
X151080000Y-128573300D03*
X157580000Y-128573300D03*
X151080000Y-133073300D03*
X157580000Y-133073300D03*
%TD*%
D18*
%TO.C,U1*%
X162548123Y-129783800D03*
X162548123Y-132323800D03*
X162548123Y-106923800D03*
X162548123Y-127243800D03*
X162548123Y-119623800D03*
X185408123Y-134863800D03*
X162548123Y-137403800D03*
X185408123Y-132323800D03*
X162548123Y-134863800D03*
X162548123Y-124703800D03*
X162548123Y-122163800D03*
X162548123Y-117083800D03*
X162548123Y-112003800D03*
X162548123Y-109463800D03*
X162548123Y-114543800D03*
X185408123Y-124703800D03*
X185408123Y-127243800D03*
X185408123Y-129783800D03*
X185408123Y-119623800D03*
X185408123Y-122163800D03*
X185408123Y-114543800D03*
X185408123Y-117083800D03*
X185408123Y-112003800D03*
X185408123Y-137403800D03*
X185408123Y-109463800D03*
X185408123Y-106923800D03*
%TD*%
D14*
%TO.C,MAX98357*%
X116885000Y-121373300D03*
X113710000Y-121373300D03*
X110217500Y-108419300D03*
X112757500Y-108419300D03*
X115297500Y-108419300D03*
X120377500Y-108419300D03*
X107677500Y-108419300D03*
X117837500Y-108419300D03*
X122917500Y-108419300D03*
%TD*%
D19*
%TO.C,BT1*%
X117190000Y-94243300D03*
D20*
X117190000Y-92243300D03*
%TD*%
D21*
%TO.C,PW1*%
X191160000Y-142743300D03*
D22*
X191160000Y-140203300D03*
%TD*%
M02*
