%TF.GenerationSoftware,KiCad,Pcbnew,8.0.4*%
%TF.CreationDate,2024-11-06T19:34:02-07:00*%
%TF.ProjectId,MP3_Player,4d50335f-506c-4617-9965-722e6b696361,rev?*%
%TF.SameCoordinates,Original*%
%TF.FileFunction,Profile,NP*%
%FSLAX46Y46*%
G04 Gerber Fmt 4.6, Leading zero omitted, Abs format (unit mm)*
G04 Created by KiCad (PCBNEW 8.0.4) date 2024-11-06 19:34:02*
%MOMM*%
%LPD*%
G01*
G04 APERTURE LIST*
%TA.AperFunction,Profile*%
%ADD10C,0.050000*%
%TD*%
%TA.AperFunction,Profile*%
%ADD11C,0.120000*%
%TD*%
%TA.AperFunction,Profile*%
%ADD12C,0.100000*%
%TD*%
G04 APERTURE END LIST*
D10*
X126500000Y-140500000D02*
X90484000Y-140500000D01*
X90484000Y-24500000D02*
X178000000Y-24500000D01*
X139500000Y-140500000D02*
X178000000Y-140500000D01*
X90484000Y-24500000D02*
X90484000Y-140500000D01*
X178000000Y-140500000D02*
X178000000Y-24500000D01*
D11*
%TO.C,J1*%
X130800000Y-139500000D02*
X130800000Y-140500000D01*
X130800000Y-140500000D02*
X126500000Y-140500000D01*
X134800000Y-139100000D02*
X131200000Y-139100000D01*
X135200000Y-139500000D02*
X135200000Y-140500000D01*
X135200000Y-140500000D02*
X139500000Y-140500000D01*
X130800000Y-139500000D02*
G75*
G02*
X131200000Y-139100000I400002J-2D01*
G01*
X134800000Y-139100000D02*
G75*
G02*
X135200000Y-139500000I0J-400000D01*
G01*
D12*
%TO.C,RSPKR1*%
X145890000Y-95017500D02*
G75*
G02*
X143350000Y-95017500I-1270000J0D01*
G01*
X143350000Y-95017500D02*
G75*
G02*
X145890000Y-95017500I1270000J0D01*
G01*
X158590000Y-95017500D02*
G75*
G02*
X156050000Y-95017500I-1270000J0D01*
G01*
X156050000Y-95017500D02*
G75*
G02*
X158590000Y-95017500I1270000J0D01*
G01*
%TO.C,L_SPKR1*%
X145890000Y-72017500D02*
G75*
G02*
X143350000Y-72017500I-1270000J0D01*
G01*
X143350000Y-72017500D02*
G75*
G02*
X145890000Y-72017500I1270000J0D01*
G01*
X158590000Y-72017500D02*
G75*
G02*
X156050000Y-72017500I-1270000J0D01*
G01*
X156050000Y-72017500D02*
G75*
G02*
X158590000Y-72017500I1270000J0D01*
G01*
%TD*%
M02*
