%TF.GenerationSoftware,KiCad,Pcbnew,8.0.4*%
%TF.CreationDate,2024-11-06T19:34:02-07:00*%
%TF.ProjectId,MP3_Player,4d50335f-506c-4617-9965-722e6b696361,rev?*%
%TF.SameCoordinates,Original*%
%TF.FileFunction,Legend,Bot*%
%TF.FilePolarity,Positive*%
%FSLAX46Y46*%
G04 Gerber Fmt 4.6, Leading zero omitted, Abs format (unit mm)*
G04 Created by KiCad (PCBNEW 8.0.4) date 2024-11-06 19:34:02*
%MOMM*%
%LPD*%
G01*
G04 APERTURE LIST*
%ADD10C,0.100000*%
%ADD11C,0.150000*%
G04 APERTURE END LIST*
D10*
X147322782Y-110746109D02*
X147179925Y-110793728D01*
X147179925Y-110793728D02*
X147132306Y-110841347D01*
X147132306Y-110841347D02*
X147084687Y-110936585D01*
X147084687Y-110936585D02*
X147084687Y-111079442D01*
X147084687Y-111079442D02*
X147132306Y-111174680D01*
X147132306Y-111174680D02*
X147179925Y-111222300D01*
X147179925Y-111222300D02*
X147275163Y-111269919D01*
X147275163Y-111269919D02*
X147656115Y-111269919D01*
X147656115Y-111269919D02*
X147656115Y-110269919D01*
X147656115Y-110269919D02*
X147322782Y-110269919D01*
X147322782Y-110269919D02*
X147227544Y-110317538D01*
X147227544Y-110317538D02*
X147179925Y-110365157D01*
X147179925Y-110365157D02*
X147132306Y-110460395D01*
X147132306Y-110460395D02*
X147132306Y-110555633D01*
X147132306Y-110555633D02*
X147179925Y-110650871D01*
X147179925Y-110650871D02*
X147227544Y-110698490D01*
X147227544Y-110698490D02*
X147322782Y-110746109D01*
X147322782Y-110746109D02*
X147656115Y-110746109D01*
X146084687Y-111174680D02*
X146132306Y-111222300D01*
X146132306Y-111222300D02*
X146275163Y-111269919D01*
X146275163Y-111269919D02*
X146370401Y-111269919D01*
X146370401Y-111269919D02*
X146513258Y-111222300D01*
X146513258Y-111222300D02*
X146608496Y-111127061D01*
X146608496Y-111127061D02*
X146656115Y-111031823D01*
X146656115Y-111031823D02*
X146703734Y-110841347D01*
X146703734Y-110841347D02*
X146703734Y-110698490D01*
X146703734Y-110698490D02*
X146656115Y-110508014D01*
X146656115Y-110508014D02*
X146608496Y-110412776D01*
X146608496Y-110412776D02*
X146513258Y-110317538D01*
X146513258Y-110317538D02*
X146370401Y-110269919D01*
X146370401Y-110269919D02*
X146275163Y-110269919D01*
X146275163Y-110269919D02*
X146132306Y-110317538D01*
X146132306Y-110317538D02*
X146084687Y-110365157D01*
X145179925Y-111269919D02*
X145656115Y-111269919D01*
X145656115Y-111269919D02*
X145656115Y-110269919D01*
X144846591Y-111269919D02*
X144846591Y-110269919D01*
X144275163Y-111269919D02*
X144703734Y-110698490D01*
X144275163Y-110269919D02*
X144846591Y-110841347D01*
X156832306Y-110387538D02*
X156927544Y-110339919D01*
X156927544Y-110339919D02*
X157070401Y-110339919D01*
X157070401Y-110339919D02*
X157213258Y-110387538D01*
X157213258Y-110387538D02*
X157308496Y-110482776D01*
X157308496Y-110482776D02*
X157356115Y-110578014D01*
X157356115Y-110578014D02*
X157403734Y-110768490D01*
X157403734Y-110768490D02*
X157403734Y-110911347D01*
X157403734Y-110911347D02*
X157356115Y-111101823D01*
X157356115Y-111101823D02*
X157308496Y-111197061D01*
X157308496Y-111197061D02*
X157213258Y-111292300D01*
X157213258Y-111292300D02*
X157070401Y-111339919D01*
X157070401Y-111339919D02*
X156975163Y-111339919D01*
X156975163Y-111339919D02*
X156832306Y-111292300D01*
X156832306Y-111292300D02*
X156784687Y-111244680D01*
X156784687Y-111244680D02*
X156784687Y-110911347D01*
X156784687Y-110911347D02*
X156975163Y-110911347D01*
X156356115Y-111339919D02*
X156356115Y-110339919D01*
X156356115Y-110339919D02*
X155784687Y-111339919D01*
X155784687Y-111339919D02*
X155784687Y-110339919D01*
X155308496Y-111339919D02*
X155308496Y-110339919D01*
X155308496Y-110339919D02*
X155070401Y-110339919D01*
X155070401Y-110339919D02*
X154927544Y-110387538D01*
X154927544Y-110387538D02*
X154832306Y-110482776D01*
X154832306Y-110482776D02*
X154784687Y-110578014D01*
X154784687Y-110578014D02*
X154737068Y-110768490D01*
X154737068Y-110768490D02*
X154737068Y-110911347D01*
X154737068Y-110911347D02*
X154784687Y-111101823D01*
X154784687Y-111101823D02*
X154832306Y-111197061D01*
X154832306Y-111197061D02*
X154927544Y-111292300D01*
X154927544Y-111292300D02*
X155070401Y-111339919D01*
X155070401Y-111339919D02*
X155308496Y-111339919D01*
X148446115Y-97438966D02*
X147684211Y-97438966D01*
X159588972Y-107319919D02*
X159255639Y-108319919D01*
X159255639Y-108319919D02*
X158922306Y-107319919D01*
X158588972Y-108319919D02*
X158588972Y-107319919D01*
X158112782Y-108319919D02*
X158112782Y-107319919D01*
X158112782Y-107319919D02*
X157541354Y-108319919D01*
X157541354Y-108319919D02*
X157541354Y-107319919D01*
X149456115Y-108319919D02*
X149456115Y-107319919D01*
X149456115Y-107319919D02*
X149218020Y-107319919D01*
X149218020Y-107319919D02*
X149075163Y-107367538D01*
X149075163Y-107367538D02*
X148979925Y-107462776D01*
X148979925Y-107462776D02*
X148932306Y-107558014D01*
X148932306Y-107558014D02*
X148884687Y-107748490D01*
X148884687Y-107748490D02*
X148884687Y-107891347D01*
X148884687Y-107891347D02*
X148932306Y-108081823D01*
X148932306Y-108081823D02*
X148979925Y-108177061D01*
X148979925Y-108177061D02*
X149075163Y-108272300D01*
X149075163Y-108272300D02*
X149218020Y-108319919D01*
X149218020Y-108319919D02*
X149456115Y-108319919D01*
X148456115Y-108319919D02*
X148456115Y-107319919D01*
X147979925Y-108319919D02*
X147979925Y-107319919D01*
X147979925Y-107319919D02*
X147408497Y-108319919D01*
X147408497Y-108319919D02*
X147408497Y-107319919D01*
X154323734Y-108222300D02*
X154180877Y-108269919D01*
X154180877Y-108269919D02*
X153942782Y-108269919D01*
X153942782Y-108269919D02*
X153847544Y-108222300D01*
X153847544Y-108222300D02*
X153799925Y-108174680D01*
X153799925Y-108174680D02*
X153752306Y-108079442D01*
X153752306Y-108079442D02*
X153752306Y-107984204D01*
X153752306Y-107984204D02*
X153799925Y-107888966D01*
X153799925Y-107888966D02*
X153847544Y-107841347D01*
X153847544Y-107841347D02*
X153942782Y-107793728D01*
X153942782Y-107793728D02*
X154133258Y-107746109D01*
X154133258Y-107746109D02*
X154228496Y-107698490D01*
X154228496Y-107698490D02*
X154276115Y-107650871D01*
X154276115Y-107650871D02*
X154323734Y-107555633D01*
X154323734Y-107555633D02*
X154323734Y-107460395D01*
X154323734Y-107460395D02*
X154276115Y-107365157D01*
X154276115Y-107365157D02*
X154228496Y-107317538D01*
X154228496Y-107317538D02*
X154133258Y-107269919D01*
X154133258Y-107269919D02*
X153895163Y-107269919D01*
X153895163Y-107269919D02*
X153752306Y-107317538D01*
X153323734Y-108269919D02*
X153323734Y-107269919D01*
X153323734Y-107269919D02*
X153085639Y-107269919D01*
X153085639Y-107269919D02*
X152942782Y-107317538D01*
X152942782Y-107317538D02*
X152847544Y-107412776D01*
X152847544Y-107412776D02*
X152799925Y-107508014D01*
X152799925Y-107508014D02*
X152752306Y-107698490D01*
X152752306Y-107698490D02*
X152752306Y-107841347D01*
X152752306Y-107841347D02*
X152799925Y-108031823D01*
X152799925Y-108031823D02*
X152847544Y-108127061D01*
X152847544Y-108127061D02*
X152942782Y-108222300D01*
X152942782Y-108222300D02*
X153085639Y-108269919D01*
X153085639Y-108269919D02*
X153323734Y-108269919D01*
X151772306Y-110377538D02*
X151867544Y-110329919D01*
X151867544Y-110329919D02*
X152010401Y-110329919D01*
X152010401Y-110329919D02*
X152153258Y-110377538D01*
X152153258Y-110377538D02*
X152248496Y-110472776D01*
X152248496Y-110472776D02*
X152296115Y-110568014D01*
X152296115Y-110568014D02*
X152343734Y-110758490D01*
X152343734Y-110758490D02*
X152343734Y-110901347D01*
X152343734Y-110901347D02*
X152296115Y-111091823D01*
X152296115Y-111091823D02*
X152248496Y-111187061D01*
X152248496Y-111187061D02*
X152153258Y-111282300D01*
X152153258Y-111282300D02*
X152010401Y-111329919D01*
X152010401Y-111329919D02*
X151915163Y-111329919D01*
X151915163Y-111329919D02*
X151772306Y-111282300D01*
X151772306Y-111282300D02*
X151724687Y-111234680D01*
X151724687Y-111234680D02*
X151724687Y-110901347D01*
X151724687Y-110901347D02*
X151915163Y-110901347D01*
X151343734Y-111044204D02*
X150867544Y-111044204D01*
X151438972Y-111329919D02*
X151105639Y-110329919D01*
X151105639Y-110329919D02*
X150772306Y-111329919D01*
X150438972Y-111329919D02*
X150438972Y-110329919D01*
X149962782Y-111329919D02*
X149962782Y-110329919D01*
X149962782Y-110329919D02*
X149391354Y-111329919D01*
X149391354Y-111329919D02*
X149391354Y-110329919D01*
X154446115Y-97448966D02*
X153684211Y-97448966D01*
X154065163Y-97829919D02*
X154065163Y-97068014D01*
X144179925Y-108319919D02*
X144656115Y-108319919D01*
X144656115Y-108319919D02*
X144656115Y-107319919D01*
X143275163Y-108319919D02*
X143608496Y-107843728D01*
X143846591Y-108319919D02*
X143846591Y-107319919D01*
X143846591Y-107319919D02*
X143465639Y-107319919D01*
X143465639Y-107319919D02*
X143370401Y-107367538D01*
X143370401Y-107367538D02*
X143322782Y-107415157D01*
X143322782Y-107415157D02*
X143275163Y-107510395D01*
X143275163Y-107510395D02*
X143275163Y-107653252D01*
X143275163Y-107653252D02*
X143322782Y-107748490D01*
X143322782Y-107748490D02*
X143370401Y-107796109D01*
X143370401Y-107796109D02*
X143465639Y-107843728D01*
X143465639Y-107843728D02*
X143846591Y-107843728D01*
X142275163Y-108224680D02*
X142322782Y-108272300D01*
X142322782Y-108272300D02*
X142465639Y-108319919D01*
X142465639Y-108319919D02*
X142560877Y-108319919D01*
X142560877Y-108319919D02*
X142703734Y-108272300D01*
X142703734Y-108272300D02*
X142798972Y-108177061D01*
X142798972Y-108177061D02*
X142846591Y-108081823D01*
X142846591Y-108081823D02*
X142894210Y-107891347D01*
X142894210Y-107891347D02*
X142894210Y-107748490D01*
X142894210Y-107748490D02*
X142846591Y-107558014D01*
X142846591Y-107558014D02*
X142798972Y-107462776D01*
X142798972Y-107462776D02*
X142703734Y-107367538D01*
X142703734Y-107367538D02*
X142560877Y-107319919D01*
X142560877Y-107319919D02*
X142465639Y-107319919D01*
X142465639Y-107319919D02*
X142322782Y-107367538D01*
X142322782Y-107367538D02*
X142275163Y-107415157D01*
D11*
X97833332Y-112087200D02*
X97690475Y-112134819D01*
X97690475Y-112134819D02*
X97452380Y-112134819D01*
X97452380Y-112134819D02*
X97357142Y-112087200D01*
X97357142Y-112087200D02*
X97309523Y-112039580D01*
X97309523Y-112039580D02*
X97261904Y-111944342D01*
X97261904Y-111944342D02*
X97261904Y-111849104D01*
X97261904Y-111849104D02*
X97309523Y-111753866D01*
X97309523Y-111753866D02*
X97357142Y-111706247D01*
X97357142Y-111706247D02*
X97452380Y-111658628D01*
X97452380Y-111658628D02*
X97642856Y-111611009D01*
X97642856Y-111611009D02*
X97738094Y-111563390D01*
X97738094Y-111563390D02*
X97785713Y-111515771D01*
X97785713Y-111515771D02*
X97833332Y-111420533D01*
X97833332Y-111420533D02*
X97833332Y-111325295D01*
X97833332Y-111325295D02*
X97785713Y-111230057D01*
X97785713Y-111230057D02*
X97738094Y-111182438D01*
X97738094Y-111182438D02*
X97642856Y-111134819D01*
X97642856Y-111134819D02*
X97404761Y-111134819D01*
X97404761Y-111134819D02*
X97261904Y-111182438D01*
X96928570Y-111134819D02*
X96690475Y-112134819D01*
X96690475Y-112134819D02*
X96499999Y-111420533D01*
X96499999Y-111420533D02*
X96309523Y-112134819D01*
X96309523Y-112134819D02*
X96071428Y-111134819D01*
X95785713Y-111134819D02*
X95166666Y-111134819D01*
X95166666Y-111134819D02*
X95499999Y-111515771D01*
X95499999Y-111515771D02*
X95357142Y-111515771D01*
X95357142Y-111515771D02*
X95261904Y-111563390D01*
X95261904Y-111563390D02*
X95214285Y-111611009D01*
X95214285Y-111611009D02*
X95166666Y-111706247D01*
X95166666Y-111706247D02*
X95166666Y-111944342D01*
X95166666Y-111944342D02*
X95214285Y-112039580D01*
X95214285Y-112039580D02*
X95261904Y-112087200D01*
X95261904Y-112087200D02*
X95357142Y-112134819D01*
X95357142Y-112134819D02*
X95642856Y-112134819D01*
X95642856Y-112134819D02*
X95738094Y-112087200D01*
X95738094Y-112087200D02*
X95785713Y-112039580D01*
D10*
X154446115Y-74448966D02*
X153684211Y-74448966D01*
X154065163Y-74829919D02*
X154065163Y-74068014D01*
X156832306Y-87387538D02*
X156927544Y-87339919D01*
X156927544Y-87339919D02*
X157070401Y-87339919D01*
X157070401Y-87339919D02*
X157213258Y-87387538D01*
X157213258Y-87387538D02*
X157308496Y-87482776D01*
X157308496Y-87482776D02*
X157356115Y-87578014D01*
X157356115Y-87578014D02*
X157403734Y-87768490D01*
X157403734Y-87768490D02*
X157403734Y-87911347D01*
X157403734Y-87911347D02*
X157356115Y-88101823D01*
X157356115Y-88101823D02*
X157308496Y-88197061D01*
X157308496Y-88197061D02*
X157213258Y-88292300D01*
X157213258Y-88292300D02*
X157070401Y-88339919D01*
X157070401Y-88339919D02*
X156975163Y-88339919D01*
X156975163Y-88339919D02*
X156832306Y-88292300D01*
X156832306Y-88292300D02*
X156784687Y-88244680D01*
X156784687Y-88244680D02*
X156784687Y-87911347D01*
X156784687Y-87911347D02*
X156975163Y-87911347D01*
X156356115Y-88339919D02*
X156356115Y-87339919D01*
X156356115Y-87339919D02*
X155784687Y-88339919D01*
X155784687Y-88339919D02*
X155784687Y-87339919D01*
X155308496Y-88339919D02*
X155308496Y-87339919D01*
X155308496Y-87339919D02*
X155070401Y-87339919D01*
X155070401Y-87339919D02*
X154927544Y-87387538D01*
X154927544Y-87387538D02*
X154832306Y-87482776D01*
X154832306Y-87482776D02*
X154784687Y-87578014D01*
X154784687Y-87578014D02*
X154737068Y-87768490D01*
X154737068Y-87768490D02*
X154737068Y-87911347D01*
X154737068Y-87911347D02*
X154784687Y-88101823D01*
X154784687Y-88101823D02*
X154832306Y-88197061D01*
X154832306Y-88197061D02*
X154927544Y-88292300D01*
X154927544Y-88292300D02*
X155070401Y-88339919D01*
X155070401Y-88339919D02*
X155308496Y-88339919D01*
X147322782Y-87746109D02*
X147179925Y-87793728D01*
X147179925Y-87793728D02*
X147132306Y-87841347D01*
X147132306Y-87841347D02*
X147084687Y-87936585D01*
X147084687Y-87936585D02*
X147084687Y-88079442D01*
X147084687Y-88079442D02*
X147132306Y-88174680D01*
X147132306Y-88174680D02*
X147179925Y-88222300D01*
X147179925Y-88222300D02*
X147275163Y-88269919D01*
X147275163Y-88269919D02*
X147656115Y-88269919D01*
X147656115Y-88269919D02*
X147656115Y-87269919D01*
X147656115Y-87269919D02*
X147322782Y-87269919D01*
X147322782Y-87269919D02*
X147227544Y-87317538D01*
X147227544Y-87317538D02*
X147179925Y-87365157D01*
X147179925Y-87365157D02*
X147132306Y-87460395D01*
X147132306Y-87460395D02*
X147132306Y-87555633D01*
X147132306Y-87555633D02*
X147179925Y-87650871D01*
X147179925Y-87650871D02*
X147227544Y-87698490D01*
X147227544Y-87698490D02*
X147322782Y-87746109D01*
X147322782Y-87746109D02*
X147656115Y-87746109D01*
X146084687Y-88174680D02*
X146132306Y-88222300D01*
X146132306Y-88222300D02*
X146275163Y-88269919D01*
X146275163Y-88269919D02*
X146370401Y-88269919D01*
X146370401Y-88269919D02*
X146513258Y-88222300D01*
X146513258Y-88222300D02*
X146608496Y-88127061D01*
X146608496Y-88127061D02*
X146656115Y-88031823D01*
X146656115Y-88031823D02*
X146703734Y-87841347D01*
X146703734Y-87841347D02*
X146703734Y-87698490D01*
X146703734Y-87698490D02*
X146656115Y-87508014D01*
X146656115Y-87508014D02*
X146608496Y-87412776D01*
X146608496Y-87412776D02*
X146513258Y-87317538D01*
X146513258Y-87317538D02*
X146370401Y-87269919D01*
X146370401Y-87269919D02*
X146275163Y-87269919D01*
X146275163Y-87269919D02*
X146132306Y-87317538D01*
X146132306Y-87317538D02*
X146084687Y-87365157D01*
X145179925Y-88269919D02*
X145656115Y-88269919D01*
X145656115Y-88269919D02*
X145656115Y-87269919D01*
X144846591Y-88269919D02*
X144846591Y-87269919D01*
X144275163Y-88269919D02*
X144703734Y-87698490D01*
X144275163Y-87269919D02*
X144846591Y-87841347D01*
X154323734Y-85222300D02*
X154180877Y-85269919D01*
X154180877Y-85269919D02*
X153942782Y-85269919D01*
X153942782Y-85269919D02*
X153847544Y-85222300D01*
X153847544Y-85222300D02*
X153799925Y-85174680D01*
X153799925Y-85174680D02*
X153752306Y-85079442D01*
X153752306Y-85079442D02*
X153752306Y-84984204D01*
X153752306Y-84984204D02*
X153799925Y-84888966D01*
X153799925Y-84888966D02*
X153847544Y-84841347D01*
X153847544Y-84841347D02*
X153942782Y-84793728D01*
X153942782Y-84793728D02*
X154133258Y-84746109D01*
X154133258Y-84746109D02*
X154228496Y-84698490D01*
X154228496Y-84698490D02*
X154276115Y-84650871D01*
X154276115Y-84650871D02*
X154323734Y-84555633D01*
X154323734Y-84555633D02*
X154323734Y-84460395D01*
X154323734Y-84460395D02*
X154276115Y-84365157D01*
X154276115Y-84365157D02*
X154228496Y-84317538D01*
X154228496Y-84317538D02*
X154133258Y-84269919D01*
X154133258Y-84269919D02*
X153895163Y-84269919D01*
X153895163Y-84269919D02*
X153752306Y-84317538D01*
X153323734Y-85269919D02*
X153323734Y-84269919D01*
X153323734Y-84269919D02*
X153085639Y-84269919D01*
X153085639Y-84269919D02*
X152942782Y-84317538D01*
X152942782Y-84317538D02*
X152847544Y-84412776D01*
X152847544Y-84412776D02*
X152799925Y-84508014D01*
X152799925Y-84508014D02*
X152752306Y-84698490D01*
X152752306Y-84698490D02*
X152752306Y-84841347D01*
X152752306Y-84841347D02*
X152799925Y-85031823D01*
X152799925Y-85031823D02*
X152847544Y-85127061D01*
X152847544Y-85127061D02*
X152942782Y-85222300D01*
X152942782Y-85222300D02*
X153085639Y-85269919D01*
X153085639Y-85269919D02*
X153323734Y-85269919D01*
X148446115Y-74438966D02*
X147684211Y-74438966D01*
X151772306Y-87377538D02*
X151867544Y-87329919D01*
X151867544Y-87329919D02*
X152010401Y-87329919D01*
X152010401Y-87329919D02*
X152153258Y-87377538D01*
X152153258Y-87377538D02*
X152248496Y-87472776D01*
X152248496Y-87472776D02*
X152296115Y-87568014D01*
X152296115Y-87568014D02*
X152343734Y-87758490D01*
X152343734Y-87758490D02*
X152343734Y-87901347D01*
X152343734Y-87901347D02*
X152296115Y-88091823D01*
X152296115Y-88091823D02*
X152248496Y-88187061D01*
X152248496Y-88187061D02*
X152153258Y-88282300D01*
X152153258Y-88282300D02*
X152010401Y-88329919D01*
X152010401Y-88329919D02*
X151915163Y-88329919D01*
X151915163Y-88329919D02*
X151772306Y-88282300D01*
X151772306Y-88282300D02*
X151724687Y-88234680D01*
X151724687Y-88234680D02*
X151724687Y-87901347D01*
X151724687Y-87901347D02*
X151915163Y-87901347D01*
X151343734Y-88044204D02*
X150867544Y-88044204D01*
X151438972Y-88329919D02*
X151105639Y-87329919D01*
X151105639Y-87329919D02*
X150772306Y-88329919D01*
X150438972Y-88329919D02*
X150438972Y-87329919D01*
X149962782Y-88329919D02*
X149962782Y-87329919D01*
X149962782Y-87329919D02*
X149391354Y-88329919D01*
X149391354Y-88329919D02*
X149391354Y-87329919D01*
X144179925Y-85319919D02*
X144656115Y-85319919D01*
X144656115Y-85319919D02*
X144656115Y-84319919D01*
X143275163Y-85319919D02*
X143608496Y-84843728D01*
X143846591Y-85319919D02*
X143846591Y-84319919D01*
X143846591Y-84319919D02*
X143465639Y-84319919D01*
X143465639Y-84319919D02*
X143370401Y-84367538D01*
X143370401Y-84367538D02*
X143322782Y-84415157D01*
X143322782Y-84415157D02*
X143275163Y-84510395D01*
X143275163Y-84510395D02*
X143275163Y-84653252D01*
X143275163Y-84653252D02*
X143322782Y-84748490D01*
X143322782Y-84748490D02*
X143370401Y-84796109D01*
X143370401Y-84796109D02*
X143465639Y-84843728D01*
X143465639Y-84843728D02*
X143846591Y-84843728D01*
X142275163Y-85224680D02*
X142322782Y-85272300D01*
X142322782Y-85272300D02*
X142465639Y-85319919D01*
X142465639Y-85319919D02*
X142560877Y-85319919D01*
X142560877Y-85319919D02*
X142703734Y-85272300D01*
X142703734Y-85272300D02*
X142798972Y-85177061D01*
X142798972Y-85177061D02*
X142846591Y-85081823D01*
X142846591Y-85081823D02*
X142894210Y-84891347D01*
X142894210Y-84891347D02*
X142894210Y-84748490D01*
X142894210Y-84748490D02*
X142846591Y-84558014D01*
X142846591Y-84558014D02*
X142798972Y-84462776D01*
X142798972Y-84462776D02*
X142703734Y-84367538D01*
X142703734Y-84367538D02*
X142560877Y-84319919D01*
X142560877Y-84319919D02*
X142465639Y-84319919D01*
X142465639Y-84319919D02*
X142322782Y-84367538D01*
X142322782Y-84367538D02*
X142275163Y-84415157D01*
X149456115Y-85319919D02*
X149456115Y-84319919D01*
X149456115Y-84319919D02*
X149218020Y-84319919D01*
X149218020Y-84319919D02*
X149075163Y-84367538D01*
X149075163Y-84367538D02*
X148979925Y-84462776D01*
X148979925Y-84462776D02*
X148932306Y-84558014D01*
X148932306Y-84558014D02*
X148884687Y-84748490D01*
X148884687Y-84748490D02*
X148884687Y-84891347D01*
X148884687Y-84891347D02*
X148932306Y-85081823D01*
X148932306Y-85081823D02*
X148979925Y-85177061D01*
X148979925Y-85177061D02*
X149075163Y-85272300D01*
X149075163Y-85272300D02*
X149218020Y-85319919D01*
X149218020Y-85319919D02*
X149456115Y-85319919D01*
X148456115Y-85319919D02*
X148456115Y-84319919D01*
X147979925Y-85319919D02*
X147979925Y-84319919D01*
X147979925Y-84319919D02*
X147408497Y-85319919D01*
X147408497Y-85319919D02*
X147408497Y-84319919D01*
X159588972Y-84319919D02*
X159255639Y-85319919D01*
X159255639Y-85319919D02*
X158922306Y-84319919D01*
X158588972Y-85319919D02*
X158588972Y-84319919D01*
X158112782Y-85319919D02*
X158112782Y-84319919D01*
X158112782Y-84319919D02*
X157541354Y-85319919D01*
X157541354Y-85319919D02*
X157541354Y-84319919D01*
D11*
X97833332Y-94437200D02*
X97690475Y-94484819D01*
X97690475Y-94484819D02*
X97452380Y-94484819D01*
X97452380Y-94484819D02*
X97357142Y-94437200D01*
X97357142Y-94437200D02*
X97309523Y-94389580D01*
X97309523Y-94389580D02*
X97261904Y-94294342D01*
X97261904Y-94294342D02*
X97261904Y-94199104D01*
X97261904Y-94199104D02*
X97309523Y-94103866D01*
X97309523Y-94103866D02*
X97357142Y-94056247D01*
X97357142Y-94056247D02*
X97452380Y-94008628D01*
X97452380Y-94008628D02*
X97642856Y-93961009D01*
X97642856Y-93961009D02*
X97738094Y-93913390D01*
X97738094Y-93913390D02*
X97785713Y-93865771D01*
X97785713Y-93865771D02*
X97833332Y-93770533D01*
X97833332Y-93770533D02*
X97833332Y-93675295D01*
X97833332Y-93675295D02*
X97785713Y-93580057D01*
X97785713Y-93580057D02*
X97738094Y-93532438D01*
X97738094Y-93532438D02*
X97642856Y-93484819D01*
X97642856Y-93484819D02*
X97404761Y-93484819D01*
X97404761Y-93484819D02*
X97261904Y-93532438D01*
X96928570Y-93484819D02*
X96690475Y-94484819D01*
X96690475Y-94484819D02*
X96499999Y-93770533D01*
X96499999Y-93770533D02*
X96309523Y-94484819D01*
X96309523Y-94484819D02*
X96071428Y-93484819D01*
X95738094Y-93580057D02*
X95690475Y-93532438D01*
X95690475Y-93532438D02*
X95595237Y-93484819D01*
X95595237Y-93484819D02*
X95357142Y-93484819D01*
X95357142Y-93484819D02*
X95261904Y-93532438D01*
X95261904Y-93532438D02*
X95214285Y-93580057D01*
X95214285Y-93580057D02*
X95166666Y-93675295D01*
X95166666Y-93675295D02*
X95166666Y-93770533D01*
X95166666Y-93770533D02*
X95214285Y-93913390D01*
X95214285Y-93913390D02*
X95785713Y-94484819D01*
X95785713Y-94484819D02*
X95166666Y-94484819D01*
X97833332Y-129407200D02*
X97690475Y-129454819D01*
X97690475Y-129454819D02*
X97452380Y-129454819D01*
X97452380Y-129454819D02*
X97357142Y-129407200D01*
X97357142Y-129407200D02*
X97309523Y-129359580D01*
X97309523Y-129359580D02*
X97261904Y-129264342D01*
X97261904Y-129264342D02*
X97261904Y-129169104D01*
X97261904Y-129169104D02*
X97309523Y-129073866D01*
X97309523Y-129073866D02*
X97357142Y-129026247D01*
X97357142Y-129026247D02*
X97452380Y-128978628D01*
X97452380Y-128978628D02*
X97642856Y-128931009D01*
X97642856Y-128931009D02*
X97738094Y-128883390D01*
X97738094Y-128883390D02*
X97785713Y-128835771D01*
X97785713Y-128835771D02*
X97833332Y-128740533D01*
X97833332Y-128740533D02*
X97833332Y-128645295D01*
X97833332Y-128645295D02*
X97785713Y-128550057D01*
X97785713Y-128550057D02*
X97738094Y-128502438D01*
X97738094Y-128502438D02*
X97642856Y-128454819D01*
X97642856Y-128454819D02*
X97404761Y-128454819D01*
X97404761Y-128454819D02*
X97261904Y-128502438D01*
X96928570Y-128454819D02*
X96690475Y-129454819D01*
X96690475Y-129454819D02*
X96499999Y-128740533D01*
X96499999Y-128740533D02*
X96309523Y-129454819D01*
X96309523Y-129454819D02*
X96071428Y-128454819D01*
X95214285Y-128454819D02*
X95690475Y-128454819D01*
X95690475Y-128454819D02*
X95738094Y-128931009D01*
X95738094Y-128931009D02*
X95690475Y-128883390D01*
X95690475Y-128883390D02*
X95595237Y-128835771D01*
X95595237Y-128835771D02*
X95357142Y-128835771D01*
X95357142Y-128835771D02*
X95261904Y-128883390D01*
X95261904Y-128883390D02*
X95214285Y-128931009D01*
X95214285Y-128931009D02*
X95166666Y-129026247D01*
X95166666Y-129026247D02*
X95166666Y-129264342D01*
X95166666Y-129264342D02*
X95214285Y-129359580D01*
X95214285Y-129359580D02*
X95261904Y-129407200D01*
X95261904Y-129407200D02*
X95357142Y-129454819D01*
X95357142Y-129454819D02*
X95595237Y-129454819D01*
X95595237Y-129454819D02*
X95690475Y-129407200D01*
X95690475Y-129407200D02*
X95738094Y-129359580D01*
X98333332Y-75437200D02*
X98190475Y-75484819D01*
X98190475Y-75484819D02*
X97952380Y-75484819D01*
X97952380Y-75484819D02*
X97857142Y-75437200D01*
X97857142Y-75437200D02*
X97809523Y-75389580D01*
X97809523Y-75389580D02*
X97761904Y-75294342D01*
X97761904Y-75294342D02*
X97761904Y-75199104D01*
X97761904Y-75199104D02*
X97809523Y-75103866D01*
X97809523Y-75103866D02*
X97857142Y-75056247D01*
X97857142Y-75056247D02*
X97952380Y-75008628D01*
X97952380Y-75008628D02*
X98142856Y-74961009D01*
X98142856Y-74961009D02*
X98238094Y-74913390D01*
X98238094Y-74913390D02*
X98285713Y-74865771D01*
X98285713Y-74865771D02*
X98333332Y-74770533D01*
X98333332Y-74770533D02*
X98333332Y-74675295D01*
X98333332Y-74675295D02*
X98285713Y-74580057D01*
X98285713Y-74580057D02*
X98238094Y-74532438D01*
X98238094Y-74532438D02*
X98142856Y-74484819D01*
X98142856Y-74484819D02*
X97904761Y-74484819D01*
X97904761Y-74484819D02*
X97761904Y-74532438D01*
X97428570Y-74484819D02*
X97190475Y-75484819D01*
X97190475Y-75484819D02*
X96999999Y-74770533D01*
X96999999Y-74770533D02*
X96809523Y-75484819D01*
X96809523Y-75484819D02*
X96571428Y-74484819D01*
X95666666Y-75484819D02*
X96238094Y-75484819D01*
X95952380Y-75484819D02*
X95952380Y-74484819D01*
X95952380Y-74484819D02*
X96047618Y-74627676D01*
X96047618Y-74627676D02*
X96142856Y-74722914D01*
X96142856Y-74722914D02*
X96238094Y-74770533D01*
D10*
%TO.C,RSPKR1*%
X142130000Y-109192500D02*
X142130000Y-95222500D01*
X144650000Y-92712500D02*
X157350000Y-92712500D01*
X157350000Y-111752500D02*
X144650000Y-111752500D01*
X159880000Y-95267500D02*
X159880000Y-109237500D01*
X142130001Y-95222500D02*
G75*
G02*
X144650000Y-92712418I2536049J-26050D01*
G01*
X144650002Y-111752499D02*
G75*
G02*
X142130001Y-109192500I19998J2539999D01*
G01*
X157350000Y-92712501D02*
G75*
G02*
X159879974Y-95267499I-10000J-2539999D01*
G01*
X159889816Y-109237620D02*
G75*
G02*
X157350000Y-111752500I-2545866J31170D01*
G01*
D11*
%TO.C,SW3*%
X94500000Y-115180000D02*
X94500000Y-115680000D01*
X94500000Y-119280000D02*
X94500000Y-119880000D01*
X94500000Y-119880000D02*
X99000000Y-119880000D01*
X99000000Y-115180000D02*
X94500000Y-115180000D01*
X99000000Y-115880000D02*
X99000000Y-115180000D01*
X99500000Y-120380000D02*
X99500000Y-121380000D01*
X100000000Y-121880000D02*
X99500000Y-121380000D01*
X103000000Y-117380000D02*
X100500000Y-117380000D01*
X103000000Y-121880000D02*
X100000000Y-121880000D01*
X103500000Y-117880000D02*
X103000000Y-117380000D01*
X103500000Y-121380000D02*
X103000000Y-121880000D01*
X99000000Y-119880000D02*
G75*
G02*
X99500000Y-120380000I-1J-500001D01*
G01*
X100500000Y-117380000D02*
G75*
G02*
X99000000Y-115880000I1J1500001D01*
G01*
D10*
%TO.C,L_SPKR1*%
X142130000Y-86192500D02*
X142130000Y-72222500D01*
X144650000Y-69712500D02*
X157350000Y-69712500D01*
X157350000Y-88752500D02*
X144650000Y-88752500D01*
X159880000Y-72267500D02*
X159880000Y-86237500D01*
X142130001Y-72222500D02*
G75*
G02*
X144650000Y-69712418I2536049J-26050D01*
G01*
X144650002Y-88752499D02*
G75*
G02*
X142130001Y-86192500I19998J2539999D01*
G01*
X157350000Y-69712501D02*
G75*
G02*
X159879974Y-72267499I-10000J-2539999D01*
G01*
X159889816Y-86237620D02*
G75*
G02*
X157350000Y-88752500I-2545866J31170D01*
G01*
D11*
%TO.C,SW2*%
X94500000Y-97530000D02*
X94500000Y-98030000D01*
X94500000Y-101630000D02*
X94500000Y-102230000D01*
X94500000Y-102230000D02*
X99000000Y-102230000D01*
X99000000Y-97530000D02*
X94500000Y-97530000D01*
X99000000Y-98230000D02*
X99000000Y-97530000D01*
X99500000Y-102730000D02*
X99500000Y-103730000D01*
X100000000Y-104230000D02*
X99500000Y-103730000D01*
X103000000Y-99730000D02*
X100500000Y-99730000D01*
X103000000Y-104230000D02*
X100000000Y-104230000D01*
X103500000Y-100230000D02*
X103000000Y-99730000D01*
X103500000Y-103730000D02*
X103000000Y-104230000D01*
X99000000Y-102230000D02*
G75*
G02*
X99500000Y-102730000I-1J-500001D01*
G01*
X100500000Y-99730000D02*
G75*
G02*
X99000000Y-98230000I1J1500001D01*
G01*
%TO.C,SW5*%
X94500000Y-132500000D02*
X94500000Y-133000000D01*
X94500000Y-136600000D02*
X94500000Y-137200000D01*
X94500000Y-137200000D02*
X99000000Y-137200000D01*
X99000000Y-132500000D02*
X94500000Y-132500000D01*
X99000000Y-133200000D02*
X99000000Y-132500000D01*
X99500000Y-137700000D02*
X99500000Y-138700000D01*
X100000000Y-139200000D02*
X99500000Y-138700000D01*
X103000000Y-134700000D02*
X100500000Y-134700000D01*
X103000000Y-139200000D02*
X100000000Y-139200000D01*
X103500000Y-135200000D02*
X103000000Y-134700000D01*
X103500000Y-138700000D02*
X103000000Y-139200000D01*
X99000000Y-137200000D02*
G75*
G02*
X99500000Y-137700000I-1J-500001D01*
G01*
X100500000Y-134700000D02*
G75*
G02*
X99000000Y-133200000I1J1500001D01*
G01*
%TO.C,SW1*%
X95000000Y-78530000D02*
X95000000Y-79030000D01*
X95000000Y-82630000D02*
X95000000Y-83230000D01*
X95000000Y-83230000D02*
X99500000Y-83230000D01*
X99500000Y-78530000D02*
X95000000Y-78530000D01*
X99500000Y-79230000D02*
X99500000Y-78530000D01*
X100000000Y-83730000D02*
X100000000Y-84730000D01*
X100500000Y-85230000D02*
X100000000Y-84730000D01*
X103500000Y-80730000D02*
X101000000Y-80730000D01*
X103500000Y-85230000D02*
X100500000Y-85230000D01*
X104000000Y-81230000D02*
X103500000Y-80730000D01*
X104000000Y-84730000D02*
X103500000Y-85230000D01*
X99500000Y-83230000D02*
G75*
G02*
X100000000Y-83730000I-1J-500001D01*
G01*
X101000000Y-80730000D02*
G75*
G02*
X99500000Y-79230000I1J1500001D01*
G01*
%TD*%
M02*
