M48
; DRILL file {KiCad 8.0.4} date 2024-11-06T19:34:07-0700
; FORMAT={-:-/ absolute / metric / decimal}
; #@! TF.CreationDate,2024-11-06T19:34:07-07:00
; #@! TF.GenerationSoftware,Kicad,Pcbnew,8.0.4
; #@! TF.FileFunction,Plated,1,2,PTH
FMAT,2
METRIC
; #@! TA.AperFunction,Plated,PTH,ViaDrill
T1C0.300
; #@! TA.AperFunction,Plated,PTH,ComponentDrill
T2C0.400
; #@! TA.AperFunction,Plated,PTH,ViaDrill
T3C0.500
; #@! TA.AperFunction,Plated,PTH,ComponentDrill
T4C0.700
; #@! TA.AperFunction,Plated,PTH,ComponentDrill
T5C0.750
; #@! TA.AperFunction,Plated,PTH,ComponentDrill
T6C0.762
; #@! TA.AperFunction,Plated,PTH,ComponentDrill
T7C0.800
; #@! TA.AperFunction,Plated,PTH,ComponentDrill
T8C0.889
; #@! TA.AperFunction,Plated,PTH,ComponentDrill
T9C0.900
; #@! TA.AperFunction,Plated,PTH,ComponentDrill
T10C0.950
; #@! TA.AperFunction,Plated,PTH,ComponentDrill
T11C1.000
; #@! TA.AperFunction,Plated,PTH,ComponentDrill
T12C1.300
; #@! TA.AperFunction,Plated,PTH,ComponentDrill
T13C1.500
%
G90
G05
T1
X96.0Y-121.5
X131.064Y-55.118
X137.922Y-62.992
X141.986Y-120.65
X144.526Y-118.364
X149.098Y-131.064
X162.56Y-126.492
T3
X119.634Y-120.904
X131.064Y-120.142
T4
X95.19Y-105.0
X98.19Y-67.0
X102.81Y-105.0
X105.81Y-67.0
X110.5Y-119.69
X110.5Y-127.31
X111.0Y-109.0
X111.0Y-116.62
X129.19Y-123.0
X136.81Y-123.0
X140.19Y-125.0
X147.81Y-125.0
X155.0Y-117.19
X155.0Y-124.81
X163.0Y-104.19
X163.0Y-111.81
X163.19Y-93.19
X163.19Y-100.81
X165.0Y-82.19
X165.0Y-89.81
X165.19Y-111.0
X171.0Y-82.19
X171.0Y-89.81
X172.81Y-111.0
T5
X151.0Y-128.0
X152.27Y-128.0
X153.54Y-128.0
T6
X97.67Y-41.19
X97.67Y-43.73
X97.67Y-46.27
X97.67Y-48.81
X143.38Y-86.212
X143.38Y-109.212
X145.92Y-86.212
X145.92Y-109.212
X148.46Y-86.212
X148.46Y-109.212
X149.412Y-73.258
X149.412Y-96.258
X151.0Y-86.212
X151.0Y-109.212
X152.588Y-73.258
X152.588Y-96.258
X153.54Y-86.212
X153.54Y-109.212
X156.08Y-86.212
X156.08Y-109.212
X158.62Y-86.212
X158.62Y-109.212
X171.33Y-28.49
X171.33Y-31.03
X171.33Y-33.57
X171.33Y-36.11
X171.33Y-38.65
X171.33Y-41.19
X171.33Y-43.73
X171.33Y-46.27
X171.33Y-48.81
X171.33Y-51.35
X171.33Y-53.89
X171.33Y-56.43
X171.33Y-58.97
X171.33Y-61.51
T8
X114.542Y-75.55
X114.542Y-78.09
X114.542Y-80.63
X114.542Y-83.17
X114.542Y-85.71
X114.542Y-88.251
X114.542Y-90.79
X114.542Y-93.331
X114.542Y-95.87
X114.542Y-98.41
X114.542Y-100.95
X114.542Y-103.49
X114.542Y-106.03
X137.402Y-75.55
X137.402Y-78.09
X137.402Y-80.63
X137.402Y-83.17
X137.402Y-85.71
X137.402Y-88.251
X137.402Y-90.79
X137.402Y-93.331
X137.402Y-95.87
X137.402Y-98.41
X137.402Y-100.95
X137.402Y-103.49
X137.402Y-106.03
T9
X115.0Y-137.0
X117.0Y-137.0
X119.0Y-137.0
X147.0Y-137.0
X149.0Y-137.0
X151.0Y-137.0
X152.38Y-67.5
X160.0Y-67.5
T10
X116.5Y-128.0
X119.0Y-128.0
X164.0Y-137.0
X166.5Y-137.0
T11
X159.75Y-119.5
X159.75Y-122.0
X159.75Y-124.5
X174.25Y-119.5
X174.25Y-124.5
T12
X165.5Y-73.5
X170.5Y-73.5
T13
X112.9Y-137.0
X121.1Y-137.0
X144.9Y-137.0
X153.1Y-137.0
T2
G00X132.5Y-136.0
M15
G01X133.5Y-136.0
M16
G05
G00X138.0Y-131.5
M15
G01X138.0Y-130.5
M16
G05
T7
G00X128.0Y-130.65
M15
G01X128.0Y-131.35
M16
G05
G00X135.5Y-131.35
M15
G01X135.5Y-130.65
M16
G05
T13
G00X166.6Y-116.4
M15
G01X167.9Y-116.4
M16
G05
G00X166.6Y-127.6
M15
G01X167.9Y-127.6
M16
G05
M30
