%TF.GenerationSoftware,KiCad,Pcbnew,8.0.4*%
%TF.CreationDate,2024-11-06T19:28:14-07:00*%
%TF.ProjectId,MP3_Player,4d50335f-506c-4617-9965-722e6b696361,rev?*%
%TF.SameCoordinates,Original*%
%TF.FileFunction,Soldermask,Top*%
%TF.FilePolarity,Negative*%
%FSLAX46Y46*%
G04 Gerber Fmt 4.6, Leading zero omitted, Abs format (unit mm)*
G04 Created by KiCad (PCBNEW 8.0.4) date 2024-11-06 19:28:14*
%MOMM*%
%LPD*%
G01*
G04 APERTURE LIST*
G04 Aperture macros list*
%AMRoundRect*
0 Rectangle with rounded corners*
0 $1 Rounding radius*
0 $2 $3 $4 $5 $6 $7 $8 $9 X,Y pos of 4 corners*
0 Add a 4 corners polygon primitive as box body*
4,1,4,$2,$3,$4,$5,$6,$7,$8,$9,$2,$3,0*
0 Add four circle primitives for the rounded corners*
1,1,$1+$1,$2,$3*
1,1,$1+$1,$4,$5*
1,1,$1+$1,$6,$7*
1,1,$1+$1,$8,$9*
0 Add four rect primitives between the rounded corners*
20,1,$1+$1,$2,$3,$4,$5,0*
20,1,$1+$1,$4,$5,$6,$7,0*
20,1,$1+$1,$6,$7,$8,$9,0*
20,1,$1+$1,$8,$9,$2,$3,0*%
G04 Aperture macros list end*
%ADD10R,1.800000X1.800000*%
%ADD11O,1.800000X1.800000*%
%ADD12R,1.050000X1.500000*%
%ADD13O,1.050000X1.500000*%
%ADD14R,2.000000X2.000000*%
%ADD15C,2.000000*%
%ADD16R,3.200000X2.000000*%
%ADD17C,1.524000*%
%ADD18C,1.400000*%
%ADD19O,1.400000X1.400000*%
%ADD20C,1.701800*%
%ADD21C,3.000000*%
%ADD22C,3.429000*%
%ADD23C,0.990600*%
%ADD24C,1.250000*%
%ADD25RoundRect,0.250000X-0.600000X-0.725000X0.600000X-0.725000X0.600000X0.725000X-0.600000X0.725000X0*%
%ADD26O,1.700000X1.950000*%
%ADD27O,2.200000X3.500000*%
%ADD28R,1.500000X2.500000*%
%ADD29O,1.500000X2.500000*%
%ADD30R,2.500000X2.500000*%
%ADD31C,2.500000*%
%ADD32O,2.286000X1.270000*%
%ADD33C,2.794000*%
%ADD34R,1.524000X1.524000*%
%ADD35C,1.200000*%
%ADD36O,1.200000X2.200000*%
%ADD37O,2.200000X1.200000*%
%ADD38O,1.600000X2.300000*%
G04 APERTURE END LIST*
D10*
%TO.C,D1*%
X152380000Y-67500000D03*
D11*
X160000000Y-67500000D03*
%TD*%
D12*
%TO.C,Q1*%
X151000000Y-128000000D03*
D13*
X152270000Y-128000000D03*
X153540000Y-128000000D03*
%TD*%
D14*
%TO.C,Primary Rotary Encoder1*%
X159750000Y-119500000D03*
D15*
X159750000Y-124500000D03*
X159750000Y-122000000D03*
D16*
X167250000Y-116400000D03*
X167250000Y-127600000D03*
D15*
X174250000Y-124500000D03*
X174250000Y-119500000D03*
%TD*%
D17*
%TO.C,RSPKR1*%
X158620000Y-109212500D03*
X153540000Y-109212500D03*
X143380000Y-109212500D03*
X156080000Y-109212500D03*
X151000000Y-109212500D03*
X148460000Y-109212500D03*
X145920000Y-109212500D03*
X149412500Y-96258500D03*
X152587500Y-96258500D03*
%TD*%
D18*
%TO.C,R10*%
X163000000Y-104190000D03*
D19*
X163000000Y-111810000D03*
%TD*%
D20*
%TO.C,SW3*%
X96000000Y-113680000D03*
D21*
X96500000Y-117430000D03*
D22*
X101500000Y-113680000D03*
D21*
X101500000Y-119630000D03*
D23*
X106720000Y-109480000D03*
D20*
X107000000Y-113680000D03*
%TD*%
D18*
%TO.C,R8*%
X171000000Y-82190000D03*
D19*
X171000000Y-89810000D03*
%TD*%
D24*
%TO.C,To_LiPo_Cell1*%
X162400000Y-138600000D03*
D25*
X164000000Y-137000000D03*
D26*
X166500000Y-137000000D03*
%TD*%
D27*
%TO.C,SW4*%
X112900000Y-137000000D03*
X121100000Y-137000000D03*
D28*
X115000000Y-137000000D03*
D29*
X117000000Y-137000000D03*
X119000000Y-137000000D03*
%TD*%
D30*
%TO.C,M1*%
X165500000Y-73500000D03*
D31*
X170500000Y-73500000D03*
%TD*%
D18*
%TO.C,R5*%
X110500000Y-119690000D03*
D19*
X110500000Y-127310000D03*
%TD*%
D17*
%TO.C,L_SPKR1*%
X152587500Y-73258500D03*
X149412500Y-73258500D03*
X145920000Y-86212500D03*
X148460000Y-86212500D03*
X151000000Y-86212500D03*
X156080000Y-86212500D03*
X143380000Y-86212500D03*
X153540000Y-86212500D03*
X158620000Y-86212500D03*
%TD*%
D18*
%TO.C,R9*%
X163190000Y-93190000D03*
D19*
X163190000Y-100810000D03*
%TD*%
D20*
%TO.C,SW2*%
X96000000Y-96030000D03*
D21*
X96500000Y-99780000D03*
D22*
X101500000Y-96030000D03*
D21*
X101500000Y-101980000D03*
D23*
X106720000Y-91830000D03*
D20*
X107000000Y-96030000D03*
%TD*%
D32*
%TO.C,U1*%
X137401877Y-98410500D03*
X137401877Y-100950500D03*
X137401877Y-75550500D03*
X137401877Y-95870500D03*
X137401877Y-88250500D03*
X114541877Y-103490500D03*
X137401877Y-106030500D03*
X114541877Y-100950500D03*
X137401877Y-103490500D03*
X137401877Y-93330500D03*
X137401877Y-90790500D03*
X137401877Y-85710500D03*
X137401877Y-80630500D03*
X137401877Y-78090500D03*
X137401877Y-83170500D03*
X114541877Y-93330500D03*
X114541877Y-95870500D03*
X114541877Y-98410500D03*
X114541877Y-88250500D03*
X114541877Y-90790500D03*
X114541877Y-83170500D03*
X114541877Y-85710500D03*
X114541877Y-80630500D03*
X114541877Y-106030500D03*
X114541877Y-78090500D03*
X114541877Y-75550500D03*
%TD*%
D18*
%TO.C,R2*%
X155000000Y-124810000D03*
D19*
X155000000Y-117190000D03*
%TD*%
D26*
%TO.C,To_Battery_Charger_Of_ESP_32*%
X119000000Y-128000000D03*
D25*
X116500000Y-128000000D03*
D24*
X114900000Y-129600000D03*
%TD*%
D18*
%TO.C,R3*%
X98190000Y-67000000D03*
D19*
X105810000Y-67000000D03*
%TD*%
D20*
%TO.C,SW5*%
X96000000Y-131000000D03*
D21*
X96500000Y-134750000D03*
D22*
X101500000Y-131000000D03*
D21*
X101500000Y-136950000D03*
D23*
X106720000Y-126800000D03*
D20*
X107000000Y-131000000D03*
%TD*%
D18*
%TO.C,R4*%
X111000000Y-109000000D03*
D19*
X111000000Y-116620000D03*
%TD*%
D18*
%TO.C,R11*%
X165190000Y-111000000D03*
D19*
X172810000Y-111000000D03*
%TD*%
D18*
%TO.C,R12*%
X140190000Y-125000000D03*
D19*
X147810000Y-125000000D03*
%TD*%
D18*
%TO.C,R1*%
X129190000Y-123000000D03*
D19*
X136810000Y-123000000D03*
%TD*%
D20*
%TO.C,SW1*%
X96500000Y-77030000D03*
D21*
X97000000Y-80780000D03*
D22*
X102000000Y-77030000D03*
D21*
X102000000Y-82980000D03*
D23*
X107220000Y-72830000D03*
D20*
X107500000Y-77030000D03*
%TD*%
D18*
%TO.C,R6*%
X95190000Y-105000000D03*
D19*
X102810000Y-105000000D03*
%TD*%
D18*
%TO.C,R7*%
X165000000Y-89810000D03*
D19*
X165000000Y-82190000D03*
%TD*%
D27*
%TO.C,SW6*%
X144900000Y-137000000D03*
X153100000Y-137000000D03*
D28*
X147000000Y-137000000D03*
D29*
X149000000Y-137000000D03*
X151000000Y-137000000D03*
%TD*%
D33*
%TO.C,Screen&SDCardReader1*%
X166250000Y-62780000D03*
X166250000Y-27220000D03*
X98940000Y-62780000D03*
X98940000Y-27220000D03*
D17*
X171330000Y-56430000D03*
X171330000Y-51350000D03*
X171330000Y-58970000D03*
X171330000Y-43730000D03*
X171330000Y-53890000D03*
X171330000Y-46270000D03*
X171330000Y-48810000D03*
X171330000Y-41190000D03*
D34*
X97670000Y-48810000D03*
D17*
X97670000Y-43730000D03*
X97670000Y-46270000D03*
X97670000Y-41190000D03*
X171330000Y-38650000D03*
X171330000Y-36110000D03*
X171330000Y-33570000D03*
X171330000Y-31030000D03*
X171330000Y-28490000D03*
D34*
X171330000Y-61510000D03*
%TD*%
D35*
%TO.C,J1*%
X128000000Y-136000000D03*
X128000000Y-138500000D03*
X133000000Y-131000000D03*
X138000000Y-136000000D03*
X138000000Y-138500000D03*
D36*
X128000000Y-131000000D03*
D37*
X133000000Y-136000000D03*
D36*
X138000000Y-131000000D03*
D38*
X135500000Y-131000000D03*
%TD*%
M02*
