%TF.GenerationSoftware,KiCad,Pcbnew,8.0.4*%
%TF.CreationDate,2024-11-06T19:28:14-07:00*%
%TF.ProjectId,MP3_Player,4d50335f-506c-4617-9965-722e6b696361,rev?*%
%TF.SameCoordinates,Original*%
%TF.FileFunction,Copper,L1,Top*%
%TF.FilePolarity,Positive*%
%FSLAX46Y46*%
G04 Gerber Fmt 4.6, Leading zero omitted, Abs format (unit mm)*
G04 Created by KiCad (PCBNEW 8.0.4) date 2024-11-06 19:28:14*
%MOMM*%
%LPD*%
G01*
G04 APERTURE LIST*
G04 Aperture macros list*
%AMRoundRect*
0 Rectangle with rounded corners*
0 $1 Rounding radius*
0 $2 $3 $4 $5 $6 $7 $8 $9 X,Y pos of 4 corners*
0 Add a 4 corners polygon primitive as box body*
4,1,4,$2,$3,$4,$5,$6,$7,$8,$9,$2,$3,0*
0 Add four circle primitives for the rounded corners*
1,1,$1+$1,$2,$3*
1,1,$1+$1,$4,$5*
1,1,$1+$1,$6,$7*
1,1,$1+$1,$8,$9*
0 Add four rect primitives between the rounded corners*
20,1,$1+$1,$2,$3,$4,$5,0*
20,1,$1+$1,$4,$5,$6,$7,0*
20,1,$1+$1,$6,$7,$8,$9,0*
20,1,$1+$1,$8,$9,$2,$3,0*%
G04 Aperture macros list end*
%TA.AperFunction,ComponentPad*%
%ADD10R,1.800000X1.800000*%
%TD*%
%TA.AperFunction,ComponentPad*%
%ADD11O,1.800000X1.800000*%
%TD*%
%TA.AperFunction,ComponentPad*%
%ADD12R,1.050000X1.500000*%
%TD*%
%TA.AperFunction,ComponentPad*%
%ADD13O,1.050000X1.500000*%
%TD*%
%TA.AperFunction,ComponentPad*%
%ADD14R,2.000000X2.000000*%
%TD*%
%TA.AperFunction,ComponentPad*%
%ADD15C,2.000000*%
%TD*%
%TA.AperFunction,ComponentPad*%
%ADD16R,3.200000X2.000000*%
%TD*%
%TA.AperFunction,ComponentPad*%
%ADD17C,1.524000*%
%TD*%
%TA.AperFunction,ComponentPad*%
%ADD18C,1.400000*%
%TD*%
%TA.AperFunction,ComponentPad*%
%ADD19O,1.400000X1.400000*%
%TD*%
%TA.AperFunction,ComponentPad*%
%ADD20RoundRect,0.250000X-0.600000X-0.725000X0.600000X-0.725000X0.600000X0.725000X-0.600000X0.725000X0*%
%TD*%
%TA.AperFunction,ComponentPad*%
%ADD21O,1.700000X1.950000*%
%TD*%
%TA.AperFunction,ComponentPad*%
%ADD22O,2.200000X3.500000*%
%TD*%
%TA.AperFunction,ComponentPad*%
%ADD23R,1.500000X2.500000*%
%TD*%
%TA.AperFunction,ComponentPad*%
%ADD24O,1.500000X2.500000*%
%TD*%
%TA.AperFunction,ComponentPad*%
%ADD25R,2.500000X2.500000*%
%TD*%
%TA.AperFunction,ComponentPad*%
%ADD26C,2.500000*%
%TD*%
%TA.AperFunction,ComponentPad*%
%ADD27O,2.286000X1.270000*%
%TD*%
%TA.AperFunction,ComponentPad*%
%ADD28R,1.524000X1.524000*%
%TD*%
%TA.AperFunction,ComponentPad*%
%ADD29O,1.200000X2.200000*%
%TD*%
%TA.AperFunction,ComponentPad*%
%ADD30O,2.200000X1.200000*%
%TD*%
%TA.AperFunction,ComponentPad*%
%ADD31O,1.600000X2.300000*%
%TD*%
%TA.AperFunction,ViaPad*%
%ADD32C,0.600000*%
%TD*%
%TA.AperFunction,ViaPad*%
%ADD33C,0.700000*%
%TD*%
%TA.AperFunction,Conductor*%
%ADD34C,0.200000*%
%TD*%
%TA.AperFunction,Conductor*%
%ADD35C,0.350000*%
%TD*%
%TA.AperFunction,Conductor*%
%ADD36C,0.700000*%
%TD*%
G04 APERTURE END LIST*
D10*
%TO.P,D1,1,K*%
%TO.N,Net-(D1-K)*%
X152380000Y-67500000D03*
D11*
%TO.P,D1,2,A*%
%TO.N,GND*%
X160000000Y-67500000D03*
%TD*%
D12*
%TO.P,Q1,1,D*%
%TO.N,/VDD*%
X151000000Y-128000000D03*
D13*
%TO.P,Q1,2,G*%
%TO.N,/Motor_Driver*%
X152270000Y-128000000D03*
%TO.P,Q1,3,S*%
%TO.N,Net-(Q1-S)*%
X153540000Y-128000000D03*
%TD*%
D14*
%TO.P,Primary Rotary Encoder1,A,A*%
%TO.N,Net-(U1-IO16)*%
X159750000Y-119500000D03*
D15*
%TO.P,Primary Rotary Encoder1,B,B*%
%TO.N,Net-(U1-IO27)*%
X159750000Y-124500000D03*
%TO.P,Primary Rotary Encoder1,C,C*%
%TO.N,GND*%
X159750000Y-122000000D03*
D16*
%TO.P,Primary Rotary Encoder1,MP*%
%TO.N,N/C*%
X167250000Y-116400000D03*
X167250000Y-127600000D03*
D15*
%TO.P,Primary Rotary Encoder1,S1,S1*%
%TO.N,Net-(U1-IO0)*%
X174250000Y-124500000D03*
%TO.P,Primary Rotary Encoder1,S2,S2*%
%TO.N,/VDD*%
X174250000Y-119500000D03*
%TD*%
D17*
%TO.P,RSPKR1,VIN,Vin*%
%TO.N,/VDD*%
X158620000Y-109212500D03*
%TO.P,RSPKR1,SD,SD*%
%TO.N,/R_Chanel_Select*%
X153540000Y-109212500D03*
%TO.P,RSPKR1,LRC,LRC*%
%TO.N,/DAC_LRC*%
X143380000Y-109212500D03*
%TO.P,RSPKR1,GND,GND*%
%TO.N,GND*%
X156080000Y-109212500D03*
%TO.P,RSPKR1,GAIN,Gain*%
%TO.N,/Gain*%
X151000000Y-109212500D03*
%TO.P,RSPKR1,DIN,DIN*%
%TO.N,/DAC_DIN*%
X148460000Y-109212500D03*
%TO.P,RSPKR1,BCLK,BCLK*%
%TO.N,/DAC_BCLK*%
X145920000Y-109212500D03*
%TO.P,RSPKR1,-,SPKR-*%
%TO.N,Net-(L_SPKR1-SPKR-)*%
X149412500Y-96258500D03*
%TO.P,RSPKR1,+,SPKR+*%
%TO.N,Net-(RSPKR1-SPKR+)*%
X152587500Y-96258500D03*
%TD*%
D18*
%TO.P,R10,1*%
%TO.N,/L_Chanel_Select*%
X163000000Y-104190000D03*
D19*
%TO.P,R10,2*%
%TO.N,/R_Chanel_Select*%
X163000000Y-111810000D03*
%TD*%
D18*
%TO.P,R8,1*%
%TO.N,GND*%
X171000000Y-82190000D03*
D19*
%TO.P,R8,2*%
%TO.N,Net-(U1-IO0)*%
X171000000Y-89810000D03*
%TD*%
D20*
%TO.P,To_LiPo_Cell1,1,Pin_1*%
%TO.N,+BATT*%
X164000000Y-137000000D03*
D21*
%TO.P,To_LiPo_Cell1,2,Pin_2*%
%TO.N,-BATT*%
X166500000Y-137000000D03*
%TD*%
D22*
%TO.P,SW4,*%
%TO.N,*%
X112900000Y-137000000D03*
X121100000Y-137000000D03*
D23*
%TO.P,SW4,1,A*%
%TO.N,+BATT*%
X115000000Y-137000000D03*
D24*
%TO.P,SW4,2,B*%
%TO.N,Net-(SW4-B)*%
X117000000Y-137000000D03*
%TO.P,SW4,3,C*%
%TO.N,unconnected-(SW4-C-Pad3)*%
X119000000Y-137000000D03*
%TD*%
D25*
%TO.P,M1,1,+*%
%TO.N,Net-(D1-K)*%
X165500000Y-73500000D03*
D26*
%TO.P,M1,2,-*%
%TO.N,GND*%
X170500000Y-73500000D03*
%TD*%
D18*
%TO.P,R5,1*%
%TO.N,GND*%
X110500000Y-119690000D03*
D19*
%TO.P,R5,2*%
%TO.N,Net-(SW5-B)*%
X110500000Y-127310000D03*
%TD*%
D17*
%TO.P,L_SPKR1,+,SPKR+*%
%TO.N,Net-(L_SPKR1-SPKR+)*%
X152587500Y-73258500D03*
%TO.P,L_SPKR1,-,SPKR-*%
%TO.N,Net-(L_SPKR1-SPKR-)*%
X149412500Y-73258500D03*
%TO.P,L_SPKR1,BCLK,BCLK*%
%TO.N,/DAC_BCLK*%
X145920000Y-86212500D03*
%TO.P,L_SPKR1,DIN,DIN*%
%TO.N,/DAC_DIN*%
X148460000Y-86212500D03*
%TO.P,L_SPKR1,GAIN,Gain*%
%TO.N,/Gain*%
X151000000Y-86212500D03*
%TO.P,L_SPKR1,GND,GND*%
%TO.N,GND*%
X156080000Y-86212500D03*
%TO.P,L_SPKR1,LRC,LRC*%
%TO.N,/DAC_LRC*%
X143380000Y-86212500D03*
%TO.P,L_SPKR1,SD,SD*%
%TO.N,/L_Chanel_Select*%
X153540000Y-86212500D03*
%TO.P,L_SPKR1,VIN,Vin*%
%TO.N,/VDD*%
X158620000Y-86212500D03*
%TD*%
D18*
%TO.P,R9,1*%
%TO.N,/VDD*%
X163190000Y-93190000D03*
D19*
%TO.P,R9,2*%
%TO.N,/L_Chanel_Select*%
X163190000Y-100810000D03*
%TD*%
D27*
%TO.P,U1,0,IO0*%
%TO.N,Net-(U1-IO0)*%
X137401877Y-98410500D03*
%TO.P,U1,2,IO2*%
%TO.N,/TFT_DC*%
X137401877Y-100950500D03*
%TO.P,U1,3v,VDD*%
%TO.N,/VDD*%
X137401877Y-75550500D03*
%TO.P,U1,4,IO4*%
%TO.N,/TFT_CS*%
X137401877Y-95870500D03*
%TO.P,U1,5,IO5*%
%TO.N,/SD_CS*%
X137401877Y-88250500D03*
%TO.P,U1,12,IO12*%
%TO.N,/Detect_Jack*%
X114541877Y-103490500D03*
%TO.P,U1,13,IO13*%
%TO.N,/DAC_DIN*%
X137401877Y-106030500D03*
%TO.P,U1,14,IO14*%
%TO.N,/DAC_BCLK*%
X114541877Y-100950500D03*
%TO.P,U1,15,IO15*%
%TO.N,/DAC_LRC*%
X137401877Y-103490500D03*
%TO.P,U1,16,IO16*%
%TO.N,Net-(U1-IO16)*%
X137401877Y-93330500D03*
%TO.P,U1,17,IO17*%
%TO.N,Net-(SW6-B)*%
X137401877Y-90790500D03*
%TO.P,U1,18,IO18*%
%TO.N,/SPI_SCK*%
X137401877Y-85710500D03*
%TO.P,U1,19,IO19*%
%TO.N,/SPI_MISO*%
X137401877Y-80630500D03*
%TO.P,U1,22,IO22*%
%TO.N,/Motor_Driver*%
X137401877Y-78090500D03*
%TO.P,U1,23,IO23*%
%TO.N,/SPI_MOSI*%
X137401877Y-83170500D03*
%TO.P,U1,25,IO25*%
%TO.N,/SCREEN_BRIGHTNESS*%
X114541877Y-93330500D03*
%TO.P,U1,26,IO26*%
%TO.N,/Gain*%
X114541877Y-95870500D03*
%TO.P,U1,27,IO27*%
%TO.N,Net-(U1-IO27)*%
X114541877Y-98410500D03*
%TO.P,U1,32,IO32*%
%TO.N,Net-(SW1-A)*%
X114541877Y-88250500D03*
%TO.P,U1,33,IO33*%
%TO.N,Net-(SW2-A)*%
X114541877Y-90790500D03*
%TO.P,U1,34,IO34*%
%TO.N,Net-(SW5-B)*%
X114541877Y-83170500D03*
%TO.P,U1,35,IO35*%
%TO.N,Net-(SW3-B)*%
X114541877Y-85710500D03*
%TO.P,U1,EN,EN*%
%TO.N,/RESET*%
X114541877Y-80630500D03*
%TO.P,U1,GND,GND*%
%TO.N,GND*%
X114541877Y-106030500D03*
%TO.P,U1,VN,SENSOR_VN*%
%TO.N,unconnected-(U1-SENSOR_VN-PadVN)*%
X114541877Y-78090500D03*
%TO.P,U1,VP,SENSOR_VP*%
%TO.N,unconnected-(U1-SENSOR_VP-PadVP)*%
X114541877Y-75550500D03*
%TD*%
D18*
%TO.P,R2,1*%
%TO.N,Net-(U1-IO16)*%
X155000000Y-124810000D03*
D19*
%TO.P,R2,2*%
%TO.N,GND*%
X155000000Y-117190000D03*
%TD*%
D21*
%TO.P,To_Battery_Charger_Of_ESP_32,2,Pin_2*%
%TO.N,-BATT*%
X119000000Y-128000000D03*
D20*
%TO.P,To_Battery_Charger_Of_ESP_32,1,Pin_1*%
%TO.N,Net-(SW4-B)*%
X116500000Y-128000000D03*
%TD*%
D18*
%TO.P,R3,1*%
%TO.N,GND*%
X98190000Y-67000000D03*
D19*
%TO.P,R3,2*%
%TO.N,Net-(SW1-A)*%
X105810000Y-67000000D03*
%TD*%
D18*
%TO.P,R4,1*%
%TO.N,GND*%
X111000000Y-109000000D03*
D19*
%TO.P,R4,2*%
%TO.N,Net-(SW3-B)*%
X111000000Y-116620000D03*
%TD*%
D18*
%TO.P,R11,1*%
%TO.N,/R_Chanel_Select*%
X165190000Y-111000000D03*
D19*
%TO.P,R11,2*%
%TO.N,-BATT*%
X172810000Y-111000000D03*
%TD*%
D18*
%TO.P,R12,1*%
%TO.N,/Detect_Jack*%
X140190000Y-125000000D03*
D19*
%TO.P,R12,2*%
%TO.N,/VDD*%
X147810000Y-125000000D03*
%TD*%
D18*
%TO.P,R1,1*%
%TO.N,Net-(U1-IO27)*%
X129190000Y-123000000D03*
D19*
%TO.P,R1,2*%
%TO.N,GND*%
X136810000Y-123000000D03*
%TD*%
D18*
%TO.P,R6,1*%
%TO.N,GND*%
X95190000Y-105000000D03*
D19*
%TO.P,R6,2*%
%TO.N,Net-(SW2-A)*%
X102810000Y-105000000D03*
%TD*%
D18*
%TO.P,R7,1*%
%TO.N,Net-(Q1-S)*%
X165000000Y-89810000D03*
D19*
%TO.P,R7,2*%
%TO.N,Net-(D1-K)*%
X165000000Y-82190000D03*
%TD*%
D22*
%TO.P,SW6,*%
%TO.N,*%
X144900000Y-137000000D03*
X153100000Y-137000000D03*
D23*
%TO.P,SW6,1,A*%
%TO.N,/VDD*%
X147000000Y-137000000D03*
D24*
%TO.P,SW6,2,B*%
%TO.N,Net-(SW6-B)*%
X149000000Y-137000000D03*
%TO.P,SW6,3,C*%
%TO.N,unconnected-(SW6-C-Pad3)*%
X151000000Y-137000000D03*
%TD*%
D17*
%TO.P,Screen&SDCardReader1,CS,CS*%
%TO.N,/TFT_CS*%
X171330000Y-56430000D03*
%TO.P,Screen&SDCardReader1,DC,DC*%
%TO.N,/TFT_DC*%
X171330000Y-51350000D03*
%TO.P,Screen&SDCardReader1,GND,GND*%
%TO.N,GND*%
X171330000Y-58970000D03*
%TO.P,Screen&SDCardReader1,LED,LED*%
%TO.N,/SCREEN_BRIGHTNESS*%
X171330000Y-43730000D03*
%TO.P,Screen&SDCardReader1,RESET,RESET*%
%TO.N,/RESET*%
X171330000Y-53890000D03*
%TO.P,Screen&SDCardReader1,SCK,SCK*%
%TO.N,/SPI_SCK*%
X171330000Y-46270000D03*
%TO.P,Screen&SDCardReader1,SDI(MOSI),SDI(MOSI)*%
%TO.N,/SPI_MOSI*%
X171330000Y-48810000D03*
%TO.P,Screen&SDCardReader1,SDO(MISO),SDO(MISO)*%
%TO.N,/SPI_MISO*%
X171330000Y-41190000D03*
D28*
%TO.P,Screen&SDCardReader1,SD_CS,SD_CS*%
%TO.N,/SD_CS*%
X97670000Y-48810000D03*
D17*
%TO.P,Screen&SDCardReader1,SD_MISO,SD_MISO*%
%TO.N,/SPI_MISO*%
X97670000Y-43730000D03*
%TO.P,Screen&SDCardReader1,SD_MOSI,SD_MOSI*%
%TO.N,/SPI_MOSI*%
X97670000Y-46270000D03*
%TO.P,Screen&SDCardReader1,SD_SCK,SD_SCK*%
%TO.N,/SPI_SCK*%
X97670000Y-41190000D03*
%TO.P,Screen&SDCardReader1,T_CLK,T_CLK*%
%TO.N,unconnected-(Screen&SDCardReader1-PadT_CLK)*%
X171330000Y-38650000D03*
%TO.P,Screen&SDCardReader1,T_CS,T_CS*%
%TO.N,unconnected-(Screen&SDCardReader1-PadT_CS)*%
X171330000Y-36110000D03*
%TO.P,Screen&SDCardReader1,T_DIN,T_DIN*%
%TO.N,unconnected-(Screen&SDCardReader1-PadT_DIN)*%
X171330000Y-33570000D03*
%TO.P,Screen&SDCardReader1,T_DO,T_DO*%
%TO.N,unconnected-(Screen&SDCardReader1-PadT_DO)*%
X171330000Y-31030000D03*
%TO.P,Screen&SDCardReader1,T_IRQ,T_IRQ*%
%TO.N,unconnected-(Screen&SDCardReader1-PadT_IRQ)*%
X171330000Y-28490000D03*
D28*
%TO.P,Screen&SDCardReader1,Vcc,Vcc*%
%TO.N,/VDD*%
X171330000Y-61510000D03*
%TD*%
D29*
%TO.P,J1,R*%
%TO.N,Net-(RSPKR1-SPKR+)*%
X128000000Y-131000000D03*
D30*
%TO.P,J1,S*%
%TO.N,Net-(L_SPKR1-SPKR-)*%
X133000000Y-136000000D03*
D29*
%TO.P,J1,T*%
%TO.N,Net-(L_SPKR1-SPKR+)*%
X138000000Y-131000000D03*
D31*
%TO.P,J1,TN*%
%TO.N,/Detect_Jack*%
X135500000Y-131000000D03*
%TD*%
D32*
%TO.N,/Motor_Driver*%
X137922000Y-62992000D03*
X162560000Y-126492000D03*
%TO.N,Net-(SW6-B)*%
X149098000Y-131064000D03*
%TO.N,/SPI_MOSI*%
X131064000Y-55118000D03*
%TO.N,Net-(RSPKR1-SPKR+)*%
X141986000Y-120650000D03*
%TO.N,Net-(L_SPKR1-SPKR+)*%
X144526000Y-118364000D03*
D33*
%TO.N,Net-(L_SPKR1-SPKR-)*%
X131064000Y-120142000D03*
X119634000Y-120904000D03*
D32*
%TO.N,Net-(SW3-B)*%
X96000000Y-121500000D03*
%TD*%
D34*
%TO.N,/Motor_Driver*%
X152146000Y-62992000D02*
X137922000Y-62992000D01*
X158496000Y-69342000D02*
X152146000Y-62992000D01*
X160020000Y-70866000D02*
X158496000Y-69342000D01*
X160020000Y-73660000D02*
X160020000Y-70866000D01*
X157738338Y-75941662D02*
X160020000Y-73660000D01*
X162052000Y-84836000D02*
X159258000Y-82042000D01*
X159258000Y-82042000D02*
X157738338Y-80522338D01*
X169418000Y-87630000D02*
X166624000Y-84836000D01*
X169418000Y-113538000D02*
X169418000Y-87630000D01*
X170942000Y-117094000D02*
X170942000Y-115570000D01*
X166624000Y-84836000D02*
X162052000Y-84836000D01*
X170942000Y-118110000D02*
X170942000Y-117094000D01*
X170942000Y-115062000D02*
X169418000Y-113538000D01*
X162560000Y-126492000D02*
X170942000Y-118110000D01*
X157738338Y-80522338D02*
X157738338Y-75941662D01*
X170942000Y-115570000D02*
X170942000Y-115062000D01*
%TO.N,Net-(U1-IO16)*%
X167386000Y-111864000D02*
X159750000Y-119500000D01*
X167386000Y-87630000D02*
X167386000Y-111864000D01*
X166370000Y-86614000D02*
X167386000Y-87630000D01*
X161544000Y-86614000D02*
X166370000Y-86614000D01*
X156464000Y-74676000D02*
X156464000Y-81534000D01*
X151927381Y-70139381D02*
X156464000Y-74676000D01*
X136108619Y-70139381D02*
X151927381Y-70139381D01*
X129540000Y-76708000D02*
X136108619Y-70139381D01*
X129540000Y-85598000D02*
X129540000Y-76708000D01*
X135829500Y-91887500D02*
X129540000Y-85598000D01*
X135958877Y-91887500D02*
X135829500Y-91887500D01*
X137401877Y-93330500D02*
X135958877Y-91887500D01*
X156464000Y-81534000D02*
X161544000Y-86614000D01*
%TO.N,Net-(SW6-B)*%
X141224000Y-94612623D02*
X137401877Y-90790500D01*
X141224000Y-106172000D02*
X141224000Y-94612623D01*
X130048000Y-117348000D02*
X141224000Y-106172000D01*
X136398000Y-127000000D02*
X130048000Y-120650000D01*
X145034000Y-127000000D02*
X136398000Y-127000000D01*
X130048000Y-120650000D02*
X130048000Y-117348000D01*
X149098000Y-131064000D02*
X145034000Y-127000000D01*
%TO.N,Net-(SW4-B)*%
X116500000Y-128356000D02*
X116332000Y-128524000D01*
X116500000Y-128000000D02*
X116500000Y-128356000D01*
%TO.N,/TFT_DC*%
X123444000Y-73152000D02*
X123444000Y-86992623D01*
X141478000Y-55118000D02*
X123444000Y-73152000D01*
X171330000Y-51396000D02*
X173482000Y-53548000D01*
X173482000Y-54610000D02*
X172974000Y-55118000D01*
X123444000Y-86992623D02*
X137401877Y-100950500D01*
X171330000Y-51350000D02*
X171330000Y-51396000D01*
X173482000Y-53548000D02*
X173482000Y-54610000D01*
X172974000Y-55118000D02*
X141478000Y-55118000D01*
%TO.N,/TFT_CS*%
X124968000Y-83436623D02*
X137401877Y-95870500D01*
X124968000Y-73660000D02*
X124968000Y-83436623D01*
X142198000Y-56430000D02*
X124968000Y-73660000D01*
X171330000Y-56430000D02*
X142198000Y-56430000D01*
%TO.N,/SPI_MOSI*%
X131064000Y-55118000D02*
X137372000Y-48810000D01*
X137372000Y-48810000D02*
X171330000Y-48810000D01*
%TO.N,Net-(RSPKR1-SPKR+)*%
X152587500Y-104714500D02*
X152587500Y-96258500D01*
X152146000Y-105156000D02*
X152587500Y-104714500D01*
X152146000Y-114046000D02*
X152146000Y-105156000D01*
X145542000Y-120650000D02*
X152146000Y-114046000D01*
X141986000Y-120650000D02*
X145542000Y-120650000D01*
D35*
%TO.N,Net-(L_SPKR1-SPKR+)*%
X141897652Y-83948348D02*
X152587500Y-73258500D01*
X150368000Y-94742000D02*
X148921304Y-94742000D01*
X141897652Y-87718348D02*
X141897652Y-83948348D01*
X151130000Y-95504000D02*
X150368000Y-94742000D01*
X151130000Y-100076000D02*
X151130000Y-95504000D01*
X148921304Y-94742000D02*
X141897652Y-87718348D01*
X149860000Y-101346000D02*
X151130000Y-100076000D01*
X149860000Y-113030000D02*
X149860000Y-101346000D01*
X144526000Y-118364000D02*
X149860000Y-113030000D01*
D36*
%TO.N,GND*%
X152558000Y-117190000D02*
X155000000Y-117190000D01*
X146748000Y-123000000D02*
X152558000Y-117190000D01*
X136810000Y-123000000D02*
X146748000Y-123000000D01*
D34*
X136810000Y-123094000D02*
X136906000Y-123190000D01*
X136810000Y-123000000D02*
X136810000Y-123094000D01*
D36*
%TO.N,Net-(L_SPKR1-SPKR-)*%
X146705500Y-73258500D02*
X149412500Y-73258500D01*
X140970000Y-78994000D02*
X146705500Y-73258500D01*
X149412500Y-96258500D02*
X140970000Y-87816000D01*
X140970000Y-87816000D02*
X140970000Y-78994000D01*
X149412500Y-100015500D02*
X149412500Y-96258500D01*
X140208000Y-109220000D02*
X149412500Y-100015500D01*
X140208000Y-110998000D02*
X140208000Y-109220000D01*
X131064000Y-120142000D02*
X140208000Y-110998000D01*
X114300000Y-132842000D02*
X112522000Y-131064000D01*
X112522000Y-131064000D02*
X112522000Y-128016000D01*
X118364000Y-122174000D02*
X119634000Y-120904000D01*
X117348000Y-132842000D02*
X114300000Y-132842000D01*
X112522000Y-128016000D02*
X118364000Y-122174000D01*
X118872000Y-134366000D02*
X117348000Y-132842000D01*
X129286000Y-134366000D02*
X118872000Y-134366000D01*
X130920000Y-136000000D02*
X129286000Y-134366000D01*
X133000000Y-136000000D02*
X130920000Y-136000000D01*
D34*
X133494000Y-136000000D02*
X133604000Y-135890000D01*
X133000000Y-136000000D02*
X133494000Y-136000000D01*
%TO.N,/Detect_Jack*%
X116000000Y-104948623D02*
X114541877Y-103490500D01*
X116000000Y-111500000D02*
X116000000Y-104948623D01*
X135500000Y-131000000D02*
X116000000Y-111500000D01*
%TO.N,Net-(L_SPKR1-SPKR-)*%
X149938000Y-73784000D02*
X149412500Y-73258500D01*
%TO.N,/DAC_LRC*%
X137658000Y-103490500D02*
X137401877Y-103490500D01*
%TO.N,/L_Chanel_Select*%
X153540000Y-86212500D02*
X155327500Y-88000000D01*
X155327500Y-88000000D02*
X165500000Y-88000000D01*
X166500000Y-89000000D02*
X166500000Y-97500000D01*
X165500000Y-88000000D02*
X166500000Y-89000000D01*
X166500000Y-97500000D02*
X163190000Y-100810000D01*
%TO.N,/VDD*%
X171000000Y-61500000D02*
X171010000Y-61510000D01*
X171330000Y-61510000D02*
X171010000Y-61510000D01*
%TO.N,Net-(U1-IO16)*%
X155000000Y-124810000D02*
X159750000Y-120060000D01*
X159750000Y-120060000D02*
X159750000Y-119500000D01*
%TO.N,Net-(U1-IO27)*%
X157000000Y-133000000D02*
X146500000Y-133000000D01*
X129190000Y-123000000D02*
X129190000Y-113058623D01*
X159750000Y-124500000D02*
X159750000Y-130250000D01*
X159750000Y-130250000D02*
X157000000Y-133000000D01*
X129190000Y-123000000D02*
X135190000Y-129000000D01*
X146500000Y-133000000D02*
X142500000Y-129000000D01*
X129190000Y-113058623D02*
X114541877Y-98410500D01*
X142500000Y-129000000D02*
X135190000Y-129000000D01*
%TO.N,Net-(U1-IO0)*%
X171000000Y-91000000D02*
X171000000Y-89810000D01*
X174250000Y-124500000D02*
X176000000Y-122750000D01*
X170500000Y-91500000D02*
X171000000Y-91000000D01*
X176000000Y-122750000D02*
X176000000Y-118000000D01*
X176000000Y-118000000D02*
X170500000Y-112500000D01*
X170500000Y-112500000D02*
X170500000Y-91500000D01*
D36*
%TO.N,Net-(Q1-S)*%
X163000000Y-90000000D02*
X164810000Y-90000000D01*
X153000000Y-126000000D02*
X153000000Y-121500000D01*
X153540000Y-128000000D02*
X153540000Y-126540000D01*
X161000000Y-92000000D02*
X163000000Y-90000000D01*
X164810000Y-90000000D02*
X165000000Y-89810000D01*
X153000000Y-121500000D02*
X154500000Y-120000000D01*
X154500000Y-120000000D02*
X156000000Y-120000000D01*
X157000000Y-119000000D02*
X157000000Y-115000000D01*
X157000000Y-115000000D02*
X161000000Y-111000000D01*
X161000000Y-111000000D02*
X161000000Y-92000000D01*
X156000000Y-120000000D02*
X157000000Y-119000000D01*
X153540000Y-126540000D02*
X153000000Y-126000000D01*
D34*
%TO.N,Net-(SW3-B)*%
X111000000Y-116620000D02*
X100880000Y-116620000D01*
X113000000Y-108500000D02*
X111500000Y-107000000D01*
X100880000Y-116620000D02*
X99500000Y-118000000D01*
X111500000Y-88752377D02*
X114541877Y-85710500D01*
X113000000Y-114620000D02*
X113000000Y-108500000D01*
X111000000Y-116620000D02*
X113000000Y-114620000D01*
X99500000Y-118000000D02*
X96000000Y-121500000D01*
X111500000Y-107000000D02*
X111500000Y-88752377D01*
%TO.N,Net-(SW5-B)*%
X116500000Y-85128623D02*
X114541877Y-83170500D01*
X114000000Y-123810000D02*
X114000000Y-108500000D01*
X112500000Y-107000000D02*
X112500000Y-90000000D01*
X114000000Y-108500000D02*
X112500000Y-107000000D01*
X112500000Y-90000000D02*
X113000000Y-89500000D01*
X116000000Y-89500000D02*
X116500000Y-89000000D01*
X110500000Y-127310000D02*
X114000000Y-123810000D01*
X113000000Y-89500000D02*
X116000000Y-89500000D01*
X116500000Y-89000000D02*
X116500000Y-85128623D01*
%TO.N,/R_Chanel_Select*%
X149500000Y-123000000D02*
X153500000Y-119000000D01*
X153500000Y-119000000D02*
X155500000Y-119000000D01*
X155500000Y-127000000D02*
X155500000Y-128000000D01*
X154000000Y-129500000D02*
X150000000Y-129500000D01*
X155500000Y-128000000D02*
X154000000Y-129500000D01*
X150000000Y-129500000D02*
X149500000Y-129000000D01*
X155500000Y-119000000D02*
X156000000Y-118500000D01*
X156000000Y-121500000D02*
X155500000Y-121500000D01*
X163000000Y-113000000D02*
X158000000Y-118000000D01*
X163000000Y-111810000D02*
X163000000Y-113000000D01*
X154000000Y-123000000D02*
X154000000Y-125500000D01*
X158000000Y-118000000D02*
X158000000Y-119500000D01*
X156000000Y-111672500D02*
X153540000Y-109212500D01*
X155500000Y-121500000D02*
X154000000Y-123000000D01*
X158000000Y-119500000D02*
X156000000Y-121500000D01*
X154000000Y-125500000D02*
X155500000Y-127000000D01*
X149500000Y-129000000D02*
X149500000Y-123000000D01*
X156000000Y-118500000D02*
X156000000Y-111672500D01*
%TO.N,-BATT*%
X166500000Y-137000000D02*
X170000000Y-137000000D01*
D36*
X138000000Y-133000000D02*
X125000000Y-133000000D01*
X120000000Y-128000000D02*
X119000000Y-128000000D01*
X155850000Y-139650000D02*
X143000000Y-139650000D01*
X125000000Y-133000000D02*
X120000000Y-128000000D01*
X140500000Y-135500000D02*
X138000000Y-133000000D01*
X160500000Y-135000000D02*
X155850000Y-139650000D01*
X140500000Y-137150000D02*
X140500000Y-135500000D01*
D34*
X177000000Y-130000000D02*
X177000000Y-115190000D01*
X177000000Y-115190000D02*
X172810000Y-111000000D01*
X166500000Y-137000000D02*
X166500000Y-136500000D01*
D36*
X166500000Y-136500000D02*
X165000000Y-135000000D01*
X165000000Y-135000000D02*
X160500000Y-135000000D01*
D34*
X170000000Y-137000000D02*
X177000000Y-130000000D01*
D36*
X143000000Y-139650000D02*
X140500000Y-137150000D01*
D34*
%TO.N,/SCREEN_BRIGHTNESS*%
X111500000Y-80000000D02*
X113500000Y-82000000D01*
X118500000Y-89372377D02*
X114541877Y-93330500D01*
X113500000Y-82000000D02*
X116000000Y-82000000D01*
X111500000Y-69500000D02*
X111500000Y-80000000D01*
X171330000Y-43730000D02*
X137270000Y-43730000D01*
X137270000Y-43730000D02*
X111500000Y-69500000D01*
X116000000Y-82000000D02*
X118500000Y-84500000D01*
X118500000Y-84500000D02*
X118500000Y-89372377D01*
%TO.N,/RESET*%
X141282377Y-53890000D02*
X171330000Y-53890000D01*
X114541877Y-80630500D02*
X141282377Y-53890000D01*
%TD*%
M02*
